<?xml version="1.0" encoding="utf-8" standalone="no"?>
<!DOCTYPE svg PUBLIC "-//W3C//DTD SVG 1.1//EN"
  "http://www.w3.org/Graphics/SVG/1.1/DTD/svg11.dtd">
<svg xmlns:xlink="http://www.w3.org/1999/xlink" width="351.789062pt" height="351.0525pt" viewBox="0 0 351.789062 351.0525" xmlns="http://www.w3.org/2000/svg" version="1.1">
 <metadata>
  <rdf:RDF xmlns:dc="http://purl.org/dc/elements/1.1/" xmlns:cc="http://creativecommons.org/ns#" xmlns:rdf="http://www.w3.org/1999/02/22-rdf-syntax-ns#">
   <cc:Work>
    <dc:type rdf:resource="http://purl.org/dc/dcmitype/StillImage"/>
    <dc:date>2023-04-10T11:26:29.921057</dc:date>
    <dc:format>image/svg+xml</dc:format>
    <dc:creator>
     <cc:Agent>
      <dc:title>Matplotlib v3.6.0, https://matplotlib.org/</dc:title>
     </cc:Agent>
    </dc:creator>
   </cc:Work>
  </rdf:RDF>
 </metadata>
 <defs>
  <style type="text/css">*{stroke-linejoin: round; stroke-linecap: butt}</style>
 </defs>
 <g id="figure_1">
  <g id="patch_1">
   <path d="M 0 351.0525 
L 351.789062 351.0525 
L 351.789062 0 
L 0 0 
z
" style="fill: #ffffff"/>
  </g>
  <g id="axes_1">
   <g id="patch_2">
    <path d="M 49.589063 314.44 
L 344.589063 314.44 
L 344.589063 7.2 
L 49.589063 7.2 
z
" style="fill: #ffffff"/>
   </g>
   <g id="matplotlib.axis_1">
    <g id="xtick_1">
     <g id="line2d_1">
      <path d="M 58.271588 314.44 
L 58.271588 7.2 
" clip-path="url(#p5f4f9a04d0)" style="fill: none; stroke: #cccccc; stroke-width: 0.8; stroke-linecap: round"/>
     </g>
     <g id="text_1">
      <!-- 0 -->
      <g style="fill: #262626" transform="translate(55.49112 328.597812) scale(0.1 -0.1)">
       <defs>
        <path id="ArialMT-30" d="M 266 2259 
Q 266 3072 433 3567 
Q 600 4063 929 4331 
Q 1259 4600 1759 4600 
Q 2128 4600 2406 4451 
Q 2684 4303 2865 4023 
Q 3047 3744 3150 3342 
Q 3253 2941 3253 2259 
Q 3253 1453 3087 958 
Q 2922 463 2592 192 
Q 2263 -78 1759 -78 
Q 1097 -78 719 397 
Q 266 969 266 2259 
z
M 844 2259 
Q 844 1131 1108 757 
Q 1372 384 1759 384 
Q 2147 384 2411 759 
Q 2675 1134 2675 2259 
Q 2675 3391 2411 3762 
Q 2147 4134 1753 4134 
Q 1366 4134 1134 3806 
Q 844 3388 844 2259 
z
" transform="scale(0.015625)"/>
       </defs>
       <use xlink:href="#ArialMT-30"/>
      </g>
     </g>
    </g>
    <g id="xtick_2">
     <g id="line2d_2">
      <path d="M 94.518252 314.44 
L 94.518252 7.2 
" clip-path="url(#p5f4f9a04d0)" style="fill: none; stroke: #cccccc; stroke-width: 0.8; stroke-linecap: round"/>
     </g>
     <g id="text_2">
      <!-- 2500 -->
      <g style="fill: #262626" transform="translate(83.396377 328.597812) scale(0.1 -0.1)">
       <defs>
        <path id="ArialMT-32" d="M 3222 541 
L 3222 0 
L 194 0 
Q 188 203 259 391 
Q 375 700 629 1000 
Q 884 1300 1366 1694 
Q 2113 2306 2375 2664 
Q 2638 3022 2638 3341 
Q 2638 3675 2398 3904 
Q 2159 4134 1775 4134 
Q 1369 4134 1125 3890 
Q 881 3647 878 3216 
L 300 3275 
Q 359 3922 746 4261 
Q 1134 4600 1788 4600 
Q 2447 4600 2831 4234 
Q 3216 3869 3216 3328 
Q 3216 3053 3103 2787 
Q 2991 2522 2730 2228 
Q 2469 1934 1863 1422 
Q 1356 997 1212 845 
Q 1069 694 975 541 
L 3222 541 
z
" transform="scale(0.015625)"/>
        <path id="ArialMT-35" d="M 266 1200 
L 856 1250 
Q 922 819 1161 601 
Q 1400 384 1738 384 
Q 2144 384 2425 690 
Q 2706 997 2706 1503 
Q 2706 1984 2436 2262 
Q 2166 2541 1728 2541 
Q 1456 2541 1237 2417 
Q 1019 2294 894 2097 
L 366 2166 
L 809 4519 
L 3088 4519 
L 3088 3981 
L 1259 3981 
L 1013 2750 
Q 1425 3038 1878 3038 
Q 2478 3038 2890 2622 
Q 3303 2206 3303 1553 
Q 3303 931 2941 478 
Q 2500 -78 1738 -78 
Q 1113 -78 717 272 
Q 322 622 266 1200 
z
" transform="scale(0.015625)"/>
       </defs>
       <use xlink:href="#ArialMT-32"/>
       <use xlink:href="#ArialMT-35" x="55.615234"/>
       <use xlink:href="#ArialMT-30" x="111.230469"/>
       <use xlink:href="#ArialMT-30" x="166.845703"/>
      </g>
     </g>
    </g>
    <g id="xtick_3">
     <g id="line2d_3">
      <path d="M 130.764917 314.44 
L 130.764917 7.2 
" clip-path="url(#p5f4f9a04d0)" style="fill: none; stroke: #cccccc; stroke-width: 0.8; stroke-linecap: round"/>
     </g>
     <g id="text_3">
      <!-- 5000 -->
      <g style="fill: #262626" transform="translate(119.643042 328.597812) scale(0.1 -0.1)">
       <use xlink:href="#ArialMT-35"/>
       <use xlink:href="#ArialMT-30" x="55.615234"/>
       <use xlink:href="#ArialMT-30" x="111.230469"/>
       <use xlink:href="#ArialMT-30" x="166.845703"/>
      </g>
     </g>
    </g>
    <g id="xtick_4">
     <g id="line2d_4">
      <path d="M 167.011581 314.44 
L 167.011581 7.2 
" clip-path="url(#p5f4f9a04d0)" style="fill: none; stroke: #cccccc; stroke-width: 0.8; stroke-linecap: round"/>
     </g>
     <g id="text_4">
      <!-- 7500 -->
      <g style="fill: #262626" transform="translate(155.889706 328.597812) scale(0.1 -0.1)">
       <defs>
        <path id="ArialMT-37" d="M 303 3981 
L 303 4522 
L 3269 4522 
L 3269 4084 
Q 2831 3619 2401 2847 
Q 1972 2075 1738 1259 
Q 1569 684 1522 0 
L 944 0 
Q 953 541 1156 1306 
Q 1359 2072 1739 2783 
Q 2119 3494 2547 3981 
L 303 3981 
z
" transform="scale(0.015625)"/>
       </defs>
       <use xlink:href="#ArialMT-37"/>
       <use xlink:href="#ArialMT-35" x="55.615234"/>
       <use xlink:href="#ArialMT-30" x="111.230469"/>
       <use xlink:href="#ArialMT-30" x="166.845703"/>
      </g>
     </g>
    </g>
    <g id="xtick_5">
     <g id="line2d_5">
      <path d="M 203.258245 314.44 
L 203.258245 7.2 
" clip-path="url(#p5f4f9a04d0)" style="fill: none; stroke: #cccccc; stroke-width: 0.8; stroke-linecap: round"/>
     </g>
     <g id="text_5">
      <!-- 10000 -->
      <g style="fill: #262626" transform="translate(189.355901 328.597812) scale(0.1 -0.1)">
       <defs>
        <path id="ArialMT-31" d="M 2384 0 
L 1822 0 
L 1822 3584 
Q 1619 3391 1289 3197 
Q 959 3003 697 2906 
L 697 3450 
Q 1169 3672 1522 3987 
Q 1875 4303 2022 4600 
L 2384 4600 
L 2384 0 
z
" transform="scale(0.015625)"/>
       </defs>
       <use xlink:href="#ArialMT-31"/>
       <use xlink:href="#ArialMT-30" x="55.615234"/>
       <use xlink:href="#ArialMT-30" x="111.230469"/>
       <use xlink:href="#ArialMT-30" x="166.845703"/>
       <use xlink:href="#ArialMT-30" x="222.460938"/>
      </g>
     </g>
    </g>
    <g id="xtick_6">
     <g id="line2d_6">
      <path d="M 239.504909 314.44 
L 239.504909 7.2 
" clip-path="url(#p5f4f9a04d0)" style="fill: none; stroke: #cccccc; stroke-width: 0.8; stroke-linecap: round"/>
     </g>
     <g id="text_6">
      <!-- 12500 -->
      <g style="fill: #262626" transform="translate(225.602565 328.597812) scale(0.1 -0.1)">
       <use xlink:href="#ArialMT-31"/>
       <use xlink:href="#ArialMT-32" x="55.615234"/>
       <use xlink:href="#ArialMT-35" x="111.230469"/>
       <use xlink:href="#ArialMT-30" x="166.845703"/>
       <use xlink:href="#ArialMT-30" x="222.460938"/>
      </g>
     </g>
    </g>
    <g id="xtick_7">
     <g id="line2d_7">
      <path d="M 275.751573 314.44 
L 275.751573 7.2 
" clip-path="url(#p5f4f9a04d0)" style="fill: none; stroke: #cccccc; stroke-width: 0.8; stroke-linecap: round"/>
     </g>
     <g id="text_7">
      <!-- 15000 -->
      <g style="fill: #262626" transform="translate(261.849229 328.597812) scale(0.1 -0.1)">
       <use xlink:href="#ArialMT-31"/>
       <use xlink:href="#ArialMT-35" x="55.615234"/>
       <use xlink:href="#ArialMT-30" x="111.230469"/>
       <use xlink:href="#ArialMT-30" x="166.845703"/>
       <use xlink:href="#ArialMT-30" x="222.460938"/>
      </g>
     </g>
    </g>
    <g id="xtick_8">
     <g id="line2d_8">
      <path d="M 311.998237 314.44 
L 311.998237 7.2 
" clip-path="url(#p5f4f9a04d0)" style="fill: none; stroke: #cccccc; stroke-width: 0.8; stroke-linecap: round"/>
     </g>
     <g id="text_8">
      <!-- 17500 -->
      <g style="fill: #262626" transform="translate(298.095893 328.597812) scale(0.1 -0.1)">
       <use xlink:href="#ArialMT-31"/>
       <use xlink:href="#ArialMT-37" x="55.615234"/>
       <use xlink:href="#ArialMT-35" x="111.230469"/>
       <use xlink:href="#ArialMT-30" x="166.845703"/>
       <use xlink:href="#ArialMT-30" x="222.460938"/>
      </g>
     </g>
    </g>
    <g id="text_9">
     <!-- Sale price -->
     <g style="fill: #262626" transform="translate(174.85625 341.865) scale(0.1 -0.1)">
      <defs>
       <path id="ArialMT-53" d="M 288 1472 
L 859 1522 
Q 900 1178 1048 958 
Q 1197 738 1509 602 
Q 1822 466 2213 466 
Q 2559 466 2825 569 
Q 3091 672 3220 851 
Q 3350 1031 3350 1244 
Q 3350 1459 3225 1620 
Q 3100 1781 2813 1891 
Q 2628 1963 1997 2114 
Q 1366 2266 1113 2400 
Q 784 2572 623 2826 
Q 463 3081 463 3397 
Q 463 3744 659 4045 
Q 856 4347 1234 4503 
Q 1613 4659 2075 4659 
Q 2584 4659 2973 4495 
Q 3363 4331 3572 4012 
Q 3781 3694 3797 3291 
L 3216 3247 
Q 3169 3681 2898 3903 
Q 2628 4125 2100 4125 
Q 1550 4125 1298 3923 
Q 1047 3722 1047 3438 
Q 1047 3191 1225 3031 
Q 1400 2872 2139 2705 
Q 2878 2538 3153 2413 
Q 3553 2228 3743 1945 
Q 3934 1663 3934 1294 
Q 3934 928 3725 604 
Q 3516 281 3123 101 
Q 2731 -78 2241 -78 
Q 1619 -78 1198 103 
Q 778 284 539 648 
Q 300 1013 288 1472 
z
" transform="scale(0.015625)"/>
       <path id="ArialMT-61" d="M 2588 409 
Q 2275 144 1986 34 
Q 1697 -75 1366 -75 
Q 819 -75 525 192 
Q 231 459 231 875 
Q 231 1119 342 1320 
Q 453 1522 633 1644 
Q 813 1766 1038 1828 
Q 1203 1872 1538 1913 
Q 2219 1994 2541 2106 
Q 2544 2222 2544 2253 
Q 2544 2597 2384 2738 
Q 2169 2928 1744 2928 
Q 1347 2928 1158 2789 
Q 969 2650 878 2297 
L 328 2372 
Q 403 2725 575 2942 
Q 747 3159 1072 3276 
Q 1397 3394 1825 3394 
Q 2250 3394 2515 3294 
Q 2781 3194 2906 3042 
Q 3031 2891 3081 2659 
Q 3109 2516 3109 2141 
L 3109 1391 
Q 3109 606 3145 398 
Q 3181 191 3288 0 
L 2700 0 
Q 2613 175 2588 409 
z
M 2541 1666 
Q 2234 1541 1622 1453 
Q 1275 1403 1131 1340 
Q 988 1278 909 1158 
Q 831 1038 831 891 
Q 831 666 1001 516 
Q 1172 366 1500 366 
Q 1825 366 2078 508 
Q 2331 650 2450 897 
Q 2541 1088 2541 1459 
L 2541 1666 
z
" transform="scale(0.015625)"/>
       <path id="ArialMT-6c" d="M 409 0 
L 409 4581 
L 972 4581 
L 972 0 
L 409 0 
z
" transform="scale(0.015625)"/>
       <path id="ArialMT-65" d="M 2694 1069 
L 3275 997 
Q 3138 488 2766 206 
Q 2394 -75 1816 -75 
Q 1088 -75 661 373 
Q 234 822 234 1631 
Q 234 2469 665 2931 
Q 1097 3394 1784 3394 
Q 2450 3394 2872 2941 
Q 3294 2488 3294 1666 
Q 3294 1616 3291 1516 
L 816 1516 
Q 847 969 1125 678 
Q 1403 388 1819 388 
Q 2128 388 2347 550 
Q 2566 713 2694 1069 
z
M 847 1978 
L 2700 1978 
Q 2663 2397 2488 2606 
Q 2219 2931 1791 2931 
Q 1403 2931 1139 2672 
Q 875 2413 847 1978 
z
" transform="scale(0.015625)"/>
       <path id="ArialMT-20" transform="scale(0.015625)"/>
       <path id="ArialMT-70" d="M 422 -1272 
L 422 3319 
L 934 3319 
L 934 2888 
Q 1116 3141 1344 3267 
Q 1572 3394 1897 3394 
Q 2322 3394 2647 3175 
Q 2972 2956 3137 2557 
Q 3303 2159 3303 1684 
Q 3303 1175 3120 767 
Q 2938 359 2589 142 
Q 2241 -75 1856 -75 
Q 1575 -75 1351 44 
Q 1128 163 984 344 
L 984 -1272 
L 422 -1272 
z
M 931 1641 
Q 931 1000 1190 694 
Q 1450 388 1819 388 
Q 2194 388 2461 705 
Q 2728 1022 2728 1688 
Q 2728 2322 2467 2637 
Q 2206 2953 1844 2953 
Q 1484 2953 1207 2617 
Q 931 2281 931 1641 
z
" transform="scale(0.015625)"/>
       <path id="ArialMT-72" d="M 416 0 
L 416 3319 
L 922 3319 
L 922 2816 
Q 1116 3169 1280 3281 
Q 1444 3394 1641 3394 
Q 1925 3394 2219 3213 
L 2025 2691 
Q 1819 2813 1613 2813 
Q 1428 2813 1281 2702 
Q 1134 2591 1072 2394 
Q 978 2094 978 1738 
L 978 0 
L 416 0 
z
" transform="scale(0.015625)"/>
       <path id="ArialMT-69" d="M 425 3934 
L 425 4581 
L 988 4581 
L 988 3934 
L 425 3934 
z
M 425 0 
L 425 3319 
L 988 3319 
L 988 0 
L 425 0 
z
" transform="scale(0.015625)"/>
       <path id="ArialMT-63" d="M 2588 1216 
L 3141 1144 
Q 3050 572 2676 248 
Q 2303 -75 1759 -75 
Q 1078 -75 664 370 
Q 250 816 250 1647 
Q 250 2184 428 2587 
Q 606 2991 970 3192 
Q 1334 3394 1763 3394 
Q 2303 3394 2647 3120 
Q 2991 2847 3088 2344 
L 2541 2259 
Q 2463 2594 2264 2762 
Q 2066 2931 1784 2931 
Q 1359 2931 1093 2626 
Q 828 2322 828 1663 
Q 828 994 1084 691 
Q 1341 388 1753 388 
Q 2084 388 2306 591 
Q 2528 794 2588 1216 
z
" transform="scale(0.015625)"/>
      </defs>
      <use xlink:href="#ArialMT-53"/>
      <use xlink:href="#ArialMT-61" x="66.699219"/>
      <use xlink:href="#ArialMT-6c" x="122.314453"/>
      <use xlink:href="#ArialMT-65" x="144.53125"/>
      <use xlink:href="#ArialMT-20" x="200.146484"/>
      <use xlink:href="#ArialMT-70" x="227.929688"/>
      <use xlink:href="#ArialMT-72" x="283.544922"/>
      <use xlink:href="#ArialMT-69" x="316.845703"/>
      <use xlink:href="#ArialMT-63" x="339.0625"/>
      <use xlink:href="#ArialMT-65" x="389.0625"/>
     </g>
    </g>
   </g>
   <g id="matplotlib.axis_2">
    <g id="ytick_1">
     <g id="line2d_9">
      <path d="M 49.589063 314.44 
L 344.589063 314.44 
" clip-path="url(#p5f4f9a04d0)" style="fill: none; stroke: #cccccc; stroke-width: 0.8; stroke-linecap: round"/>
     </g>
     <g id="text_10">
      <!-- 0 -->
      <g style="fill: #262626" transform="translate(37.028125 318.018906) scale(0.1 -0.1)">
       <use xlink:href="#ArialMT-30"/>
      </g>
     </g>
    </g>
    <g id="ytick_2">
     <g id="line2d_10">
      <path d="M 49.589063 269.003739 
L 344.589063 269.003739 
" clip-path="url(#p5f4f9a04d0)" style="fill: none; stroke: #cccccc; stroke-width: 0.8; stroke-linecap: round"/>
     </g>
     <g id="text_11">
      <!-- 1000 -->
      <g style="fill: #262626" transform="translate(20.345313 272.582645) scale(0.1 -0.1)">
       <use xlink:href="#ArialMT-31"/>
       <use xlink:href="#ArialMT-30" x="55.615234"/>
       <use xlink:href="#ArialMT-30" x="111.230469"/>
       <use xlink:href="#ArialMT-30" x="166.845703"/>
      </g>
     </g>
    </g>
    <g id="ytick_3">
     <g id="line2d_11">
      <path d="M 49.589063 223.567477 
L 344.589063 223.567477 
" clip-path="url(#p5f4f9a04d0)" style="fill: none; stroke: #cccccc; stroke-width: 0.8; stroke-linecap: round"/>
     </g>
     <g id="text_12">
      <!-- 2000 -->
      <g style="fill: #262626" transform="translate(20.345313 227.146383) scale(0.1 -0.1)">
       <use xlink:href="#ArialMT-32"/>
       <use xlink:href="#ArialMT-30" x="55.615234"/>
       <use xlink:href="#ArialMT-30" x="111.230469"/>
       <use xlink:href="#ArialMT-30" x="166.845703"/>
      </g>
     </g>
    </g>
    <g id="ytick_4">
     <g id="line2d_12">
      <path d="M 49.589063 178.131216 
L 344.589063 178.131216 
" clip-path="url(#p5f4f9a04d0)" style="fill: none; stroke: #cccccc; stroke-width: 0.8; stroke-linecap: round"/>
     </g>
     <g id="text_13">
      <!-- 3000 -->
      <g style="fill: #262626" transform="translate(20.345313 181.710122) scale(0.1 -0.1)">
       <defs>
        <path id="ArialMT-33" d="M 269 1209 
L 831 1284 
Q 928 806 1161 595 
Q 1394 384 1728 384 
Q 2125 384 2398 659 
Q 2672 934 2672 1341 
Q 2672 1728 2419 1979 
Q 2166 2231 1775 2231 
Q 1616 2231 1378 2169 
L 1441 2663 
Q 1497 2656 1531 2656 
Q 1891 2656 2178 2843 
Q 2466 3031 2466 3422 
Q 2466 3731 2256 3934 
Q 2047 4138 1716 4138 
Q 1388 4138 1169 3931 
Q 950 3725 888 3313 
L 325 3413 
Q 428 3978 793 4289 
Q 1159 4600 1703 4600 
Q 2078 4600 2393 4439 
Q 2709 4278 2876 4000 
Q 3044 3722 3044 3409 
Q 3044 3113 2884 2869 
Q 2725 2625 2413 2481 
Q 2819 2388 3044 2092 
Q 3269 1797 3269 1353 
Q 3269 753 2831 336 
Q 2394 -81 1725 -81 
Q 1122 -81 723 278 
Q 325 638 269 1209 
z
" transform="scale(0.015625)"/>
       </defs>
       <use xlink:href="#ArialMT-33"/>
       <use xlink:href="#ArialMT-30" x="55.615234"/>
       <use xlink:href="#ArialMT-30" x="111.230469"/>
       <use xlink:href="#ArialMT-30" x="166.845703"/>
      </g>
     </g>
    </g>
    <g id="ytick_5">
     <g id="line2d_13">
      <path d="M 49.589063 132.694954 
L 344.589063 132.694954 
" clip-path="url(#p5f4f9a04d0)" style="fill: none; stroke: #cccccc; stroke-width: 0.8; stroke-linecap: round"/>
     </g>
     <g id="text_14">
      <!-- 4000 -->
      <g style="fill: #262626" transform="translate(20.345313 136.27386) scale(0.1 -0.1)">
       <defs>
        <path id="ArialMT-34" d="M 2069 0 
L 2069 1097 
L 81 1097 
L 81 1613 
L 2172 4581 
L 2631 4581 
L 2631 1613 
L 3250 1613 
L 3250 1097 
L 2631 1097 
L 2631 0 
L 2069 0 
z
M 2069 1613 
L 2069 3678 
L 634 1613 
L 2069 1613 
z
" transform="scale(0.015625)"/>
       </defs>
       <use xlink:href="#ArialMT-34"/>
       <use xlink:href="#ArialMT-30" x="55.615234"/>
       <use xlink:href="#ArialMT-30" x="111.230469"/>
       <use xlink:href="#ArialMT-30" x="166.845703"/>
      </g>
     </g>
    </g>
    <g id="ytick_6">
     <g id="line2d_14">
      <path d="M 49.589063 87.258693 
L 344.589063 87.258693 
" clip-path="url(#p5f4f9a04d0)" style="fill: none; stroke: #cccccc; stroke-width: 0.8; stroke-linecap: round"/>
     </g>
     <g id="text_15">
      <!-- 5000 -->
      <g style="fill: #262626" transform="translate(20.345313 90.837599) scale(0.1 -0.1)">
       <use xlink:href="#ArialMT-35"/>
       <use xlink:href="#ArialMT-30" x="55.615234"/>
       <use xlink:href="#ArialMT-30" x="111.230469"/>
       <use xlink:href="#ArialMT-30" x="166.845703"/>
      </g>
     </g>
    </g>
    <g id="ytick_7">
     <g id="line2d_15">
      <path d="M 49.589063 41.822431 
L 344.589063 41.822431 
" clip-path="url(#p5f4f9a04d0)" style="fill: none; stroke: #cccccc; stroke-width: 0.8; stroke-linecap: round"/>
     </g>
     <g id="text_16">
      <!-- 6000 -->
      <g style="fill: #262626" transform="translate(20.345313 45.401337) scale(0.1 -0.1)">
       <defs>
        <path id="ArialMT-36" d="M 3184 3459 
L 2625 3416 
Q 2550 3747 2413 3897 
Q 2184 4138 1850 4138 
Q 1581 4138 1378 3988 
Q 1113 3794 959 3422 
Q 806 3050 800 2363 
Q 1003 2672 1297 2822 
Q 1591 2972 1913 2972 
Q 2475 2972 2870 2558 
Q 3266 2144 3266 1488 
Q 3266 1056 3080 686 
Q 2894 316 2569 119 
Q 2244 -78 1831 -78 
Q 1128 -78 684 439 
Q 241 956 241 2144 
Q 241 3472 731 4075 
Q 1159 4600 1884 4600 
Q 2425 4600 2770 4297 
Q 3116 3994 3184 3459 
z
M 888 1484 
Q 888 1194 1011 928 
Q 1134 663 1356 523 
Q 1578 384 1822 384 
Q 2178 384 2434 671 
Q 2691 959 2691 1453 
Q 2691 1928 2437 2201 
Q 2184 2475 1800 2475 
Q 1419 2475 1153 2201 
Q 888 1928 888 1484 
z
" transform="scale(0.015625)"/>
       </defs>
       <use xlink:href="#ArialMT-36"/>
       <use xlink:href="#ArialMT-30" x="55.615234"/>
       <use xlink:href="#ArialMT-30" x="111.230469"/>
       <use xlink:href="#ArialMT-30" x="166.845703"/>
      </g>
     </g>
    </g>
    <g id="text_17">
     <!-- Count -->
     <g style="fill: #262626" transform="translate(14.357813 174.161406) rotate(-90) scale(0.1 -0.1)">
      <defs>
       <path id="ArialMT-43" d="M 3763 1606 
L 4369 1453 
Q 4178 706 3683 314 
Q 3188 -78 2472 -78 
Q 1731 -78 1267 223 
Q 803 525 561 1097 
Q 319 1669 319 2325 
Q 319 3041 592 3573 
Q 866 4106 1370 4382 
Q 1875 4659 2481 4659 
Q 3169 4659 3637 4309 
Q 4106 3959 4291 3325 
L 3694 3184 
Q 3534 3684 3231 3912 
Q 2928 4141 2469 4141 
Q 1941 4141 1586 3887 
Q 1231 3634 1087 3207 
Q 944 2781 944 2328 
Q 944 1744 1114 1308 
Q 1284 872 1643 656 
Q 2003 441 2422 441 
Q 2931 441 3284 734 
Q 3638 1028 3763 1606 
z
" transform="scale(0.015625)"/>
       <path id="ArialMT-6f" d="M 213 1659 
Q 213 2581 725 3025 
Q 1153 3394 1769 3394 
Q 2453 3394 2887 2945 
Q 3322 2497 3322 1706 
Q 3322 1066 3130 698 
Q 2938 331 2570 128 
Q 2203 -75 1769 -75 
Q 1072 -75 642 372 
Q 213 819 213 1659 
z
M 791 1659 
Q 791 1022 1069 705 
Q 1347 388 1769 388 
Q 2188 388 2466 706 
Q 2744 1025 2744 1678 
Q 2744 2294 2464 2611 
Q 2184 2928 1769 2928 
Q 1347 2928 1069 2612 
Q 791 2297 791 1659 
z
" transform="scale(0.015625)"/>
       <path id="ArialMT-75" d="M 2597 0 
L 2597 488 
Q 2209 -75 1544 -75 
Q 1250 -75 995 37 
Q 741 150 617 320 
Q 494 491 444 738 
Q 409 903 409 1263 
L 409 3319 
L 972 3319 
L 972 1478 
Q 972 1038 1006 884 
Q 1059 663 1231 536 
Q 1403 409 1656 409 
Q 1909 409 2131 539 
Q 2353 669 2445 892 
Q 2538 1116 2538 1541 
L 2538 3319 
L 3100 3319 
L 3100 0 
L 2597 0 
z
" transform="scale(0.015625)"/>
       <path id="ArialMT-6e" d="M 422 0 
L 422 3319 
L 928 3319 
L 928 2847 
Q 1294 3394 1984 3394 
Q 2284 3394 2536 3286 
Q 2788 3178 2913 3003 
Q 3038 2828 3088 2588 
Q 3119 2431 3119 2041 
L 3119 0 
L 2556 0 
L 2556 2019 
Q 2556 2363 2490 2533 
Q 2425 2703 2258 2804 
Q 2091 2906 1866 2906 
Q 1506 2906 1245 2678 
Q 984 2450 984 1813 
L 984 0 
L 422 0 
z
" transform="scale(0.015625)"/>
       <path id="ArialMT-74" d="M 1650 503 
L 1731 6 
Q 1494 -44 1306 -44 
Q 1000 -44 831 53 
Q 663 150 594 308 
Q 525 466 525 972 
L 525 2881 
L 113 2881 
L 113 3319 
L 525 3319 
L 525 4141 
L 1084 4478 
L 1084 3319 
L 1650 3319 
L 1650 2881 
L 1084 2881 
L 1084 941 
Q 1084 700 1114 631 
Q 1144 563 1211 522 
Q 1278 481 1403 481 
Q 1497 481 1650 503 
z
" transform="scale(0.015625)"/>
      </defs>
      <use xlink:href="#ArialMT-43"/>
      <use xlink:href="#ArialMT-6f" x="72.216797"/>
      <use xlink:href="#ArialMT-75" x="127.832031"/>
      <use xlink:href="#ArialMT-6e" x="183.447266"/>
      <use xlink:href="#ArialMT-74" x="239.0625"/>
     </g>
    </g>
   </g>
   <g id="patch_3">
    <path d="M 62.998153 314.44 
L 66.350426 314.44 
L 66.350426 176.722692 
L 62.998153 176.722692 
z
" clip-path="url(#p5f4f9a04d0)" style="fill: #1f77b4; fill-opacity: 0.75; stroke: #ffffff; stroke-width: 0.352812; stroke-linejoin: miter"/>
   </g>
   <g id="patch_4">
    <path d="M 66.350426 314.44 
L 69.702699 314.44 
L 69.702699 21.830476 
L 66.350426 21.830476 
z
" clip-path="url(#p5f4f9a04d0)" style="fill: #1f77b4; fill-opacity: 0.75; stroke: #ffffff; stroke-width: 0.352812; stroke-linejoin: miter"/>
   </g>
   <g id="patch_5">
    <path d="M 69.702699 314.44 
L 73.054972 314.44 
L 73.054972 65.494723 
L 69.702699 65.494723 
z
" clip-path="url(#p5f4f9a04d0)" style="fill: #1f77b4; fill-opacity: 0.75; stroke: #ffffff; stroke-width: 0.352812; stroke-linejoin: miter"/>
   </g>
   <g id="patch_6">
    <path d="M 73.054972 314.44 
L 76.407244 314.44 
L 76.407244 170.225306 
L 73.054972 170.225306 
z
" clip-path="url(#p5f4f9a04d0)" style="fill: #1f77b4; fill-opacity: 0.75; stroke: #ffffff; stroke-width: 0.352812; stroke-linejoin: miter"/>
   </g>
   <g id="patch_7">
    <path d="M 76.407244 314.44 
L 79.759517 314.44 
L 79.759517 228.747211 
L 76.407244 228.747211 
z
" clip-path="url(#p5f4f9a04d0)" style="fill: #1f77b4; fill-opacity: 0.75; stroke: #ffffff; stroke-width: 0.352812; stroke-linejoin: miter"/>
   </g>
   <g id="patch_8">
    <path d="M 79.759517 314.44 
L 83.11179 314.44 
L 83.11179 238.379698 
L 79.759517 238.379698 
z
" clip-path="url(#p5f4f9a04d0)" style="fill: #1f77b4; fill-opacity: 0.75; stroke: #ffffff; stroke-width: 0.352812; stroke-linejoin: miter"/>
   </g>
   <g id="patch_9">
    <path d="M 83.11179 314.44 
L 86.464062 314.44 
L 86.464062 218.478616 
L 83.11179 218.478616 
z
" clip-path="url(#p5f4f9a04d0)" style="fill: #1f77b4; fill-opacity: 0.75; stroke: #ffffff; stroke-width: 0.352812; stroke-linejoin: miter"/>
   </g>
   <g id="patch_10">
    <path d="M 86.464063 314.44 
L 89.816335 314.44 
L 89.816335 244.513594 
L 86.464063 244.513594 
z
" clip-path="url(#p5f4f9a04d0)" style="fill: #1f77b4; fill-opacity: 0.75; stroke: #ffffff; stroke-width: 0.352812; stroke-linejoin: miter"/>
   </g>
   <g id="patch_11">
    <path d="M 89.816335 314.44 
L 93.168608 314.44 
L 93.168608 238.379698 
L 89.816335 238.379698 
z
" clip-path="url(#p5f4f9a04d0)" style="fill: #1f77b4; fill-opacity: 0.75; stroke: #ffffff; stroke-width: 0.352812; stroke-linejoin: miter"/>
   </g>
   <g id="patch_12">
    <path d="M 93.168608 314.44 
L 96.520881 314.44 
L 96.520881 253.373665 
L 93.168608 253.373665 
z
" clip-path="url(#p5f4f9a04d0)" style="fill: #1f77b4; fill-opacity: 0.75; stroke: #ffffff; stroke-width: 0.352812; stroke-linejoin: miter"/>
   </g>
   <g id="patch_13">
    <path d="M 96.520881 314.44 
L 99.873153 314.44 
L 99.873153 252.828429 
L 96.520881 252.828429 
z
" clip-path="url(#p5f4f9a04d0)" style="fill: #1f77b4; fill-opacity: 0.75; stroke: #ffffff; stroke-width: 0.352812; stroke-linejoin: miter"/>
   </g>
   <g id="patch_14">
    <path d="M 99.873153 314.44 
L 103.225426 314.44 
L 103.225426 266.18669 
L 99.873153 266.18669 
z
" clip-path="url(#p5f4f9a04d0)" style="fill: #1f77b4; fill-opacity: 0.75; stroke: #ffffff; stroke-width: 0.352812; stroke-linejoin: miter"/>
   </g>
   <g id="patch_15">
    <path d="M 103.225426 314.44 
L 106.577699 314.44 
L 106.577699 268.004141 
L 103.225426 268.004141 
z
" clip-path="url(#p5f4f9a04d0)" style="fill: #1f77b4; fill-opacity: 0.75; stroke: #ffffff; stroke-width: 0.352812; stroke-linejoin: miter"/>
   </g>
   <g id="patch_16">
    <path d="M 106.577699 314.44 
L 109.929972 314.44 
L 109.929972 272.093404 
L 106.577699 272.093404 
z
" clip-path="url(#p5f4f9a04d0)" style="fill: #1f77b4; fill-opacity: 0.75; stroke: #ffffff; stroke-width: 0.352812; stroke-linejoin: miter"/>
   </g>
   <g id="patch_17">
    <path d="M 109.929972 314.44 
L 113.282244 314.44 
L 113.282244 270.003336 
L 109.929972 270.003336 
z
" clip-path="url(#p5f4f9a04d0)" style="fill: #1f77b4; fill-opacity: 0.75; stroke: #ffffff; stroke-width: 0.352812; stroke-linejoin: miter"/>
   </g>
   <g id="patch_18">
    <path d="M 113.282244 314.44 
L 116.634517 314.44 
L 116.634517 270.821189 
L 113.282244 270.821189 
z
" clip-path="url(#p5f4f9a04d0)" style="fill: #1f77b4; fill-opacity: 0.75; stroke: #ffffff; stroke-width: 0.352812; stroke-linejoin: miter"/>
   </g>
   <g id="patch_19">
    <path d="M 116.634517 314.44 
L 119.98679 314.44 
L 119.98679 263.006152 
L 116.634517 263.006152 
z
" clip-path="url(#p5f4f9a04d0)" style="fill: #1f77b4; fill-opacity: 0.75; stroke: #ffffff; stroke-width: 0.352812; stroke-linejoin: miter"/>
   </g>
   <g id="patch_20">
    <path d="M 119.98679 314.44 
L 123.339062 314.44 
L 123.339062 261.143265 
L 119.98679 261.143265 
z
" clip-path="url(#p5f4f9a04d0)" style="fill: #1f77b4; fill-opacity: 0.75; stroke: #ffffff; stroke-width: 0.352812; stroke-linejoin: miter"/>
   </g>
   <g id="patch_21">
    <path d="M 123.339062 314.44 
L 126.691335 314.44 
L 126.691335 264.778166 
L 123.339062 264.778166 
z
" clip-path="url(#p5f4f9a04d0)" style="fill: #1f77b4; fill-opacity: 0.75; stroke: #ffffff; stroke-width: 0.352812; stroke-linejoin: miter"/>
   </g>
   <g id="patch_22">
    <path d="M 126.691335 314.44 
L 130.043608 314.44 
L 130.043608 271.184679 
L 126.691335 271.184679 
z
" clip-path="url(#p5f4f9a04d0)" style="fill: #1f77b4; fill-opacity: 0.75; stroke: #ffffff; stroke-width: 0.352812; stroke-linejoin: miter"/>
   </g>
   <g id="patch_23">
    <path d="M 130.043608 314.44 
L 133.395881 314.44 
L 133.395881 273.229311 
L 130.043608 273.229311 
z
" clip-path="url(#p5f4f9a04d0)" style="fill: #1f77b4; fill-opacity: 0.75; stroke: #ffffff; stroke-width: 0.352812; stroke-linejoin: miter"/>
   </g>
   <g id="patch_24">
    <path d="M 133.395881 314.44 
L 136.748153 314.44 
L 136.748153 277.364011 
L 133.395881 277.364011 
z
" clip-path="url(#p5f4f9a04d0)" style="fill: #1f77b4; fill-opacity: 0.75; stroke: #ffffff; stroke-width: 0.352812; stroke-linejoin: miter"/>
   </g>
   <g id="patch_25">
    <path d="M 136.748153 314.44 
L 140.100426 314.44 
L 140.100426 283.588778 
L 136.748153 283.588778 
z
" clip-path="url(#p5f4f9a04d0)" style="fill: #1f77b4; fill-opacity: 0.75; stroke: #ffffff; stroke-width: 0.352812; stroke-linejoin: miter"/>
   </g>
   <g id="patch_26">
    <path d="M 140.100426 314.44 
L 143.452699 314.44 
L 143.452699 285.315356 
L 140.100426 285.315356 
z
" clip-path="url(#p5f4f9a04d0)" style="fill: #1f77b4; fill-opacity: 0.75; stroke: #ffffff; stroke-width: 0.352812; stroke-linejoin: miter"/>
   </g>
   <g id="patch_27">
    <path d="M 143.452699 314.44 
L 146.804972 314.44 
L 146.804972 287.405424 
L 143.452699 287.405424 
z
" clip-path="url(#p5f4f9a04d0)" style="fill: #1f77b4; fill-opacity: 0.75; stroke: #ffffff; stroke-width: 0.352812; stroke-linejoin: miter"/>
   </g>
   <g id="patch_28">
    <path d="M 146.804972 314.44 
L 150.157244 314.44 
L 150.157244 287.996096 
L 146.804972 287.996096 
z
" clip-path="url(#p5f4f9a04d0)" style="fill: #1f77b4; fill-opacity: 0.75; stroke: #ffffff; stroke-width: 0.352812; stroke-linejoin: miter"/>
   </g>
   <g id="patch_29">
    <path d="M 150.157244 314.44 
L 153.509517 314.44 
L 153.509517 289.677238 
L 150.157244 289.677238 
z
" clip-path="url(#p5f4f9a04d0)" style="fill: #1f77b4; fill-opacity: 0.75; stroke: #ffffff; stroke-width: 0.352812; stroke-linejoin: miter"/>
   </g>
   <g id="patch_30">
    <path d="M 153.509517 314.44 
L 156.86179 314.44 
L 156.86179 290.767708 
L 153.509517 290.767708 
z
" clip-path="url(#p5f4f9a04d0)" style="fill: #1f77b4; fill-opacity: 0.75; stroke: #ffffff; stroke-width: 0.352812; stroke-linejoin: miter"/>
   </g>
   <g id="patch_31">
    <path d="M 156.86179 314.44 
L 160.214063 314.44 
L 160.214063 295.992878 
L 156.86179 295.992878 
z
" clip-path="url(#p5f4f9a04d0)" style="fill: #1f77b4; fill-opacity: 0.75; stroke: #ffffff; stroke-width: 0.352812; stroke-linejoin: miter"/>
   </g>
   <g id="patch_32">
    <path d="M 160.214063 314.44 
L 163.566335 314.44 
L 163.566335 294.220864 
L 160.214063 294.220864 
z
" clip-path="url(#p5f4f9a04d0)" style="fill: #1f77b4; fill-opacity: 0.75; stroke: #ffffff; stroke-width: 0.352812; stroke-linejoin: miter"/>
   </g>
   <g id="patch_33">
    <path d="M 163.566335 314.44 
L 166.918608 314.44 
L 166.918608 296.401804 
L 163.566335 296.401804 
z
" clip-path="url(#p5f4f9a04d0)" style="fill: #1f77b4; fill-opacity: 0.75; stroke: #ffffff; stroke-width: 0.352812; stroke-linejoin: miter"/>
   </g>
   <g id="patch_34">
    <path d="M 166.918608 314.44 
L 170.270881 314.44 
L 170.270881 296.856167 
L 166.918608 296.856167 
z
" clip-path="url(#p5f4f9a04d0)" style="fill: #1f77b4; fill-opacity: 0.75; stroke: #ffffff; stroke-width: 0.352812; stroke-linejoin: miter"/>
   </g>
   <g id="patch_35">
    <path d="M 170.270881 314.44 
L 173.623153 314.44 
L 173.623153 298.900799 
L 170.270881 298.900799 
z
" clip-path="url(#p5f4f9a04d0)" style="fill: #1f77b4; fill-opacity: 0.75; stroke: #ffffff; stroke-width: 0.352812; stroke-linejoin: miter"/>
   </g>
   <g id="patch_36">
    <path d="M 173.623153 314.44 
L 176.975426 314.44 
L 176.975426 300.400195 
L 173.623153 300.400195 
z
" clip-path="url(#p5f4f9a04d0)" style="fill: #1f77b4; fill-opacity: 0.75; stroke: #ffffff; stroke-width: 0.352812; stroke-linejoin: miter"/>
   </g>
   <g id="patch_37">
    <path d="M 176.975426 314.44 
L 180.327699 314.44 
L 180.327699 301.717847 
L 176.975426 301.717847 
z
" clip-path="url(#p5f4f9a04d0)" style="fill: #1f77b4; fill-opacity: 0.75; stroke: #ffffff; stroke-width: 0.352812; stroke-linejoin: miter"/>
   </g>
   <g id="patch_38">
    <path d="M 180.327699 314.44 
L 183.679972 314.44 
L 183.679972 301.172612 
L 180.327699 301.172612 
z
" clip-path="url(#p5f4f9a04d0)" style="fill: #1f77b4; fill-opacity: 0.75; stroke: #ffffff; stroke-width: 0.352812; stroke-linejoin: miter"/>
   </g>
   <g id="patch_39">
    <path d="M 183.679972 314.44 
L 187.032244 314.44 
L 187.032244 299.718651 
L 183.679972 299.718651 
z
" clip-path="url(#p5f4f9a04d0)" style="fill: #1f77b4; fill-opacity: 0.75; stroke: #ffffff; stroke-width: 0.352812; stroke-linejoin: miter"/>
   </g>
   <g id="patch_40">
    <path d="M 187.032244 314.44 
L 190.384517 314.44 
L 190.384517 301.263484 
L 187.032244 301.263484 
z
" clip-path="url(#p5f4f9a04d0)" style="fill: #1f77b4; fill-opacity: 0.75; stroke: #ffffff; stroke-width: 0.352812; stroke-linejoin: miter"/>
   </g>
   <g id="patch_41">
    <path d="M 190.384517 314.44 
L 193.73679 314.44 
L 193.73679 301.808719 
L 190.384517 301.808719 
z
" clip-path="url(#p5f4f9a04d0)" style="fill: #1f77b4; fill-opacity: 0.75; stroke: #ffffff; stroke-width: 0.352812; stroke-linejoin: miter"/>
   </g>
   <g id="patch_42">
    <path d="M 193.73679 314.44 
L 197.089062 314.44 
L 197.089062 303.126371 
L 193.73679 303.126371 
z
" clip-path="url(#p5f4f9a04d0)" style="fill: #1f77b4; fill-opacity: 0.75; stroke: #ffffff; stroke-width: 0.352812; stroke-linejoin: miter"/>
   </g>
   <g id="patch_43">
    <path d="M 197.089062 314.44 
L 200.441335 314.44 
L 200.441335 303.944224 
L 197.089062 303.944224 
z
" clip-path="url(#p5f4f9a04d0)" style="fill: #1f77b4; fill-opacity: 0.75; stroke: #ffffff; stroke-width: 0.352812; stroke-linejoin: miter"/>
   </g>
   <g id="patch_44">
    <path d="M 200.441335 314.44 
L 203.793608 314.44 
L 203.793608 304.080532 
L 200.441335 304.080532 
z
" clip-path="url(#p5f4f9a04d0)" style="fill: #1f77b4; fill-opacity: 0.75; stroke: #ffffff; stroke-width: 0.352812; stroke-linejoin: miter"/>
   </g>
   <g id="patch_45">
    <path d="M 203.793608 314.44 
L 207.145881 314.44 
L 207.145881 304.580331 
L 203.793608 304.580331 
z
" clip-path="url(#p5f4f9a04d0)" style="fill: #1f77b4; fill-opacity: 0.75; stroke: #ffffff; stroke-width: 0.352812; stroke-linejoin: miter"/>
   </g>
   <g id="patch_46">
    <path d="M 207.145881 314.44 
L 210.498153 314.44 
L 210.498153 303.898787 
L 207.145881 303.898787 
z
" clip-path="url(#p5f4f9a04d0)" style="fill: #1f77b4; fill-opacity: 0.75; stroke: #ffffff; stroke-width: 0.352812; stroke-linejoin: miter"/>
   </g>
   <g id="patch_47">
    <path d="M 210.498153 314.44 
L 213.850426 314.44 
L 213.850426 304.943821 
L 210.498153 304.943821 
z
" clip-path="url(#p5f4f9a04d0)" style="fill: #1f77b4; fill-opacity: 0.75; stroke: #ffffff; stroke-width: 0.352812; stroke-linejoin: miter"/>
   </g>
   <g id="patch_48">
    <path d="M 213.850426 314.44 
L 217.202699 314.44 
L 217.202699 305.08013 
L 213.850426 305.08013 
z
" clip-path="url(#p5f4f9a04d0)" style="fill: #1f77b4; fill-opacity: 0.75; stroke: #ffffff; stroke-width: 0.352812; stroke-linejoin: miter"/>
   </g>
   <g id="patch_49">
    <path d="M 217.202699 314.44 
L 220.554972 314.44 
L 220.554972 303.807915 
L 217.202699 303.807915 
z
" clip-path="url(#p5f4f9a04d0)" style="fill: #1f77b4; fill-opacity: 0.75; stroke: #ffffff; stroke-width: 0.352812; stroke-linejoin: miter"/>
   </g>
   <g id="patch_50">
    <path d="M 220.554972 314.44 
L 223.907244 314.44 
L 223.907244 305.897983 
L 220.554972 305.897983 
z
" clip-path="url(#p5f4f9a04d0)" style="fill: #1f77b4; fill-opacity: 0.75; stroke: #ffffff; stroke-width: 0.352812; stroke-linejoin: miter"/>
   </g>
   <g id="patch_51">
    <path d="M 223.907244 314.44 
L 227.259517 314.44 
L 227.259517 305.261875 
L 223.907244 305.261875 
z
" clip-path="url(#p5f4f9a04d0)" style="fill: #1f77b4; fill-opacity: 0.75; stroke: #ffffff; stroke-width: 0.352812; stroke-linejoin: miter"/>
   </g>
   <g id="patch_52">
    <path d="M 227.259517 314.44 
L 230.61179 314.44 
L 230.61179 307.306507 
L 227.259517 307.306507 
z
" clip-path="url(#p5f4f9a04d0)" style="fill: #1f77b4; fill-opacity: 0.75; stroke: #ffffff; stroke-width: 0.352812; stroke-linejoin: miter"/>
   </g>
   <g id="patch_53">
    <path d="M 230.61179 314.44 
L 233.964062 314.44 
L 233.964062 307.397379 
L 230.61179 307.397379 
z
" clip-path="url(#p5f4f9a04d0)" style="fill: #1f77b4; fill-opacity: 0.75; stroke: #ffffff; stroke-width: 0.352812; stroke-linejoin: miter"/>
   </g>
   <g id="patch_54">
    <path d="M 233.964062 314.44 
L 237.316335 314.44 
L 237.316335 306.806708 
L 233.964062 306.806708 
z
" clip-path="url(#p5f4f9a04d0)" style="fill: #1f77b4; fill-opacity: 0.75; stroke: #ffffff; stroke-width: 0.352812; stroke-linejoin: miter"/>
   </g>
   <g id="patch_55">
    <path d="M 237.316335 314.44 
L 240.668608 314.44 
L 240.668608 307.715433 
L 237.316335 307.715433 
z
" clip-path="url(#p5f4f9a04d0)" style="fill: #1f77b4; fill-opacity: 0.75; stroke: #ffffff; stroke-width: 0.352812; stroke-linejoin: miter"/>
   </g>
   <g id="patch_56">
    <path d="M 240.668608 314.44 
L 244.020881 314.44 
L 244.020881 306.670399 
L 240.668608 306.670399 
z
" clip-path="url(#p5f4f9a04d0)" style="fill: #1f77b4; fill-opacity: 0.75; stroke: #ffffff; stroke-width: 0.352812; stroke-linejoin: miter"/>
   </g>
   <g id="patch_57">
    <path d="M 244.020881 314.44 
L 247.373153 314.44 
L 247.373153 307.215634 
L 244.020881 307.215634 
z
" clip-path="url(#p5f4f9a04d0)" style="fill: #1f77b4; fill-opacity: 0.75; stroke: #ffffff; stroke-width: 0.352812; stroke-linejoin: miter"/>
   </g>
   <g id="patch_58">
    <path d="M 247.373153 314.44 
L 250.725426 314.44 
L 250.725426 307.806306 
L 247.373153 307.806306 
z
" clip-path="url(#p5f4f9a04d0)" style="fill: #1f77b4; fill-opacity: 0.75; stroke: #ffffff; stroke-width: 0.352812; stroke-linejoin: miter"/>
   </g>
   <g id="patch_59">
    <path d="M 250.725426 314.44 
L 254.077699 314.44 
L 254.077699 308.351541 
L 250.725426 308.351541 
z
" clip-path="url(#p5f4f9a04d0)" style="fill: #1f77b4; fill-opacity: 0.75; stroke: #ffffff; stroke-width: 0.352812; stroke-linejoin: miter"/>
   </g>
   <g id="patch_60">
    <path d="M 254.077699 314.44 
L 257.429972 314.44 
L 257.429972 308.078923 
L 254.077699 308.078923 
z
" clip-path="url(#p5f4f9a04d0)" style="fill: #1f77b4; fill-opacity: 0.75; stroke: #ffffff; stroke-width: 0.352812; stroke-linejoin: miter"/>
   </g>
   <g id="patch_61">
    <path d="M 257.429972 314.44 
L 260.782244 314.44 
L 260.782244 308.12436 
L 257.429972 308.12436 
z
" clip-path="url(#p5f4f9a04d0)" style="fill: #1f77b4; fill-opacity: 0.75; stroke: #ffffff; stroke-width: 0.352812; stroke-linejoin: miter"/>
   </g>
   <g id="patch_62">
    <path d="M 260.782244 314.44 
L 264.134517 314.44 
L 264.134517 309.442011 
L 260.782244 309.442011 
z
" clip-path="url(#p5f4f9a04d0)" style="fill: #1f77b4; fill-opacity: 0.75; stroke: #ffffff; stroke-width: 0.352812; stroke-linejoin: miter"/>
   </g>
   <g id="patch_63">
    <path d="M 264.134517 314.44 
L 267.48679 314.44 
L 267.48679 307.715433 
L 264.134517 307.715433 
z
" clip-path="url(#p5f4f9a04d0)" style="fill: #1f77b4; fill-opacity: 0.75; stroke: #ffffff; stroke-width: 0.352812; stroke-linejoin: miter"/>
   </g>
   <g id="patch_64">
    <path d="M 267.48679 314.44 
L 270.839062 314.44 
L 270.839062 309.21483 
L 267.48679 309.21483 
z
" clip-path="url(#p5f4f9a04d0)" style="fill: #1f77b4; fill-opacity: 0.75; stroke: #ffffff; stroke-width: 0.352812; stroke-linejoin: miter"/>
   </g>
   <g id="patch_65">
    <path d="M 270.839062 314.44 
L 274.191335 314.44 
L 274.191335 309.532884 
L 270.839062 309.532884 
z
" clip-path="url(#p5f4f9a04d0)" style="fill: #1f77b4; fill-opacity: 0.75; stroke: #ffffff; stroke-width: 0.352812; stroke-linejoin: miter"/>
   </g>
   <g id="patch_66">
    <path d="M 274.191335 314.44 
L 277.543608 314.44 
L 277.543608 309.532884 
L 274.191335 309.532884 
z
" clip-path="url(#p5f4f9a04d0)" style="fill: #1f77b4; fill-opacity: 0.75; stroke: #ffffff; stroke-width: 0.352812; stroke-linejoin: miter"/>
   </g>
   <g id="patch_67">
    <path d="M 277.543608 314.44 
L 280.895881 314.44 
L 280.895881 308.987649 
L 277.543608 308.987649 
z
" clip-path="url(#p5f4f9a04d0)" style="fill: #1f77b4; fill-opacity: 0.75; stroke: #ffffff; stroke-width: 0.352812; stroke-linejoin: miter"/>
   </g>
   <g id="patch_68">
    <path d="M 280.895881 314.44 
L 284.248153 314.44 
L 284.248153 309.714629 
L 280.895881 309.714629 
z
" clip-path="url(#p5f4f9a04d0)" style="fill: #1f77b4; fill-opacity: 0.75; stroke: #ffffff; stroke-width: 0.352812; stroke-linejoin: miter"/>
   </g>
   <g id="patch_69">
    <path d="M 284.248153 314.44 
L 287.600426 314.44 
L 287.600426 309.532884 
L 284.248153 309.532884 
z
" clip-path="url(#p5f4f9a04d0)" style="fill: #1f77b4; fill-opacity: 0.75; stroke: #ffffff; stroke-width: 0.352812; stroke-linejoin: miter"/>
   </g>
   <g id="patch_70">
    <path d="M 287.600426 314.44 
L 290.952699 314.44 
L 290.952699 308.624159 
L 287.600426 308.624159 
z
" clip-path="url(#p5f4f9a04d0)" style="fill: #1f77b4; fill-opacity: 0.75; stroke: #ffffff; stroke-width: 0.352812; stroke-linejoin: miter"/>
   </g>
   <g id="patch_71">
    <path d="M 290.952699 314.44 
L 294.304972 314.44 
L 294.304972 309.850938 
L 290.952699 309.850938 
z
" clip-path="url(#p5f4f9a04d0)" style="fill: #1f77b4; fill-opacity: 0.75; stroke: #ffffff; stroke-width: 0.352812; stroke-linejoin: miter"/>
   </g>
   <g id="patch_72">
    <path d="M 294.304972 314.44 
L 297.657244 314.44 
L 297.657244 309.805501 
L 294.304972 309.805501 
z
" clip-path="url(#p5f4f9a04d0)" style="fill: #1f77b4; fill-opacity: 0.75; stroke: #ffffff; stroke-width: 0.352812; stroke-linejoin: miter"/>
   </g>
   <g id="patch_73">
    <path d="M 297.657244 314.44 
L 301.009517 314.44 
L 301.009517 309.669193 
L 297.657244 309.669193 
z
" clip-path="url(#p5f4f9a04d0)" style="fill: #1f77b4; fill-opacity: 0.75; stroke: #ffffff; stroke-width: 0.352812; stroke-linejoin: miter"/>
   </g>
   <g id="patch_74">
    <path d="M 301.009517 314.44 
L 304.36179 314.44 
L 304.36179 310.123555 
L 301.009517 310.123555 
z
" clip-path="url(#p5f4f9a04d0)" style="fill: #1f77b4; fill-opacity: 0.75; stroke: #ffffff; stroke-width: 0.352812; stroke-linejoin: miter"/>
   </g>
   <g id="patch_75">
    <path d="M 304.36179 314.44 
L 307.714062 314.44 
L 307.714062 309.21483 
L 304.36179 309.21483 
z
" clip-path="url(#p5f4f9a04d0)" style="fill: #1f77b4; fill-opacity: 0.75; stroke: #ffffff; stroke-width: 0.352812; stroke-linejoin: miter"/>
   </g>
   <g id="patch_76">
    <path d="M 307.714062 314.44 
L 311.066335 314.44 
L 311.066335 310.214428 
L 307.714062 310.214428 
z
" clip-path="url(#p5f4f9a04d0)" style="fill: #1f77b4; fill-opacity: 0.75; stroke: #ffffff; stroke-width: 0.352812; stroke-linejoin: miter"/>
   </g>
   <g id="patch_77">
    <path d="M 311.066335 314.44 
L 314.418608 314.44 
L 314.418608 310.714227 
L 311.066335 310.714227 
z
" clip-path="url(#p5f4f9a04d0)" style="fill: #1f77b4; fill-opacity: 0.75; stroke: #ffffff; stroke-width: 0.352812; stroke-linejoin: miter"/>
   </g>
   <g id="patch_78">
    <path d="M 314.418608 314.44 
L 317.770881 314.44 
L 317.770881 310.3053 
L 314.418608 310.3053 
z
" clip-path="url(#p5f4f9a04d0)" style="fill: #1f77b4; fill-opacity: 0.75; stroke: #ffffff; stroke-width: 0.352812; stroke-linejoin: miter"/>
   </g>
   <g id="patch_79">
    <path d="M 317.770881 314.44 
L 321.123153 314.44 
L 321.123153 309.94181 
L 317.770881 309.94181 
z
" clip-path="url(#p5f4f9a04d0)" style="fill: #1f77b4; fill-opacity: 0.75; stroke: #ffffff; stroke-width: 0.352812; stroke-linejoin: miter"/>
   </g>
   <g id="patch_80">
    <path d="M 321.123153 314.44 
L 324.475426 314.44 
L 324.475426 310.577918 
L 321.123153 310.577918 
z
" clip-path="url(#p5f4f9a04d0)" style="fill: #1f77b4; fill-opacity: 0.75; stroke: #ffffff; stroke-width: 0.352812; stroke-linejoin: miter"/>
   </g>
   <g id="patch_81">
    <path d="M 324.475426 314.44 
L 327.827699 314.44 
L 327.827699 310.350736 
L 324.475426 310.350736 
z
" clip-path="url(#p5f4f9a04d0)" style="fill: #1f77b4; fill-opacity: 0.75; stroke: #ffffff; stroke-width: 0.352812; stroke-linejoin: miter"/>
   </g>
   <g id="patch_82">
    <path d="M 327.827699 314.44 
L 331.179972 314.44 
L 331.179972 311.214025 
L 327.827699 311.214025 
z
" clip-path="url(#p5f4f9a04d0)" style="fill: #1f77b4; fill-opacity: 0.75; stroke: #ffffff; stroke-width: 0.352812; stroke-linejoin: miter"/>
   </g>
   <g id="patch_83">
    <path d="M 49.589063 314.44 
L 49.589063 7.2 
" style="fill: none; stroke: #cccccc; stroke-width: 0.8; stroke-linejoin: miter; stroke-linecap: square"/>
   </g>
   <g id="patch_84">
    <path d="M 49.589063 314.44 
L 344.589062 314.44 
" style="fill: none; stroke: #cccccc; stroke-width: 0.8; stroke-linejoin: miter; stroke-linecap: square"/>
   </g>
  </g>
 </g>
 <defs>
  <clipPath id="p5f4f9a04d0">
   <rect x="49.589063" y="7.2" width="295" height="307.24"/>
  </clipPath>
 </defs>
</svg>
