<?xml version="1.0" encoding="utf-8" standalone="no"?>
<!DOCTYPE svg PUBLIC "-//W3C//DTD SVG 1.1//EN"
  "http://www.w3.org/Graphics/SVG/1.1/DTD/svg11.dtd">
<svg xmlns:xlink="http://www.w3.org/1999/xlink" width="796.534375pt" height="350.30625pt" viewBox="0 0 796.534375 350.30625" xmlns="http://www.w3.org/2000/svg" version="1.1">
 <metadata>
  <rdf:RDF xmlns:dc="http://purl.org/dc/elements/1.1/" xmlns:cc="http://creativecommons.org/ns#" xmlns:rdf="http://www.w3.org/1999/02/22-rdf-syntax-ns#">
   <cc:Work>
    <dc:type rdf:resource="http://purl.org/dc/dcmitype/StillImage"/>
    <dc:date>2023-04-06T15:15:02.499056</dc:date>
    <dc:format>image/svg+xml</dc:format>
    <dc:creator>
     <cc:Agent>
      <dc:title>Matplotlib v3.6.0, https://matplotlib.org/</dc:title>
     </cc:Agent>
    </dc:creator>
   </cc:Work>
  </rdf:RDF>
 </metadata>
 <defs>
  <style type="text/css">*{stroke-linejoin: round; stroke-linecap: butt}</style>
 </defs>
 <g id="figure_1">
  <g id="patch_1">
   <path d="M 0 350.30625 
L 796.534375 350.30625 
L 796.534375 0 
L 0 0 
z
" style="fill: #ffffff"/>
  </g>
  <g id="axes_1">
   <g id="patch_2">
    <path d="M 52.484375 313.576562 
L 369.195175 313.576562 
L 369.195175 20.357812 
L 52.484375 20.357812 
z
" style="fill: #ffffff"/>
   </g>
   <g id="matplotlib.axis_1">
    <g id="xtick_1">
     <g id="line2d_1">
      <path d="M 86.896372 313.576562 
L 86.896372 20.357812 
" clip-path="url(#p193c2073f3)" style="fill: none; stroke: #cccccc; stroke-width: 0.8; stroke-linecap: round"/>
     </g>
     <g id="text_1">
      <!-- 170 -->
      <g style="fill: #262626" transform="translate(78.554966 327.734375) scale(0.1 -0.1)">
       <defs>
        <path id="ArialMT-31" d="M 2384 0 
L 1822 0 
L 1822 3584 
Q 1619 3391 1289 3197 
Q 959 3003 697 2906 
L 697 3450 
Q 1169 3672 1522 3987 
Q 1875 4303 2022 4600 
L 2384 4600 
L 2384 0 
z
" transform="scale(0.015625)"/>
        <path id="ArialMT-37" d="M 303 3981 
L 303 4522 
L 3269 4522 
L 3269 4084 
Q 2831 3619 2401 2847 
Q 1972 2075 1738 1259 
Q 1569 684 1522 0 
L 944 0 
Q 953 541 1156 1306 
Q 1359 2072 1739 2783 
Q 2119 3494 2547 3981 
L 303 3981 
z
" transform="scale(0.015625)"/>
        <path id="ArialMT-30" d="M 266 2259 
Q 266 3072 433 3567 
Q 600 4063 929 4331 
Q 1259 4600 1759 4600 
Q 2128 4600 2406 4451 
Q 2684 4303 2865 4023 
Q 3047 3744 3150 3342 
Q 3253 2941 3253 2259 
Q 3253 1453 3087 958 
Q 2922 463 2592 192 
Q 2263 -78 1759 -78 
Q 1097 -78 719 397 
Q 266 969 266 2259 
z
M 844 2259 
Q 844 1131 1108 757 
Q 1372 384 1759 384 
Q 2147 384 2411 759 
Q 2675 1134 2675 2259 
Q 2675 3391 2411 3762 
Q 2147 4134 1753 4134 
Q 1366 4134 1134 3806 
Q 844 3388 844 2259 
z
" transform="scale(0.015625)"/>
       </defs>
       <use xlink:href="#ArialMT-31"/>
       <use xlink:href="#ArialMT-37" x="55.615234"/>
       <use xlink:href="#ArialMT-30" x="111.230469"/>
      </g>
     </g>
    </g>
    <g id="xtick_2">
     <g id="line2d_2">
      <path d="M 126.01784 313.576562 
L 126.01784 20.357812 
" clip-path="url(#p193c2073f3)" style="fill: none; stroke: #cccccc; stroke-width: 0.8; stroke-linecap: round"/>
     </g>
     <g id="text_2">
      <!-- 180 -->
      <g style="fill: #262626" transform="translate(117.676434 327.734375) scale(0.1 -0.1)">
       <defs>
        <path id="ArialMT-38" d="M 1131 2484 
Q 781 2613 612 2850 
Q 444 3088 444 3419 
Q 444 3919 803 4259 
Q 1163 4600 1759 4600 
Q 2359 4600 2725 4251 
Q 3091 3903 3091 3403 
Q 3091 3084 2923 2848 
Q 2756 2613 2416 2484 
Q 2838 2347 3058 2040 
Q 3278 1734 3278 1309 
Q 3278 722 2862 322 
Q 2447 -78 1769 -78 
Q 1091 -78 675 323 
Q 259 725 259 1325 
Q 259 1772 486 2073 
Q 713 2375 1131 2484 
z
M 1019 3438 
Q 1019 3113 1228 2906 
Q 1438 2700 1772 2700 
Q 2097 2700 2305 2904 
Q 2513 3109 2513 3406 
Q 2513 3716 2298 3927 
Q 2084 4138 1766 4138 
Q 1444 4138 1231 3931 
Q 1019 3725 1019 3438 
z
M 838 1322 
Q 838 1081 952 856 
Q 1066 631 1291 507 
Q 1516 384 1775 384 
Q 2178 384 2440 643 
Q 2703 903 2703 1303 
Q 2703 1709 2433 1975 
Q 2163 2241 1756 2241 
Q 1359 2241 1098 1978 
Q 838 1716 838 1322 
z
" transform="scale(0.015625)"/>
       </defs>
       <use xlink:href="#ArialMT-31"/>
       <use xlink:href="#ArialMT-38" x="55.615234"/>
       <use xlink:href="#ArialMT-30" x="111.230469"/>
      </g>
     </g>
    </g>
    <g id="xtick_3">
     <g id="line2d_3">
      <path d="M 165.139309 313.576562 
L 165.139309 20.357812 
" clip-path="url(#p193c2073f3)" style="fill: none; stroke: #cccccc; stroke-width: 0.8; stroke-linecap: round"/>
     </g>
     <g id="text_3">
      <!-- 190 -->
      <g style="fill: #262626" transform="translate(156.797902 327.734375) scale(0.1 -0.1)">
       <defs>
        <path id="ArialMT-39" d="M 350 1059 
L 891 1109 
Q 959 728 1153 556 
Q 1347 384 1650 384 
Q 1909 384 2104 503 
Q 2300 622 2425 820 
Q 2550 1019 2634 1356 
Q 2719 1694 2719 2044 
Q 2719 2081 2716 2156 
Q 2547 1888 2255 1720 
Q 1963 1553 1622 1553 
Q 1053 1553 659 1965 
Q 266 2378 266 3053 
Q 266 3750 677 4175 
Q 1088 4600 1706 4600 
Q 2153 4600 2523 4359 
Q 2894 4119 3086 3673 
Q 3278 3228 3278 2384 
Q 3278 1506 3087 986 
Q 2897 466 2520 194 
Q 2144 -78 1638 -78 
Q 1100 -78 759 220 
Q 419 519 350 1059 
z
M 2653 3081 
Q 2653 3566 2395 3850 
Q 2138 4134 1775 4134 
Q 1400 4134 1122 3828 
Q 844 3522 844 3034 
Q 844 2597 1108 2323 
Q 1372 2050 1759 2050 
Q 2150 2050 2401 2323 
Q 2653 2597 2653 3081 
z
" transform="scale(0.015625)"/>
       </defs>
       <use xlink:href="#ArialMT-31"/>
       <use xlink:href="#ArialMT-39" x="55.615234"/>
       <use xlink:href="#ArialMT-30" x="111.230469"/>
      </g>
     </g>
    </g>
    <g id="xtick_4">
     <g id="line2d_4">
      <path d="M 204.260777 313.576562 
L 204.260777 20.357812 
" clip-path="url(#p193c2073f3)" style="fill: none; stroke: #cccccc; stroke-width: 0.8; stroke-linecap: round"/>
     </g>
     <g id="text_4">
      <!-- 200 -->
      <g style="fill: #262626" transform="translate(195.919371 327.734375) scale(0.1 -0.1)">
       <defs>
        <path id="ArialMT-32" d="M 3222 541 
L 3222 0 
L 194 0 
Q 188 203 259 391 
Q 375 700 629 1000 
Q 884 1300 1366 1694 
Q 2113 2306 2375 2664 
Q 2638 3022 2638 3341 
Q 2638 3675 2398 3904 
Q 2159 4134 1775 4134 
Q 1369 4134 1125 3890 
Q 881 3647 878 3216 
L 300 3275 
Q 359 3922 746 4261 
Q 1134 4600 1788 4600 
Q 2447 4600 2831 4234 
Q 3216 3869 3216 3328 
Q 3216 3053 3103 2787 
Q 2991 2522 2730 2228 
Q 2469 1934 1863 1422 
Q 1356 997 1212 845 
Q 1069 694 975 541 
L 3222 541 
z
" transform="scale(0.015625)"/>
       </defs>
       <use xlink:href="#ArialMT-32"/>
       <use xlink:href="#ArialMT-30" x="55.615234"/>
       <use xlink:href="#ArialMT-30" x="111.230469"/>
      </g>
     </g>
    </g>
    <g id="xtick_5">
     <g id="line2d_5">
      <path d="M 243.382245 313.576562 
L 243.382245 20.357812 
" clip-path="url(#p193c2073f3)" style="fill: none; stroke: #cccccc; stroke-width: 0.8; stroke-linecap: round"/>
     </g>
     <g id="text_5">
      <!-- 210 -->
      <g style="fill: #262626" transform="translate(235.040839 327.734375) scale(0.1 -0.1)">
       <use xlink:href="#ArialMT-32"/>
       <use xlink:href="#ArialMT-31" x="55.615234"/>
       <use xlink:href="#ArialMT-30" x="111.230469"/>
      </g>
     </g>
    </g>
    <g id="xtick_6">
     <g id="line2d_6">
      <path d="M 282.503713 313.576562 
L 282.503713 20.357812 
" clip-path="url(#p193c2073f3)" style="fill: none; stroke: #cccccc; stroke-width: 0.8; stroke-linecap: round"/>
     </g>
     <g id="text_6">
      <!-- 220 -->
      <g style="fill: #262626" transform="translate(274.162307 327.734375) scale(0.1 -0.1)">
       <use xlink:href="#ArialMT-32"/>
       <use xlink:href="#ArialMT-32" x="55.615234"/>
       <use xlink:href="#ArialMT-30" x="111.230469"/>
      </g>
     </g>
    </g>
    <g id="xtick_7">
     <g id="line2d_7">
      <path d="M 321.625182 313.576562 
L 321.625182 20.357812 
" clip-path="url(#p193c2073f3)" style="fill: none; stroke: #cccccc; stroke-width: 0.8; stroke-linecap: round"/>
     </g>
     <g id="text_7">
      <!-- 230 -->
      <g style="fill: #262626" transform="translate(313.283775 327.734375) scale(0.1 -0.1)">
       <defs>
        <path id="ArialMT-33" d="M 269 1209 
L 831 1284 
Q 928 806 1161 595 
Q 1394 384 1728 384 
Q 2125 384 2398 659 
Q 2672 934 2672 1341 
Q 2672 1728 2419 1979 
Q 2166 2231 1775 2231 
Q 1616 2231 1378 2169 
L 1441 2663 
Q 1497 2656 1531 2656 
Q 1891 2656 2178 2843 
Q 2466 3031 2466 3422 
Q 2466 3731 2256 3934 
Q 2047 4138 1716 4138 
Q 1388 4138 1169 3931 
Q 950 3725 888 3313 
L 325 3413 
Q 428 3978 793 4289 
Q 1159 4600 1703 4600 
Q 2078 4600 2393 4439 
Q 2709 4278 2876 4000 
Q 3044 3722 3044 3409 
Q 3044 3113 2884 2869 
Q 2725 2625 2413 2481 
Q 2819 2388 3044 2092 
Q 3269 1797 3269 1353 
Q 3269 753 2831 336 
Q 2394 -81 1725 -81 
Q 1122 -81 723 278 
Q 325 638 269 1209 
z
" transform="scale(0.015625)"/>
       </defs>
       <use xlink:href="#ArialMT-32"/>
       <use xlink:href="#ArialMT-33" x="55.615234"/>
       <use xlink:href="#ArialMT-30" x="111.230469"/>
      </g>
     </g>
    </g>
    <g id="xtick_8">
     <g id="line2d_8">
      <path d="M 360.74665 313.576562 
L 360.74665 20.357812 
" clip-path="url(#p193c2073f3)" style="fill: none; stroke: #cccccc; stroke-width: 0.8; stroke-linecap: round"/>
     </g>
     <g id="text_8">
      <!-- 240 -->
      <g style="fill: #262626" transform="translate(352.405244 327.734375) scale(0.1 -0.1)">
       <defs>
        <path id="ArialMT-34" d="M 2069 0 
L 2069 1097 
L 81 1097 
L 81 1613 
L 2172 4581 
L 2631 4581 
L 2631 1613 
L 3250 1613 
L 3250 1097 
L 2631 1097 
L 2631 0 
L 2069 0 
z
M 2069 1613 
L 2069 3678 
L 634 1613 
L 2069 1613 
z
" transform="scale(0.015625)"/>
       </defs>
       <use xlink:href="#ArialMT-32"/>
       <use xlink:href="#ArialMT-34" x="55.615234"/>
       <use xlink:href="#ArialMT-30" x="111.230469"/>
      </g>
     </g>
    </g>
    <g id="text_9">
     <!-- flipper_length_mm -->
     <g style="fill: #262626" transform="translate(169.710088 341.001562) scale(0.1 -0.1)">
      <defs>
       <path id="ArialMT-66" d="M 556 0 
L 556 2881 
L 59 2881 
L 59 3319 
L 556 3319 
L 556 3672 
Q 556 4006 616 4169 
Q 697 4388 901 4523 
Q 1106 4659 1475 4659 
Q 1713 4659 2000 4603 
L 1916 4113 
Q 1741 4144 1584 4144 
Q 1328 4144 1222 4034 
Q 1116 3925 1116 3625 
L 1116 3319 
L 1763 3319 
L 1763 2881 
L 1116 2881 
L 1116 0 
L 556 0 
z
" transform="scale(0.015625)"/>
       <path id="ArialMT-6c" d="M 409 0 
L 409 4581 
L 972 4581 
L 972 0 
L 409 0 
z
" transform="scale(0.015625)"/>
       <path id="ArialMT-69" d="M 425 3934 
L 425 4581 
L 988 4581 
L 988 3934 
L 425 3934 
z
M 425 0 
L 425 3319 
L 988 3319 
L 988 0 
L 425 0 
z
" transform="scale(0.015625)"/>
       <path id="ArialMT-70" d="M 422 -1272 
L 422 3319 
L 934 3319 
L 934 2888 
Q 1116 3141 1344 3267 
Q 1572 3394 1897 3394 
Q 2322 3394 2647 3175 
Q 2972 2956 3137 2557 
Q 3303 2159 3303 1684 
Q 3303 1175 3120 767 
Q 2938 359 2589 142 
Q 2241 -75 1856 -75 
Q 1575 -75 1351 44 
Q 1128 163 984 344 
L 984 -1272 
L 422 -1272 
z
M 931 1641 
Q 931 1000 1190 694 
Q 1450 388 1819 388 
Q 2194 388 2461 705 
Q 2728 1022 2728 1688 
Q 2728 2322 2467 2637 
Q 2206 2953 1844 2953 
Q 1484 2953 1207 2617 
Q 931 2281 931 1641 
z
" transform="scale(0.015625)"/>
       <path id="ArialMT-65" d="M 2694 1069 
L 3275 997 
Q 3138 488 2766 206 
Q 2394 -75 1816 -75 
Q 1088 -75 661 373 
Q 234 822 234 1631 
Q 234 2469 665 2931 
Q 1097 3394 1784 3394 
Q 2450 3394 2872 2941 
Q 3294 2488 3294 1666 
Q 3294 1616 3291 1516 
L 816 1516 
Q 847 969 1125 678 
Q 1403 388 1819 388 
Q 2128 388 2347 550 
Q 2566 713 2694 1069 
z
M 847 1978 
L 2700 1978 
Q 2663 2397 2488 2606 
Q 2219 2931 1791 2931 
Q 1403 2931 1139 2672 
Q 875 2413 847 1978 
z
" transform="scale(0.015625)"/>
       <path id="ArialMT-72" d="M 416 0 
L 416 3319 
L 922 3319 
L 922 2816 
Q 1116 3169 1280 3281 
Q 1444 3394 1641 3394 
Q 1925 3394 2219 3213 
L 2025 2691 
Q 1819 2813 1613 2813 
Q 1428 2813 1281 2702 
Q 1134 2591 1072 2394 
Q 978 2094 978 1738 
L 978 0 
L 416 0 
z
" transform="scale(0.015625)"/>
       <path id="ArialMT-5f" d="M -97 -1272 
L -97 -866 
L 3631 -866 
L 3631 -1272 
L -97 -1272 
z
" transform="scale(0.015625)"/>
       <path id="ArialMT-6e" d="M 422 0 
L 422 3319 
L 928 3319 
L 928 2847 
Q 1294 3394 1984 3394 
Q 2284 3394 2536 3286 
Q 2788 3178 2913 3003 
Q 3038 2828 3088 2588 
Q 3119 2431 3119 2041 
L 3119 0 
L 2556 0 
L 2556 2019 
Q 2556 2363 2490 2533 
Q 2425 2703 2258 2804 
Q 2091 2906 1866 2906 
Q 1506 2906 1245 2678 
Q 984 2450 984 1813 
L 984 0 
L 422 0 
z
" transform="scale(0.015625)"/>
       <path id="ArialMT-67" d="M 319 -275 
L 866 -356 
Q 900 -609 1056 -725 
Q 1266 -881 1628 -881 
Q 2019 -881 2231 -725 
Q 2444 -569 2519 -288 
Q 2563 -116 2559 434 
Q 2191 0 1641 0 
Q 956 0 581 494 
Q 206 988 206 1678 
Q 206 2153 378 2554 
Q 550 2956 876 3175 
Q 1203 3394 1644 3394 
Q 2231 3394 2613 2919 
L 2613 3319 
L 3131 3319 
L 3131 450 
Q 3131 -325 2973 -648 
Q 2816 -972 2473 -1159 
Q 2131 -1347 1631 -1347 
Q 1038 -1347 672 -1080 
Q 306 -813 319 -275 
z
M 784 1719 
Q 784 1066 1043 766 
Q 1303 466 1694 466 
Q 2081 466 2343 764 
Q 2606 1063 2606 1700 
Q 2606 2309 2336 2618 
Q 2066 2928 1684 2928 
Q 1309 2928 1046 2623 
Q 784 2319 784 1719 
z
" transform="scale(0.015625)"/>
       <path id="ArialMT-74" d="M 1650 503 
L 1731 6 
Q 1494 -44 1306 -44 
Q 1000 -44 831 53 
Q 663 150 594 308 
Q 525 466 525 972 
L 525 2881 
L 113 2881 
L 113 3319 
L 525 3319 
L 525 4141 
L 1084 4478 
L 1084 3319 
L 1650 3319 
L 1650 2881 
L 1084 2881 
L 1084 941 
Q 1084 700 1114 631 
Q 1144 563 1211 522 
Q 1278 481 1403 481 
Q 1497 481 1650 503 
z
" transform="scale(0.015625)"/>
       <path id="ArialMT-68" d="M 422 0 
L 422 4581 
L 984 4581 
L 984 2938 
Q 1378 3394 1978 3394 
Q 2347 3394 2619 3248 
Q 2891 3103 3008 2847 
Q 3125 2591 3125 2103 
L 3125 0 
L 2563 0 
L 2563 2103 
Q 2563 2525 2380 2717 
Q 2197 2909 1863 2909 
Q 1613 2909 1392 2779 
Q 1172 2650 1078 2428 
Q 984 2206 984 1816 
L 984 0 
L 422 0 
z
" transform="scale(0.015625)"/>
       <path id="ArialMT-6d" d="M 422 0 
L 422 3319 
L 925 3319 
L 925 2853 
Q 1081 3097 1340 3245 
Q 1600 3394 1931 3394 
Q 2300 3394 2536 3241 
Q 2772 3088 2869 2813 
Q 3263 3394 3894 3394 
Q 4388 3394 4653 3120 
Q 4919 2847 4919 2278 
L 4919 0 
L 4359 0 
L 4359 2091 
Q 4359 2428 4304 2576 
Q 4250 2725 4106 2815 
Q 3963 2906 3769 2906 
Q 3419 2906 3187 2673 
Q 2956 2441 2956 1928 
L 2956 0 
L 2394 0 
L 2394 2156 
Q 2394 2531 2256 2718 
Q 2119 2906 1806 2906 
Q 1569 2906 1367 2781 
Q 1166 2656 1075 2415 
Q 984 2175 984 1722 
L 984 0 
L 422 0 
z
" transform="scale(0.015625)"/>
      </defs>
      <use xlink:href="#ArialMT-66"/>
      <use xlink:href="#ArialMT-6c" x="27.783203"/>
      <use xlink:href="#ArialMT-69" x="50"/>
      <use xlink:href="#ArialMT-70" x="72.216797"/>
      <use xlink:href="#ArialMT-70" x="127.832031"/>
      <use xlink:href="#ArialMT-65" x="183.447266"/>
      <use xlink:href="#ArialMT-72" x="239.0625"/>
      <use xlink:href="#ArialMT-5f" x="272.363281"/>
      <use xlink:href="#ArialMT-6c" x="327.978516"/>
      <use xlink:href="#ArialMT-65" x="350.195312"/>
      <use xlink:href="#ArialMT-6e" x="405.810547"/>
      <use xlink:href="#ArialMT-67" x="461.425781"/>
      <use xlink:href="#ArialMT-74" x="517.041016"/>
      <use xlink:href="#ArialMT-68" x="544.824219"/>
      <use xlink:href="#ArialMT-5f" x="600.439453"/>
      <use xlink:href="#ArialMT-6d" x="656.054688"/>
      <use xlink:href="#ArialMT-6d" x="739.355469"/>
     </g>
    </g>
   </g>
   <g id="matplotlib.axis_2">
    <g id="ytick_1">
     <g id="line2d_9">
      <path d="M 52.484375 313.576562 
L 369.195175 313.576562 
" clip-path="url(#p193c2073f3)" style="fill: none; stroke: #cccccc; stroke-width: 0.8; stroke-linecap: round"/>
     </g>
     <g id="text_10">
      <!-- 0.000 -->
      <g style="fill: #262626" transform="translate(20.4625 317.155469) scale(0.1 -0.1)">
       <defs>
        <path id="ArialMT-2e" d="M 581 0 
L 581 641 
L 1222 641 
L 1222 0 
L 581 0 
z
" transform="scale(0.015625)"/>
       </defs>
       <use xlink:href="#ArialMT-30"/>
       <use xlink:href="#ArialMT-2e" x="55.615234"/>
       <use xlink:href="#ArialMT-30" x="83.398438"/>
       <use xlink:href="#ArialMT-30" x="139.013672"/>
       <use xlink:href="#ArialMT-30" x="194.628906"/>
      </g>
     </g>
    </g>
    <g id="ytick_2">
     <g id="line2d_10">
      <path d="M 52.484375 278.425823 
L 369.195175 278.425823 
" clip-path="url(#p193c2073f3)" style="fill: none; stroke: #cccccc; stroke-width: 0.8; stroke-linecap: round"/>
     </g>
     <g id="text_11">
      <!-- 0.002 -->
      <g style="fill: #262626" transform="translate(20.4625 282.004729) scale(0.1 -0.1)">
       <use xlink:href="#ArialMT-30"/>
       <use xlink:href="#ArialMT-2e" x="55.615234"/>
       <use xlink:href="#ArialMT-30" x="83.398438"/>
       <use xlink:href="#ArialMT-30" x="139.013672"/>
       <use xlink:href="#ArialMT-32" x="194.628906"/>
      </g>
     </g>
    </g>
    <g id="ytick_3">
     <g id="line2d_11">
      <path d="M 52.484375 243.275084 
L 369.195175 243.275084 
" clip-path="url(#p193c2073f3)" style="fill: none; stroke: #cccccc; stroke-width: 0.8; stroke-linecap: round"/>
     </g>
     <g id="text_12">
      <!-- 0.004 -->
      <g style="fill: #262626" transform="translate(20.4625 246.85399) scale(0.1 -0.1)">
       <use xlink:href="#ArialMT-30"/>
       <use xlink:href="#ArialMT-2e" x="55.615234"/>
       <use xlink:href="#ArialMT-30" x="83.398438"/>
       <use xlink:href="#ArialMT-30" x="139.013672"/>
       <use xlink:href="#ArialMT-34" x="194.628906"/>
      </g>
     </g>
    </g>
    <g id="ytick_4">
     <g id="line2d_12">
      <path d="M 52.484375 208.124344 
L 369.195175 208.124344 
" clip-path="url(#p193c2073f3)" style="fill: none; stroke: #cccccc; stroke-width: 0.8; stroke-linecap: round"/>
     </g>
     <g id="text_13">
      <!-- 0.006 -->
      <g style="fill: #262626" transform="translate(20.4625 211.70325) scale(0.1 -0.1)">
       <defs>
        <path id="ArialMT-36" d="M 3184 3459 
L 2625 3416 
Q 2550 3747 2413 3897 
Q 2184 4138 1850 4138 
Q 1581 4138 1378 3988 
Q 1113 3794 959 3422 
Q 806 3050 800 2363 
Q 1003 2672 1297 2822 
Q 1591 2972 1913 2972 
Q 2475 2972 2870 2558 
Q 3266 2144 3266 1488 
Q 3266 1056 3080 686 
Q 2894 316 2569 119 
Q 2244 -78 1831 -78 
Q 1128 -78 684 439 
Q 241 956 241 2144 
Q 241 3472 731 4075 
Q 1159 4600 1884 4600 
Q 2425 4600 2770 4297 
Q 3116 3994 3184 3459 
z
M 888 1484 
Q 888 1194 1011 928 
Q 1134 663 1356 523 
Q 1578 384 1822 384 
Q 2178 384 2434 671 
Q 2691 959 2691 1453 
Q 2691 1928 2437 2201 
Q 2184 2475 1800 2475 
Q 1419 2475 1153 2201 
Q 888 1928 888 1484 
z
" transform="scale(0.015625)"/>
       </defs>
       <use xlink:href="#ArialMT-30"/>
       <use xlink:href="#ArialMT-2e" x="55.615234"/>
       <use xlink:href="#ArialMT-30" x="83.398438"/>
       <use xlink:href="#ArialMT-30" x="139.013672"/>
       <use xlink:href="#ArialMT-36" x="194.628906"/>
      </g>
     </g>
    </g>
    <g id="ytick_5">
     <g id="line2d_13">
      <path d="M 52.484375 172.973605 
L 369.195175 172.973605 
" clip-path="url(#p193c2073f3)" style="fill: none; stroke: #cccccc; stroke-width: 0.8; stroke-linecap: round"/>
     </g>
     <g id="text_14">
      <!-- 0.008 -->
      <g style="fill: #262626" transform="translate(20.4625 176.552511) scale(0.1 -0.1)">
       <use xlink:href="#ArialMT-30"/>
       <use xlink:href="#ArialMT-2e" x="55.615234"/>
       <use xlink:href="#ArialMT-30" x="83.398438"/>
       <use xlink:href="#ArialMT-30" x="139.013672"/>
       <use xlink:href="#ArialMT-38" x="194.628906"/>
      </g>
     </g>
    </g>
    <g id="ytick_6">
     <g id="line2d_14">
      <path d="M 52.484375 137.822865 
L 369.195175 137.822865 
" clip-path="url(#p193c2073f3)" style="fill: none; stroke: #cccccc; stroke-width: 0.8; stroke-linecap: round"/>
     </g>
     <g id="text_15">
      <!-- 0.010 -->
      <g style="fill: #262626" transform="translate(20.4625 141.401771) scale(0.1 -0.1)">
       <use xlink:href="#ArialMT-30"/>
       <use xlink:href="#ArialMT-2e" x="55.615234"/>
       <use xlink:href="#ArialMT-30" x="83.398438"/>
       <use xlink:href="#ArialMT-31" x="139.013672"/>
       <use xlink:href="#ArialMT-30" x="194.628906"/>
      </g>
     </g>
    </g>
    <g id="ytick_7">
     <g id="line2d_15">
      <path d="M 52.484375 102.672126 
L 369.195175 102.672126 
" clip-path="url(#p193c2073f3)" style="fill: none; stroke: #cccccc; stroke-width: 0.8; stroke-linecap: round"/>
     </g>
     <g id="text_16">
      <!-- 0.012 -->
      <g style="fill: #262626" transform="translate(20.4625 106.251032) scale(0.1 -0.1)">
       <use xlink:href="#ArialMT-30"/>
       <use xlink:href="#ArialMT-2e" x="55.615234"/>
       <use xlink:href="#ArialMT-30" x="83.398438"/>
       <use xlink:href="#ArialMT-31" x="139.013672"/>
       <use xlink:href="#ArialMT-32" x="194.628906"/>
      </g>
     </g>
    </g>
    <g id="ytick_8">
     <g id="line2d_16">
      <path d="M 52.484375 67.521386 
L 369.195175 67.521386 
" clip-path="url(#p193c2073f3)" style="fill: none; stroke: #cccccc; stroke-width: 0.8; stroke-linecap: round"/>
     </g>
     <g id="text_17">
      <!-- 0.014 -->
      <g style="fill: #262626" transform="translate(20.4625 71.100292) scale(0.1 -0.1)">
       <use xlink:href="#ArialMT-30"/>
       <use xlink:href="#ArialMT-2e" x="55.615234"/>
       <use xlink:href="#ArialMT-30" x="83.398438"/>
       <use xlink:href="#ArialMT-31" x="139.013672"/>
       <use xlink:href="#ArialMT-34" x="194.628906"/>
      </g>
     </g>
    </g>
    <g id="ytick_9">
     <g id="line2d_17">
      <path d="M 52.484375 32.370647 
L 369.195175 32.370647 
" clip-path="url(#p193c2073f3)" style="fill: none; stroke: #cccccc; stroke-width: 0.8; stroke-linecap: round"/>
     </g>
     <g id="text_18">
      <!-- 0.016 -->
      <g style="fill: #262626" transform="translate(20.4625 35.949553) scale(0.1 -0.1)">
       <use xlink:href="#ArialMT-30"/>
       <use xlink:href="#ArialMT-2e" x="55.615234"/>
       <use xlink:href="#ArialMT-30" x="83.398438"/>
       <use xlink:href="#ArialMT-31" x="139.013672"/>
       <use xlink:href="#ArialMT-36" x="194.628906"/>
      </g>
     </g>
    </g>
    <g id="text_19">
     <!-- Density -->
     <g style="fill: #262626" transform="translate(14.357813 183.639062) rotate(-90) scale(0.1 -0.1)">
      <defs>
       <path id="ArialMT-44" d="M 494 0 
L 494 4581 
L 2072 4581 
Q 2606 4581 2888 4516 
Q 3281 4425 3559 4188 
Q 3922 3881 4101 3404 
Q 4281 2928 4281 2316 
Q 4281 1794 4159 1391 
Q 4038 988 3847 723 
Q 3656 459 3429 307 
Q 3203 156 2883 78 
Q 2563 0 2147 0 
L 494 0 
z
M 1100 541 
L 2078 541 
Q 2531 541 2789 625 
Q 3047 709 3200 863 
Q 3416 1078 3536 1442 
Q 3656 1806 3656 2325 
Q 3656 3044 3420 3430 
Q 3184 3816 2847 3947 
Q 2603 4041 2063 4041 
L 1100 4041 
L 1100 541 
z
" transform="scale(0.015625)"/>
       <path id="ArialMT-73" d="M 197 991 
L 753 1078 
Q 800 744 1014 566 
Q 1228 388 1613 388 
Q 2000 388 2187 545 
Q 2375 703 2375 916 
Q 2375 1106 2209 1216 
Q 2094 1291 1634 1406 
Q 1016 1563 777 1677 
Q 538 1791 414 1992 
Q 291 2194 291 2438 
Q 291 2659 392 2848 
Q 494 3038 669 3163 
Q 800 3259 1026 3326 
Q 1253 3394 1513 3394 
Q 1903 3394 2198 3281 
Q 2494 3169 2634 2976 
Q 2775 2784 2828 2463 
L 2278 2388 
Q 2241 2644 2061 2787 
Q 1881 2931 1553 2931 
Q 1166 2931 1000 2803 
Q 834 2675 834 2503 
Q 834 2394 903 2306 
Q 972 2216 1119 2156 
Q 1203 2125 1616 2013 
Q 2213 1853 2448 1751 
Q 2684 1650 2818 1456 
Q 2953 1263 2953 975 
Q 2953 694 2789 445 
Q 2625 197 2315 61 
Q 2006 -75 1616 -75 
Q 969 -75 630 194 
Q 291 463 197 991 
z
" transform="scale(0.015625)"/>
       <path id="ArialMT-79" d="M 397 -1278 
L 334 -750 
Q 519 -800 656 -800 
Q 844 -800 956 -737 
Q 1069 -675 1141 -563 
Q 1194 -478 1313 -144 
Q 1328 -97 1363 -6 
L 103 3319 
L 709 3319 
L 1400 1397 
Q 1534 1031 1641 628 
Q 1738 1016 1872 1384 
L 2581 3319 
L 3144 3319 
L 1881 -56 
Q 1678 -603 1566 -809 
Q 1416 -1088 1222 -1217 
Q 1028 -1347 759 -1347 
Q 597 -1347 397 -1278 
z
" transform="scale(0.015625)"/>
      </defs>
      <use xlink:href="#ArialMT-44"/>
      <use xlink:href="#ArialMT-65" x="72.216797"/>
      <use xlink:href="#ArialMT-6e" x="127.832031"/>
      <use xlink:href="#ArialMT-73" x="183.447266"/>
      <use xlink:href="#ArialMT-69" x="233.447266"/>
      <use xlink:href="#ArialMT-74" x="255.664062"/>
      <use xlink:href="#ArialMT-79" x="283.447266"/>
     </g>
    </g>
   </g>
   <g id="line2d_18">
    <path d="M 206.296051 313.456693 
L 210.027286 313.2127 
L 213.012275 312.777629 
L 215.251016 312.218116 
L 217.489758 311.380025 
L 218.982252 310.633277 
L 220.474746 309.718332 
L 222.713487 308.016489 
L 224.952229 305.936738 
L 227.19097 303.548679 
L 231.668453 298.3165 
L 238.384677 290.300503 
L 239.877171 288.224909 
L 241.369666 285.817979 
L 242.86216 282.934749 
L 244.354654 279.427543 
L 245.847148 275.162352 
L 247.339643 270.035971 
L 248.832137 263.991712 
L 250.324631 257.031441 
L 251.817126 249.221916 
L 254.055867 236.216969 
L 262.264585 186.328113 
L 264.503327 174.918818 
L 266.742068 164.824066 
L 268.98081 155.735033 
L 272.712045 141.701822 
L 276.443281 128.273724 
L 278.682022 120.940921 
L 280.174517 116.728803 
L 281.667011 113.321047 
L 282.413258 111.987948 
L 283.159505 110.935225 
L 283.905752 110.18409 
L 284.651999 109.752025 
L 285.398246 109.652256 
L 286.144494 109.893369 
L 286.890741 110.479063 
L 287.636988 111.408037 
L 288.383235 112.674008 
L 289.129482 114.265864 
L 290.621976 118.360193 
L 292.114471 123.517108 
L 293.606965 129.509358 
L 295.845706 139.480221 
L 299.576942 156.349578 
L 301.069436 162.403417 
L 302.56193 167.730197 
L 304.054425 172.180801 
L 305.546919 175.675126 
L 307.039413 178.212729 
L 307.78566 179.14611 
L 308.531907 179.879272 
L 309.278155 180.436408 
L 310.770649 181.143771 
L 314.501885 182.340348 
L 315.248132 182.82753 
L 315.994379 183.498608 
L 316.740626 184.392818 
L 317.486873 185.545402 
L 318.23312 186.986658 
L 318.979367 188.741117 
L 319.725614 190.826869 
L 321.218109 196.029632 
L 322.710603 202.596931 
L 324.203097 210.41673 
L 326.441839 224.00615 
L 333.90431 272.327139 
L 335.396804 280.305632 
L 336.889298 287.290736 
L 338.381793 293.23922 
L 339.874287 298.170077 
L 341.366781 302.150868 
L 342.859275 305.282374 
L 344.35177 307.683674 
L 345.844264 309.479213 
L 347.336758 310.788763 
L 348.829253 311.72059 
L 350.321747 312.367621 
L 351.814241 312.806124 
L 354.052982 313.200399 
L 354.79923 313.283596 
L 354.79923 313.283596 
" clip-path="url(#p193c2073f3)" style="fill: none; stroke: #2ca02c; stroke-width: 1.5; stroke-linecap: round"/>
   </g>
   <g id="line2d_19">
    <path d="M 118.753782 313.496716 
L 124.631736 313.250917 
L 127.990567 312.926818 
L 131.349398 312.379588 
L 133.868521 311.777514 
L 136.387644 310.982966 
L 138.906768 309.981628 
L 141.425891 308.770233 
L 143.945014 307.351562 
L 146.464138 305.72324 
L 148.983261 303.862249 
L 151.502384 301.709736 
L 154.021507 299.162341 
L 155.700923 297.174647 
L 157.380338 294.898289 
L 159.059754 292.283074 
L 160.739169 289.283012 
L 162.418585 285.861565 
L 164.098001 281.99672 
L 165.777416 277.685321 
L 168.296539 270.42852 
L 170.815663 262.377572 
L 175.014201 247.986098 
L 178.373032 236.633118 
L 180.892156 228.865696 
L 182.571571 224.254426 
L 184.250987 220.198897 
L 185.930402 216.757274 
L 187.609818 213.957252 
L 189.289233 211.794812 
L 190.968649 210.236017 
L 192.648064 209.221985 
L 194.32748 208.676722 
L 196.006895 208.516993 
L 197.686311 208.662988 
L 199.365726 209.048264 
L 201.045142 209.627479 
L 202.724557 210.380691 
L 204.403973 211.313536 
L 206.083388 212.453308 
L 207.762804 213.841614 
L 209.442219 215.52487 
L 211.121635 217.544193 
L 212.801051 219.926291 
L 214.480466 222.676649 
L 216.159882 225.775896 
L 218.679005 230.975646 
L 222.037836 238.546977 
L 226.236375 248.028305 
L 228.755498 253.237084 
L 231.274621 257.875208 
L 233.793744 261.907417 
L 236.312868 265.41802 
L 239.671699 269.604406 
L 243.870238 274.798939 
L 246.389361 278.230885 
L 248.908484 282.002812 
L 252.267315 287.47874 
L 258.145269 297.228305 
L 260.664393 300.963056 
L 263.183516 304.205058 
L 264.862932 306.052702 
L 266.542347 307.641092 
L 268.221763 308.976584 
L 269.901178 310.075023 
L 271.580594 310.959035 
L 273.260009 311.655303 
L 275.779132 312.409448 
L 278.298256 312.896649 
L 281.657087 313.266837 
L 285.855626 313.472426 
L 285.855626 313.472426 
" clip-path="url(#p193c2073f3)" style="fill: none; stroke: #ff7f0e; stroke-width: 1.5; stroke-linecap: round"/>
   </g>
   <g id="line2d_20">
    <path d="M 85.35599 313.467771 
L 89.192448 313.262922 
L 92.069792 312.92978 
L 93.988021 312.562563 
L 95.906251 312.027454 
L 97.82448 311.269518 
L 99.742709 310.22588 
L 101.660938 308.828711 
L 103.579168 307.009909 
L 105.497397 304.707299 
L 107.415626 301.871806 
L 109.333856 298.474688 
L 111.252085 294.513676 
L 113.170314 290.016778 
L 115.088543 285.042769 
L 117.965887 276.881691 
L 123.720575 259.439479 
L 127.557034 248.181192 
L 130.434378 240.391823 
L 133.311721 233.294861 
L 136.189065 226.84923 
L 143.861982 210.305733 
L 145.780212 205.293432 
L 147.698441 199.458079 
L 149.61667 192.604353 
L 151.5349 184.624156 
L 153.453129 175.531774 
L 155.371358 165.483051 
L 159.207817 143.80076 
L 162.085161 127.868965 
L 164.00339 118.245298 
L 165.921619 109.830669 
L 167.839848 102.833848 
L 168.798963 99.893038 
L 169.758078 97.320848 
L 170.717192 95.106039 
L 171.676307 93.231937 
L 172.635422 91.678121 
L 173.594536 90.422206 
L 174.553651 89.441648 
L 175.512765 88.715436 
L 176.47188 88.225597 
L 177.430995 87.958419 
L 178.390109 87.905346 
L 179.349224 88.063491 
L 180.308339 88.435758 
L 181.267453 89.03059 
L 182.226568 89.861356 
L 183.185683 90.945441 
L 184.144797 92.303093 
L 185.103912 93.956111 
L 186.063026 95.926437 
L 187.022141 98.234749 
L 187.981256 100.899114 
L 188.94037 103.933784 
L 190.8586 111.146053 
L 192.776829 119.876298 
L 194.695058 130.028335 
L 196.613287 141.40851 
L 199.490631 160.167088 
L 207.163548 212.079575 
L 210.040892 229.37458 
L 211.959122 239.704476 
L 213.877351 248.970947 
L 215.79558 257.144211 
L 217.713809 264.236697 
L 219.632039 270.29358 
L 221.550268 275.384423 
L 223.468497 279.596625 
L 225.386727 283.030733 
L 227.304956 285.797132 
L 229.223185 288.0133 
L 231.141414 289.800747 
L 233.059644 291.280973 
L 235.936988 293.176515 
L 240.732561 296.243613 
L 243.609905 298.335979 
L 247.446363 301.464017 
L 253.201051 306.253381 
L 256.078395 308.32757 
L 257.996624 309.505998 
L 259.914854 310.502606 
L 261.833083 311.317258 
L 263.751312 311.96112 
L 266.628656 312.649759 
L 269.506 313.077742 
L 273.342458 313.379125 
L 276.219802 313.485295 
L 276.219802 313.485295 
" clip-path="url(#p193c2073f3)" style="fill: none; stroke: #1f77b4; stroke-width: 1.5; stroke-linecap: round"/>
   </g>
   <g id="patch_3">
    <path d="M 52.484375 313.576562 
L 52.484375 20.357812 
" style="fill: none; stroke: #cccccc; stroke-width: 0.8; stroke-linejoin: miter; stroke-linecap: square"/>
   </g>
   <g id="patch_4">
    <path d="M 52.484375 313.576562 
L 369.195175 313.576562 
" style="fill: none; stroke: #cccccc; stroke-width: 0.8; stroke-linejoin: miter; stroke-linecap: square"/>
   </g>
   <g id="text_20">
    <!-- sex = Male -->
    <g style="fill: #262626" transform="translate(186.52415 14.357812) scale(0.1 -0.1)">
     <defs>
      <path id="ArialMT-78" d="M 47 0 
L 1259 1725 
L 138 3319 
L 841 3319 
L 1350 2541 
Q 1494 2319 1581 2169 
Q 1719 2375 1834 2534 
L 2394 3319 
L 3066 3319 
L 1919 1756 
L 3153 0 
L 2463 0 
L 1781 1031 
L 1600 1309 
L 728 0 
L 47 0 
z
" transform="scale(0.015625)"/>
      <path id="ArialMT-20" transform="scale(0.015625)"/>
      <path id="ArialMT-3d" d="M 3381 2694 
L 356 2694 
L 356 3219 
L 3381 3219 
L 3381 2694 
z
M 3381 1303 
L 356 1303 
L 356 1828 
L 3381 1828 
L 3381 1303 
z
" transform="scale(0.015625)"/>
      <path id="ArialMT-4d" d="M 475 0 
L 475 4581 
L 1388 4581 
L 2472 1338 
Q 2622 884 2691 659 
Q 2769 909 2934 1394 
L 4031 4581 
L 4847 4581 
L 4847 0 
L 4263 0 
L 4263 3834 
L 2931 0 
L 2384 0 
L 1059 3900 
L 1059 0 
L 475 0 
z
" transform="scale(0.015625)"/>
      <path id="ArialMT-61" d="M 2588 409 
Q 2275 144 1986 34 
Q 1697 -75 1366 -75 
Q 819 -75 525 192 
Q 231 459 231 875 
Q 231 1119 342 1320 
Q 453 1522 633 1644 
Q 813 1766 1038 1828 
Q 1203 1872 1538 1913 
Q 2219 1994 2541 2106 
Q 2544 2222 2544 2253 
Q 2544 2597 2384 2738 
Q 2169 2928 1744 2928 
Q 1347 2928 1158 2789 
Q 969 2650 878 2297 
L 328 2372 
Q 403 2725 575 2942 
Q 747 3159 1072 3276 
Q 1397 3394 1825 3394 
Q 2250 3394 2515 3294 
Q 2781 3194 2906 3042 
Q 3031 2891 3081 2659 
Q 3109 2516 3109 2141 
L 3109 1391 
Q 3109 606 3145 398 
Q 3181 191 3288 0 
L 2700 0 
Q 2613 175 2588 409 
z
M 2541 1666 
Q 2234 1541 1622 1453 
Q 1275 1403 1131 1340 
Q 988 1278 909 1158 
Q 831 1038 831 891 
Q 831 666 1001 516 
Q 1172 366 1500 366 
Q 1825 366 2078 508 
Q 2331 650 2450 897 
Q 2541 1088 2541 1459 
L 2541 1666 
z
" transform="scale(0.015625)"/>
     </defs>
     <use xlink:href="#ArialMT-73"/>
     <use xlink:href="#ArialMT-65" x="50"/>
     <use xlink:href="#ArialMT-78" x="105.615234"/>
     <use xlink:href="#ArialMT-20" x="155.615234"/>
     <use xlink:href="#ArialMT-3d" x="183.398438"/>
     <use xlink:href="#ArialMT-20" x="241.796875"/>
     <use xlink:href="#ArialMT-4d" x="269.580078"/>
     <use xlink:href="#ArialMT-61" x="352.880859"/>
     <use xlink:href="#ArialMT-6c" x="408.496094"/>
     <use xlink:href="#ArialMT-65" x="430.712891"/>
    </g>
   </g>
  </g>
  <g id="axes_2">
   <g id="patch_5">
    <path d="M 379.995175 313.576562 
L 696.705975 313.576562 
L 696.705975 20.357812 
L 379.995175 20.357812 
z
" style="fill: #ffffff"/>
   </g>
   <g id="matplotlib.axis_3">
    <g id="xtick_9">
     <g id="line2d_21">
      <path d="M 414.407172 313.576562 
L 414.407172 20.357812 
" clip-path="url(#pe157da24bd)" style="fill: none; stroke: #cccccc; stroke-width: 0.8; stroke-linecap: round"/>
     </g>
     <g id="text_21">
      <!-- 170 -->
      <g style="fill: #262626" transform="translate(406.065766 327.734375) scale(0.1 -0.1)">
       <use xlink:href="#ArialMT-31"/>
       <use xlink:href="#ArialMT-37" x="55.615234"/>
       <use xlink:href="#ArialMT-30" x="111.230469"/>
      </g>
     </g>
    </g>
    <g id="xtick_10">
     <g id="line2d_22">
      <path d="M 453.52864 313.576562 
L 453.52864 20.357812 
" clip-path="url(#pe157da24bd)" style="fill: none; stroke: #cccccc; stroke-width: 0.8; stroke-linecap: round"/>
     </g>
     <g id="text_22">
      <!-- 180 -->
      <g style="fill: #262626" transform="translate(445.187234 327.734375) scale(0.1 -0.1)">
       <use xlink:href="#ArialMT-31"/>
       <use xlink:href="#ArialMT-38" x="55.615234"/>
       <use xlink:href="#ArialMT-30" x="111.230469"/>
      </g>
     </g>
    </g>
    <g id="xtick_11">
     <g id="line2d_23">
      <path d="M 492.650109 313.576562 
L 492.650109 20.357812 
" clip-path="url(#pe157da24bd)" style="fill: none; stroke: #cccccc; stroke-width: 0.8; stroke-linecap: round"/>
     </g>
     <g id="text_23">
      <!-- 190 -->
      <g style="fill: #262626" transform="translate(484.308702 327.734375) scale(0.1 -0.1)">
       <use xlink:href="#ArialMT-31"/>
       <use xlink:href="#ArialMT-39" x="55.615234"/>
       <use xlink:href="#ArialMT-30" x="111.230469"/>
      </g>
     </g>
    </g>
    <g id="xtick_12">
     <g id="line2d_24">
      <path d="M 531.771577 313.576562 
L 531.771577 20.357812 
" clip-path="url(#pe157da24bd)" style="fill: none; stroke: #cccccc; stroke-width: 0.8; stroke-linecap: round"/>
     </g>
     <g id="text_24">
      <!-- 200 -->
      <g style="fill: #262626" transform="translate(523.430171 327.734375) scale(0.1 -0.1)">
       <use xlink:href="#ArialMT-32"/>
       <use xlink:href="#ArialMT-30" x="55.615234"/>
       <use xlink:href="#ArialMT-30" x="111.230469"/>
      </g>
     </g>
    </g>
    <g id="xtick_13">
     <g id="line2d_25">
      <path d="M 570.893045 313.576562 
L 570.893045 20.357812 
" clip-path="url(#pe157da24bd)" style="fill: none; stroke: #cccccc; stroke-width: 0.8; stroke-linecap: round"/>
     </g>
     <g id="text_25">
      <!-- 210 -->
      <g style="fill: #262626" transform="translate(562.551639 327.734375) scale(0.1 -0.1)">
       <use xlink:href="#ArialMT-32"/>
       <use xlink:href="#ArialMT-31" x="55.615234"/>
       <use xlink:href="#ArialMT-30" x="111.230469"/>
      </g>
     </g>
    </g>
    <g id="xtick_14">
     <g id="line2d_26">
      <path d="M 610.014513 313.576562 
L 610.014513 20.357812 
" clip-path="url(#pe157da24bd)" style="fill: none; stroke: #cccccc; stroke-width: 0.8; stroke-linecap: round"/>
     </g>
     <g id="text_26">
      <!-- 220 -->
      <g style="fill: #262626" transform="translate(601.673107 327.734375) scale(0.1 -0.1)">
       <use xlink:href="#ArialMT-32"/>
       <use xlink:href="#ArialMT-32" x="55.615234"/>
       <use xlink:href="#ArialMT-30" x="111.230469"/>
      </g>
     </g>
    </g>
    <g id="xtick_15">
     <g id="line2d_27">
      <path d="M 649.135982 313.576562 
L 649.135982 20.357812 
" clip-path="url(#pe157da24bd)" style="fill: none; stroke: #cccccc; stroke-width: 0.8; stroke-linecap: round"/>
     </g>
     <g id="text_27">
      <!-- 230 -->
      <g style="fill: #262626" transform="translate(640.794575 327.734375) scale(0.1 -0.1)">
       <use xlink:href="#ArialMT-32"/>
       <use xlink:href="#ArialMT-33" x="55.615234"/>
       <use xlink:href="#ArialMT-30" x="111.230469"/>
      </g>
     </g>
    </g>
    <g id="xtick_16">
     <g id="line2d_28">
      <path d="M 688.25745 313.576562 
L 688.25745 20.357812 
" clip-path="url(#pe157da24bd)" style="fill: none; stroke: #cccccc; stroke-width: 0.8; stroke-linecap: round"/>
     </g>
     <g id="text_28">
      <!-- 240 -->
      <g style="fill: #262626" transform="translate(679.916044 327.734375) scale(0.1 -0.1)">
       <use xlink:href="#ArialMT-32"/>
       <use xlink:href="#ArialMT-34" x="55.615234"/>
       <use xlink:href="#ArialMT-30" x="111.230469"/>
      </g>
     </g>
    </g>
    <g id="text_29">
     <!-- flipper_length_mm -->
     <g style="fill: #262626" transform="translate(497.220888 341.001562) scale(0.1 -0.1)">
      <use xlink:href="#ArialMT-66"/>
      <use xlink:href="#ArialMT-6c" x="27.783203"/>
      <use xlink:href="#ArialMT-69" x="50"/>
      <use xlink:href="#ArialMT-70" x="72.216797"/>
      <use xlink:href="#ArialMT-70" x="127.832031"/>
      <use xlink:href="#ArialMT-65" x="183.447266"/>
      <use xlink:href="#ArialMT-72" x="239.0625"/>
      <use xlink:href="#ArialMT-5f" x="272.363281"/>
      <use xlink:href="#ArialMT-6c" x="327.978516"/>
      <use xlink:href="#ArialMT-65" x="350.195312"/>
      <use xlink:href="#ArialMT-6e" x="405.810547"/>
      <use xlink:href="#ArialMT-67" x="461.425781"/>
      <use xlink:href="#ArialMT-74" x="517.041016"/>
      <use xlink:href="#ArialMT-68" x="544.824219"/>
      <use xlink:href="#ArialMT-5f" x="600.439453"/>
      <use xlink:href="#ArialMT-6d" x="656.054688"/>
      <use xlink:href="#ArialMT-6d" x="739.355469"/>
     </g>
    </g>
   </g>
   <g id="matplotlib.axis_4">
    <g id="ytick_10">
     <g id="line2d_29">
      <path d="M 379.995175 313.576562 
L 696.705975 313.576562 
" clip-path="url(#pe157da24bd)" style="fill: none; stroke: #cccccc; stroke-width: 0.8; stroke-linecap: round"/>
     </g>
    </g>
    <g id="ytick_11">
     <g id="line2d_30">
      <path d="M 379.995175 278.425823 
L 696.705975 278.425823 
" clip-path="url(#pe157da24bd)" style="fill: none; stroke: #cccccc; stroke-width: 0.8; stroke-linecap: round"/>
     </g>
    </g>
    <g id="ytick_12">
     <g id="line2d_31">
      <path d="M 379.995175 243.275084 
L 696.705975 243.275084 
" clip-path="url(#pe157da24bd)" style="fill: none; stroke: #cccccc; stroke-width: 0.8; stroke-linecap: round"/>
     </g>
    </g>
    <g id="ytick_13">
     <g id="line2d_32">
      <path d="M 379.995175 208.124344 
L 696.705975 208.124344 
" clip-path="url(#pe157da24bd)" style="fill: none; stroke: #cccccc; stroke-width: 0.8; stroke-linecap: round"/>
     </g>
    </g>
    <g id="ytick_14">
     <g id="line2d_33">
      <path d="M 379.995175 172.973605 
L 696.705975 172.973605 
" clip-path="url(#pe157da24bd)" style="fill: none; stroke: #cccccc; stroke-width: 0.8; stroke-linecap: round"/>
     </g>
    </g>
    <g id="ytick_15">
     <g id="line2d_34">
      <path d="M 379.995175 137.822865 
L 696.705975 137.822865 
" clip-path="url(#pe157da24bd)" style="fill: none; stroke: #cccccc; stroke-width: 0.8; stroke-linecap: round"/>
     </g>
    </g>
    <g id="ytick_16">
     <g id="line2d_35">
      <path d="M 379.995175 102.672126 
L 696.705975 102.672126 
" clip-path="url(#pe157da24bd)" style="fill: none; stroke: #cccccc; stroke-width: 0.8; stroke-linecap: round"/>
     </g>
    </g>
    <g id="ytick_17">
     <g id="line2d_36">
      <path d="M 379.995175 67.521386 
L 696.705975 67.521386 
" clip-path="url(#pe157da24bd)" style="fill: none; stroke: #cccccc; stroke-width: 0.8; stroke-linecap: round"/>
     </g>
    </g>
    <g id="ytick_18">
     <g id="line2d_37">
      <path d="M 379.995175 32.370647 
L 696.705975 32.370647 
" clip-path="url(#pe157da24bd)" style="fill: none; stroke: #cccccc; stroke-width: 0.8; stroke-linecap: round"/>
     </g>
    </g>
   </g>
   <g id="line2d_38">
    <path d="M 523.199574 313.441374 
L 525.51008 313.221437 
L 527.242959 312.897674 
L 528.975839 312.360877 
L 530.708718 311.537126 
L 532.441598 310.370441 
L 534.174478 308.850993 
L 536.484984 306.392874 
L 540.528369 301.941223 
L 542.838875 299.854422 
L 545.149381 297.774669 
L 546.304634 296.365879 
L 547.459887 294.389794 
L 548.615141 291.543465 
L 549.770394 287.497214 
L 550.925647 281.921362 
L 552.0809 274.517281 
L 553.236153 265.049898 
L 554.391406 253.378374 
L 555.546659 239.48152 
L 557.279538 214.755437 
L 559.012418 186.30155 
L 564.211057 96.752414 
L 565.943936 72.538846 
L 567.099189 59.490107 
L 568.254442 49.237912 
L 569.409695 41.865265 
L 569.987322 39.236615 
L 570.564948 37.280387 
L 571.142575 35.96032 
L 571.720201 35.232072 
L 572.297828 35.044544 
L 572.875454 35.341389 
L 573.453081 36.062628 
L 574.030707 37.146334 
L 575.18596 40.153723 
L 576.91884 45.903225 
L 579.806972 55.928789 
L 582.117479 62.983578 
L 585.583238 73.050109 
L 587.316117 78.992091 
L 588.47137 83.615987 
L 590.20425 91.740859 
L 591.937129 101.343144 
L 593.670009 112.30348 
L 595.980515 128.590217 
L 599.446274 155.142082 
L 606.955419 213.38822 
L 610.421178 238.281498 
L 612.731684 253.453244 
L 615.04219 267.039422 
L 616.77507 276.013674 
L 618.507949 283.883486 
L 620.240829 290.650921 
L 621.973708 296.35273 
L 623.706588 301.043226 
L 624.861841 303.640287 
L 626.017094 305.839751 
L 627.172347 307.668565 
L 628.3276 309.158217 
L 629.482853 310.344525 
L 630.638106 311.266589 
L 631.793359 311.965064 
L 633.526239 312.680818 
L 635.259118 313.106999 
L 637.569624 313.395915 
L 638.147251 313.436709 
L 638.147251 313.436709 
" clip-path="url(#pe157da24bd)" style="fill: none; stroke: #2ca02c; stroke-width: 1.5; stroke-linecap: round"/>
   </g>
   <g id="line2d_39">
    <path d="M 412.344983 313.490291 
L 417.187504 313.278971 
L 420.41585 312.960486 
L 423.644197 312.394676 
L 426.065457 311.741452 
L 428.486717 310.840176 
L 430.907977 309.653201 
L 433.329237 308.160389 
L 435.750497 306.366938 
L 438.171757 304.308377 
L 441.400104 301.269296 
L 448.663884 294.301148 
L 451.892231 291.561336 
L 458.348925 286.268879 
L 459.963098 284.657088 
L 461.577271 282.771279 
L 463.191445 280.530697 
L 464.805618 277.867068 
L 466.419791 274.733182 
L 468.033965 271.110088 
L 469.648138 267.011821 
L 472.069398 260.088515 
L 475.297745 249.901369 
L 479.333178 237.030006 
L 481.754438 229.983408 
L 483.368612 225.770058 
L 484.982785 222.012538 
L 486.596959 218.737517 
L 488.211132 215.945601 
L 489.825305 213.615833 
L 491.439479 211.711556 
L 493.053652 210.186817 
L 494.667825 208.99256 
L 496.281999 208.082065 
L 497.896172 207.415267 
L 499.510345 206.961794 
L 501.124519 206.702689 
L 502.738692 206.630889 
L 504.352866 206.750617 
L 505.967039 207.075867 
L 507.581212 207.628239 
L 509.195386 208.434391 
L 510.809559 209.523388 
L 512.423732 210.924198 
L 514.037906 212.663519 
L 515.652079 214.764006 
L 517.266253 217.242892 
L 518.880426 220.110861 
L 520.494599 223.37106 
L 522.108773 227.018099 
L 524.530033 233.178434 
L 526.951293 240.077474 
L 530.17964 250.153347 
L 539.057593 278.751106 
L 541.478853 285.608925 
L 543.900113 291.694404 
L 545.514287 295.27334 
L 547.12846 298.455387 
L 548.742633 301.242246 
L 550.356807 303.646363 
L 551.97098 305.688943 
L 553.585153 307.3978 
L 555.199327 308.805237 
L 556.8135 309.946057 
L 558.427674 310.855796 
L 560.041847 311.569242 
L 562.463107 312.342497 
L 564.884367 312.845919 
L 568.112714 313.234776 
L 572.148147 313.457133 
L 572.955234 313.481125 
L 572.955234 313.481125 
" clip-path="url(#pe157da24bd)" style="fill: none; stroke: #ff7f0e; stroke-width: 1.5; stroke-linecap: round"/>
   </g>
   <g id="line2d_40">
    <path d="M 394.39112 313.472292 
L 397.869414 313.271065 
L 400.478134 312.949599 
L 403.086854 312.381078 
L 404.826001 311.810597 
L 406.565147 311.048761 
L 408.304294 310.068232 
L 410.043441 308.851824 
L 411.782587 307.397026 
L 413.521734 305.71905 
L 416.130454 302.861367 
L 426.565334 290.720631 
L 432.652348 284.246744 
L 434.391494 282.127788 
L 436.130641 279.724467 
L 437.869788 276.943525 
L 439.608934 273.697475 
L 441.348081 269.909369 
L 443.087228 265.517696 
L 444.826374 260.481121 
L 446.565521 254.781856 
L 448.304668 248.425669 
L 450.043814 241.436466 
L 452.652535 229.829715 
L 455.261255 216.904272 
L 457.869975 202.530176 
L 460.478695 186.388041 
L 463.087415 168.122775 
L 465.696135 147.647204 
L 469.174428 117.858524 
L 472.652721 88.116134 
L 474.391868 74.572581 
L 476.131015 62.587719 
L 477.870161 52.540282 
L 478.739735 48.3216 
L 479.609308 44.662241 
L 480.478882 41.567942 
L 481.348455 39.036702 
L 482.218028 37.060227 
L 483.087602 35.625567 
L 483.957175 34.716825 
L 484.826748 34.316808 
L 485.696322 34.408482 
L 486.565895 34.97614 
L 487.435468 36.006195 
L 488.305042 37.487569 
L 489.174615 39.411652 
L 490.044188 41.771883 
L 490.913762 44.562997 
L 492.652908 51.417215 
L 494.392055 59.918112 
L 496.131202 69.963119 
L 497.870348 81.381629 
L 500.479068 100.542585 
L 503.957362 128.299104 
L 509.174802 170.19718 
L 512.653095 196.288384 
L 515.261815 214.364393 
L 517.870535 230.8694 
L 520.479255 245.523513 
L 522.218402 254.148638 
L 523.957549 261.815271 
L 525.696695 268.527737 
L 527.435842 274.328751 
L 529.174989 279.294492 
L 530.914135 283.525677 
L 532.653282 287.13697 
L 534.392429 290.246545 
L 536.131576 292.966828 
L 538.740296 296.528779 
L 541.349016 299.681993 
L 544.827309 303.459623 
L 547.436029 305.980579 
L 550.044749 308.165307 
L 551.783896 309.40037 
L 553.523042 310.444038 
L 555.262189 311.296076 
L 557.001336 311.967067 
L 559.610056 312.677895 
L 562.218776 313.110587 
L 565.697069 313.404018 
L 567.436216 313.476804 
L 567.436216 313.476804 
" clip-path="url(#pe157da24bd)" style="fill: none; stroke: #1f77b4; stroke-width: 1.5; stroke-linecap: round"/>
   </g>
   <g id="patch_6">
    <path d="M 379.995175 313.576562 
L 379.995175 20.357812 
" style="fill: none; stroke: #cccccc; stroke-width: 0.8; stroke-linejoin: miter; stroke-linecap: square"/>
   </g>
   <g id="patch_7">
    <path d="M 379.995175 313.576562 
L 696.705975 313.576562 
" style="fill: none; stroke: #cccccc; stroke-width: 0.8; stroke-linejoin: miter; stroke-linecap: square"/>
   </g>
   <g id="text_30">
    <!-- sex = Female -->
    <g style="fill: #262626" transform="translate(508.200575 14.357812) scale(0.1 -0.1)">
     <defs>
      <path id="ArialMT-46" d="M 525 0 
L 525 4581 
L 3616 4581 
L 3616 4041 
L 1131 4041 
L 1131 2622 
L 3281 2622 
L 3281 2081 
L 1131 2081 
L 1131 0 
L 525 0 
z
" transform="scale(0.015625)"/>
     </defs>
     <use xlink:href="#ArialMT-73"/>
     <use xlink:href="#ArialMT-65" x="50"/>
     <use xlink:href="#ArialMT-78" x="105.615234"/>
     <use xlink:href="#ArialMT-20" x="155.615234"/>
     <use xlink:href="#ArialMT-3d" x="183.398438"/>
     <use xlink:href="#ArialMT-20" x="241.796875"/>
     <use xlink:href="#ArialMT-46" x="269.580078"/>
     <use xlink:href="#ArialMT-65" x="330.664062"/>
     <use xlink:href="#ArialMT-6d" x="386.279297"/>
     <use xlink:href="#ArialMT-61" x="469.580078"/>
     <use xlink:href="#ArialMT-6c" x="525.195312"/>
     <use xlink:href="#ArialMT-65" x="547.412109"/>
    </g>
   </g>
  </g>
  <g id="legend_1">
   <g id="text_31">
    <!-- species -->
    <g style="fill: #262626" transform="translate(735.184375 156.459375) scale(0.1 -0.1)">
     <defs>
      <path id="ArialMT-63" d="M 2588 1216 
L 3141 1144 
Q 3050 572 2676 248 
Q 2303 -75 1759 -75 
Q 1078 -75 664 370 
Q 250 816 250 1647 
Q 250 2184 428 2587 
Q 606 2991 970 3192 
Q 1334 3394 1763 3394 
Q 2303 3394 2647 3120 
Q 2991 2847 3088 2344 
L 2541 2259 
Q 2463 2594 2264 2762 
Q 2066 2931 1784 2931 
Q 1359 2931 1093 2626 
Q 828 2322 828 1663 
Q 828 994 1084 691 
Q 1341 388 1753 388 
Q 2084 388 2306 591 
Q 2528 794 2588 1216 
z
" transform="scale(0.015625)"/>
     </defs>
     <use xlink:href="#ArialMT-73"/>
     <use xlink:href="#ArialMT-70" x="50"/>
     <use xlink:href="#ArialMT-65" x="105.615234"/>
     <use xlink:href="#ArialMT-63" x="161.230469"/>
     <use xlink:href="#ArialMT-69" x="211.230469"/>
     <use xlink:href="#ArialMT-65" x="233.447266"/>
     <use xlink:href="#ArialMT-73" x="289.0625"/>
    </g>
   </g>
   <g id="line2d_41">
    <path d="M 716.739062 167.104687 
L 726.739062 167.104687 
L 736.739062 167.104687 
" style="fill: none; stroke: #1f77b4; stroke-width: 1.5; stroke-linecap: round"/>
   </g>
   <g id="text_32">
    <!-- Adelie -->
    <g style="fill: #262626" transform="translate(744.739062 170.604687) scale(0.1 -0.1)">
     <defs>
      <path id="ArialMT-41" d="M -9 0 
L 1750 4581 
L 2403 4581 
L 4278 0 
L 3588 0 
L 3053 1388 
L 1138 1388 
L 634 0 
L -9 0 
z
M 1313 1881 
L 2866 1881 
L 2388 3150 
Q 2169 3728 2063 4100 
Q 1975 3659 1816 3225 
L 1313 1881 
z
" transform="scale(0.015625)"/>
      <path id="ArialMT-64" d="M 2575 0 
L 2575 419 
Q 2259 -75 1647 -75 
Q 1250 -75 917 144 
Q 584 363 401 755 
Q 219 1147 219 1656 
Q 219 2153 384 2558 
Q 550 2963 881 3178 
Q 1213 3394 1622 3394 
Q 1922 3394 2156 3267 
Q 2391 3141 2538 2938 
L 2538 4581 
L 3097 4581 
L 3097 0 
L 2575 0 
z
M 797 1656 
Q 797 1019 1065 703 
Q 1334 388 1700 388 
Q 2069 388 2326 689 
Q 2584 991 2584 1609 
Q 2584 2291 2321 2609 
Q 2059 2928 1675 2928 
Q 1300 2928 1048 2622 
Q 797 2316 797 1656 
z
" transform="scale(0.015625)"/>
     </defs>
     <use xlink:href="#ArialMT-41"/>
     <use xlink:href="#ArialMT-64" x="66.699219"/>
     <use xlink:href="#ArialMT-65" x="122.314453"/>
     <use xlink:href="#ArialMT-6c" x="177.929688"/>
     <use xlink:href="#ArialMT-69" x="200.146484"/>
     <use xlink:href="#ArialMT-65" x="222.363281"/>
    </g>
   </g>
   <g id="line2d_42">
    <path d="M 716.739062 181.371875 
L 726.739062 181.371875 
L 736.739062 181.371875 
" style="fill: none; stroke: #ff7f0e; stroke-width: 1.5; stroke-linecap: round"/>
   </g>
   <g id="text_33">
    <!-- Chinstrap -->
    <g style="fill: #262626" transform="translate(744.739062 184.871875) scale(0.1 -0.1)">
     <defs>
      <path id="ArialMT-43" d="M 3763 1606 
L 4369 1453 
Q 4178 706 3683 314 
Q 3188 -78 2472 -78 
Q 1731 -78 1267 223 
Q 803 525 561 1097 
Q 319 1669 319 2325 
Q 319 3041 592 3573 
Q 866 4106 1370 4382 
Q 1875 4659 2481 4659 
Q 3169 4659 3637 4309 
Q 4106 3959 4291 3325 
L 3694 3184 
Q 3534 3684 3231 3912 
Q 2928 4141 2469 4141 
Q 1941 4141 1586 3887 
Q 1231 3634 1087 3207 
Q 944 2781 944 2328 
Q 944 1744 1114 1308 
Q 1284 872 1643 656 
Q 2003 441 2422 441 
Q 2931 441 3284 734 
Q 3638 1028 3763 1606 
z
" transform="scale(0.015625)"/>
     </defs>
     <use xlink:href="#ArialMT-43"/>
     <use xlink:href="#ArialMT-68" x="72.216797"/>
     <use xlink:href="#ArialMT-69" x="127.832031"/>
     <use xlink:href="#ArialMT-6e" x="150.048828"/>
     <use xlink:href="#ArialMT-73" x="205.664062"/>
     <use xlink:href="#ArialMT-74" x="255.664062"/>
     <use xlink:href="#ArialMT-72" x="283.447266"/>
     <use xlink:href="#ArialMT-61" x="316.748047"/>
     <use xlink:href="#ArialMT-70" x="372.363281"/>
    </g>
   </g>
   <g id="line2d_43">
    <path d="M 716.739062 195.517187 
L 726.739062 195.517187 
L 736.739062 195.517187 
" style="fill: none; stroke: #2ca02c; stroke-width: 1.5; stroke-linecap: round"/>
   </g>
   <g id="text_34">
    <!-- Gentoo -->
    <g style="fill: #262626" transform="translate(744.739062 199.017187) scale(0.1 -0.1)">
     <defs>
      <path id="ArialMT-47" d="M 2638 1797 
L 2638 2334 
L 4578 2338 
L 4578 638 
Q 4131 281 3656 101 
Q 3181 -78 2681 -78 
Q 2006 -78 1454 211 
Q 903 500 622 1047 
Q 341 1594 341 2269 
Q 341 2938 620 3517 
Q 900 4097 1425 4378 
Q 1950 4659 2634 4659 
Q 3131 4659 3532 4498 
Q 3934 4338 4162 4050 
Q 4391 3763 4509 3300 
L 3963 3150 
Q 3859 3500 3706 3700 
Q 3553 3900 3268 4020 
Q 2984 4141 2638 4141 
Q 2222 4141 1919 4014 
Q 1616 3888 1430 3681 
Q 1244 3475 1141 3228 
Q 966 2803 966 2306 
Q 966 1694 1177 1281 
Q 1388 869 1791 669 
Q 2194 469 2647 469 
Q 3041 469 3416 620 
Q 3791 772 3984 944 
L 3984 1797 
L 2638 1797 
z
" transform="scale(0.015625)"/>
      <path id="ArialMT-6f" d="M 213 1659 
Q 213 2581 725 3025 
Q 1153 3394 1769 3394 
Q 2453 3394 2887 2945 
Q 3322 2497 3322 1706 
Q 3322 1066 3130 698 
Q 2938 331 2570 128 
Q 2203 -75 1769 -75 
Q 1072 -75 642 372 
Q 213 819 213 1659 
z
M 791 1659 
Q 791 1022 1069 705 
Q 1347 388 1769 388 
Q 2188 388 2466 706 
Q 2744 1025 2744 1678 
Q 2744 2294 2464 2611 
Q 2184 2928 1769 2928 
Q 1347 2928 1069 2612 
Q 791 2297 791 1659 
z
" transform="scale(0.015625)"/>
     </defs>
     <use xlink:href="#ArialMT-47"/>
     <use xlink:href="#ArialMT-65" x="77.783203"/>
     <use xlink:href="#ArialMT-6e" x="133.398438"/>
     <use xlink:href="#ArialMT-74" x="189.013672"/>
     <use xlink:href="#ArialMT-6f" x="216.796875"/>
     <use xlink:href="#ArialMT-6f" x="272.412109"/>
    </g>
   </g>
  </g>
 </g>
 <defs>
  <clipPath id="p193c2073f3">
   <rect x="52.484375" y="20.357812" width="316.7108" height="293.21875"/>
  </clipPath>
  <clipPath id="pe157da24bd">
   <rect x="379.995175" y="20.357812" width="316.7108" height="293.21875"/>
  </clipPath>
 </defs>
</svg>
