<?xml version="1.0" encoding="utf-8" standalone="no"?>
<!DOCTYPE svg PUBLIC "-//W3C//DTD SVG 1.1//EN"
  "http://www.w3.org/Graphics/SVG/1.1/DTD/svg11.dtd">
<svg xmlns:xlink="http://www.w3.org/1999/xlink" width="796.585938pt" height="350.168437pt" viewBox="0 0 796.585938 350.168437" xmlns="http://www.w3.org/2000/svg" version="1.1">
 <metadata>
  <rdf:RDF xmlns:dc="http://purl.org/dc/elements/1.1/" xmlns:cc="http://creativecommons.org/ns#" xmlns:rdf="http://www.w3.org/1999/02/22-rdf-syntax-ns#">
   <cc:Work>
    <dc:type rdf:resource="http://purl.org/dc/dcmitype/StillImage"/>
    <dc:date>2023-04-06T15:49:59.930430</dc:date>
    <dc:format>image/svg+xml</dc:format>
    <dc:creator>
     <cc:Agent>
      <dc:title>Matplotlib v3.6.0, https://matplotlib.org/</dc:title>
     </cc:Agent>
    </dc:creator>
   </cc:Work>
  </rdf:RDF>
 </metadata>
 <defs>
  <style type="text/css">*{stroke-linejoin: round; stroke-linecap: butt}</style>
 </defs>
 <g id="figure_1">
  <g id="patch_1">
   <path d="M 0 350.168437 
L 796.585938 350.168437 
L 796.585938 0 
L 0 0 
z
" style="fill: #ffffff"/>
  </g>
  <g id="axes_1">
   <g id="patch_2">
    <path d="M 44.267188 313.677812 
L 354.649863 313.677812 
L 354.649863 20.357812 
L 44.267188 20.357812 
z
" style="fill: #ffffff"/>
   </g>
   <g id="matplotlib.axis_1">
    <g id="xtick_1">
     <g id="line2d_1">
      <path d="M 44.267188 313.677812 
L 44.267188 20.357812 
" clip-path="url(#p3784c32f25)" style="fill: none; stroke: #cccccc; stroke-width: 0.8; stroke-linecap: round"/>
     </g>
     <g id="text_1">
      <!-- 0.00 -->
      <g style="fill: #262626" transform="translate(34.536719 327.835625) scale(0.1 -0.1)">
       <defs>
        <path id="ArialMT-30" d="M 266 2259 
Q 266 3072 433 3567 
Q 600 4063 929 4331 
Q 1259 4600 1759 4600 
Q 2128 4600 2406 4451 
Q 2684 4303 2865 4023 
Q 3047 3744 3150 3342 
Q 3253 2941 3253 2259 
Q 3253 1453 3087 958 
Q 2922 463 2592 192 
Q 2263 -78 1759 -78 
Q 1097 -78 719 397 
Q 266 969 266 2259 
z
M 844 2259 
Q 844 1131 1108 757 
Q 1372 384 1759 384 
Q 2147 384 2411 759 
Q 2675 1134 2675 2259 
Q 2675 3391 2411 3762 
Q 2147 4134 1753 4134 
Q 1366 4134 1134 3806 
Q 844 3388 844 2259 
z
" transform="scale(0.015625)"/>
        <path id="ArialMT-2e" d="M 581 0 
L 581 641 
L 1222 641 
L 1222 0 
L 581 0 
z
" transform="scale(0.015625)"/>
       </defs>
       <use xlink:href="#ArialMT-30"/>
       <use xlink:href="#ArialMT-2e" x="55.615234"/>
       <use xlink:href="#ArialMT-30" x="83.398438"/>
       <use xlink:href="#ArialMT-30" x="139.013672"/>
      </g>
     </g>
    </g>
    <g id="xtick_2">
     <g id="line2d_2">
      <path d="M 121.862856 313.677812 
L 121.862856 20.357812 
" clip-path="url(#p3784c32f25)" style="fill: none; stroke: #cccccc; stroke-width: 0.8; stroke-linecap: round"/>
     </g>
     <g id="text_2">
      <!-- 0.25 -->
      <g style="fill: #262626" transform="translate(112.132388 327.835625) scale(0.1 -0.1)">
       <defs>
        <path id="ArialMT-32" d="M 3222 541 
L 3222 0 
L 194 0 
Q 188 203 259 391 
Q 375 700 629 1000 
Q 884 1300 1366 1694 
Q 2113 2306 2375 2664 
Q 2638 3022 2638 3341 
Q 2638 3675 2398 3904 
Q 2159 4134 1775 4134 
Q 1369 4134 1125 3890 
Q 881 3647 878 3216 
L 300 3275 
Q 359 3922 746 4261 
Q 1134 4600 1788 4600 
Q 2447 4600 2831 4234 
Q 3216 3869 3216 3328 
Q 3216 3053 3103 2787 
Q 2991 2522 2730 2228 
Q 2469 1934 1863 1422 
Q 1356 997 1212 845 
Q 1069 694 975 541 
L 3222 541 
z
" transform="scale(0.015625)"/>
        <path id="ArialMT-35" d="M 266 1200 
L 856 1250 
Q 922 819 1161 601 
Q 1400 384 1738 384 
Q 2144 384 2425 690 
Q 2706 997 2706 1503 
Q 2706 1984 2436 2262 
Q 2166 2541 1728 2541 
Q 1456 2541 1237 2417 
Q 1019 2294 894 2097 
L 366 2166 
L 809 4519 
L 3088 4519 
L 3088 3981 
L 1259 3981 
L 1013 2750 
Q 1425 3038 1878 3038 
Q 2478 3038 2890 2622 
Q 3303 2206 3303 1553 
Q 3303 931 2941 478 
Q 2500 -78 1738 -78 
Q 1113 -78 717 272 
Q 322 622 266 1200 
z
" transform="scale(0.015625)"/>
       </defs>
       <use xlink:href="#ArialMT-30"/>
       <use xlink:href="#ArialMT-2e" x="55.615234"/>
       <use xlink:href="#ArialMT-32" x="83.398438"/>
       <use xlink:href="#ArialMT-35" x="139.013672"/>
      </g>
     </g>
    </g>
    <g id="xtick_3">
     <g id="line2d_3">
      <path d="M 199.458525 313.677812 
L 199.458525 20.357812 
" clip-path="url(#p3784c32f25)" style="fill: none; stroke: #cccccc; stroke-width: 0.8; stroke-linecap: round"/>
     </g>
     <g id="text_3">
      <!-- 0.50 -->
      <g style="fill: #262626" transform="translate(189.728056 327.835625) scale(0.1 -0.1)">
       <use xlink:href="#ArialMT-30"/>
       <use xlink:href="#ArialMT-2e" x="55.615234"/>
       <use xlink:href="#ArialMT-35" x="83.398438"/>
       <use xlink:href="#ArialMT-30" x="139.013672"/>
      </g>
     </g>
    </g>
    <g id="xtick_4">
     <g id="line2d_4">
      <path d="M 277.054194 313.677812 
L 277.054194 20.357812 
" clip-path="url(#p3784c32f25)" style="fill: none; stroke: #cccccc; stroke-width: 0.8; stroke-linecap: round"/>
     </g>
     <g id="text_4">
      <!-- 0.75 -->
      <g style="fill: #262626" transform="translate(267.323725 327.835625) scale(0.1 -0.1)">
       <defs>
        <path id="ArialMT-37" d="M 303 3981 
L 303 4522 
L 3269 4522 
L 3269 4084 
Q 2831 3619 2401 2847 
Q 1972 2075 1738 1259 
Q 1569 684 1522 0 
L 944 0 
Q 953 541 1156 1306 
Q 1359 2072 1739 2783 
Q 2119 3494 2547 3981 
L 303 3981 
z
" transform="scale(0.015625)"/>
       </defs>
       <use xlink:href="#ArialMT-30"/>
       <use xlink:href="#ArialMT-2e" x="55.615234"/>
       <use xlink:href="#ArialMT-37" x="83.398438"/>
       <use xlink:href="#ArialMT-35" x="139.013672"/>
      </g>
     </g>
    </g>
    <g id="xtick_5">
     <g id="line2d_5">
      <path d="M 354.649863 313.677812 
L 354.649863 20.357812 
" clip-path="url(#p3784c32f25)" style="fill: none; stroke: #cccccc; stroke-width: 0.8; stroke-linecap: round"/>
     </g>
     <g id="text_5">
      <!-- 1.00 -->
      <g style="fill: #262626" transform="translate(344.919394 327.835625) scale(0.1 -0.1)">
       <defs>
        <path id="ArialMT-31" d="M 2384 0 
L 1822 0 
L 1822 3584 
Q 1619 3391 1289 3197 
Q 959 3003 697 2906 
L 697 3450 
Q 1169 3672 1522 3987 
Q 1875 4303 2022 4600 
L 2384 4600 
L 2384 0 
z
" transform="scale(0.015625)"/>
       </defs>
       <use xlink:href="#ArialMT-31"/>
       <use xlink:href="#ArialMT-2e" x="55.615234"/>
       <use xlink:href="#ArialMT-30" x="83.398438"/>
       <use xlink:href="#ArialMT-30" x="139.013672"/>
      </g>
     </g>
    </g>
    <g id="text_6">
     <!-- Proportion -->
     <g style="fill: #262626" transform="translate(176.391338 340.980937) scale(0.1 -0.1)">
      <defs>
       <path id="ArialMT-50" d="M 494 0 
L 494 4581 
L 2222 4581 
Q 2678 4581 2919 4538 
Q 3256 4481 3484 4323 
Q 3713 4166 3852 3881 
Q 3991 3597 3991 3256 
Q 3991 2672 3619 2267 
Q 3247 1863 2275 1863 
L 1100 1863 
L 1100 0 
L 494 0 
z
M 1100 2403 
L 2284 2403 
Q 2872 2403 3119 2622 
Q 3366 2841 3366 3238 
Q 3366 3525 3220 3729 
Q 3075 3934 2838 4000 
Q 2684 4041 2272 4041 
L 1100 4041 
L 1100 2403 
z
" transform="scale(0.015625)"/>
       <path id="ArialMT-72" d="M 416 0 
L 416 3319 
L 922 3319 
L 922 2816 
Q 1116 3169 1280 3281 
Q 1444 3394 1641 3394 
Q 1925 3394 2219 3213 
L 2025 2691 
Q 1819 2813 1613 2813 
Q 1428 2813 1281 2702 
Q 1134 2591 1072 2394 
Q 978 2094 978 1738 
L 978 0 
L 416 0 
z
" transform="scale(0.015625)"/>
       <path id="ArialMT-6f" d="M 213 1659 
Q 213 2581 725 3025 
Q 1153 3394 1769 3394 
Q 2453 3394 2887 2945 
Q 3322 2497 3322 1706 
Q 3322 1066 3130 698 
Q 2938 331 2570 128 
Q 2203 -75 1769 -75 
Q 1072 -75 642 372 
Q 213 819 213 1659 
z
M 791 1659 
Q 791 1022 1069 705 
Q 1347 388 1769 388 
Q 2188 388 2466 706 
Q 2744 1025 2744 1678 
Q 2744 2294 2464 2611 
Q 2184 2928 1769 2928 
Q 1347 2928 1069 2612 
Q 791 2297 791 1659 
z
" transform="scale(0.015625)"/>
       <path id="ArialMT-70" d="M 422 -1272 
L 422 3319 
L 934 3319 
L 934 2888 
Q 1116 3141 1344 3267 
Q 1572 3394 1897 3394 
Q 2322 3394 2647 3175 
Q 2972 2956 3137 2557 
Q 3303 2159 3303 1684 
Q 3303 1175 3120 767 
Q 2938 359 2589 142 
Q 2241 -75 1856 -75 
Q 1575 -75 1351 44 
Q 1128 163 984 344 
L 984 -1272 
L 422 -1272 
z
M 931 1641 
Q 931 1000 1190 694 
Q 1450 388 1819 388 
Q 2194 388 2461 705 
Q 2728 1022 2728 1688 
Q 2728 2322 2467 2637 
Q 2206 2953 1844 2953 
Q 1484 2953 1207 2617 
Q 931 2281 931 1641 
z
" transform="scale(0.015625)"/>
       <path id="ArialMT-74" d="M 1650 503 
L 1731 6 
Q 1494 -44 1306 -44 
Q 1000 -44 831 53 
Q 663 150 594 308 
Q 525 466 525 972 
L 525 2881 
L 113 2881 
L 113 3319 
L 525 3319 
L 525 4141 
L 1084 4478 
L 1084 3319 
L 1650 3319 
L 1650 2881 
L 1084 2881 
L 1084 941 
Q 1084 700 1114 631 
Q 1144 563 1211 522 
Q 1278 481 1403 481 
Q 1497 481 1650 503 
z
" transform="scale(0.015625)"/>
       <path id="ArialMT-69" d="M 425 3934 
L 425 4581 
L 988 4581 
L 988 3934 
L 425 3934 
z
M 425 0 
L 425 3319 
L 988 3319 
L 988 0 
L 425 0 
z
" transform="scale(0.015625)"/>
       <path id="ArialMT-6e" d="M 422 0 
L 422 3319 
L 928 3319 
L 928 2847 
Q 1294 3394 1984 3394 
Q 2284 3394 2536 3286 
Q 2788 3178 2913 3003 
Q 3038 2828 3088 2588 
Q 3119 2431 3119 2041 
L 3119 0 
L 2556 0 
L 2556 2019 
Q 2556 2363 2490 2533 
Q 2425 2703 2258 2804 
Q 2091 2906 1866 2906 
Q 1506 2906 1245 2678 
Q 984 2450 984 1813 
L 984 0 
L 422 0 
z
" transform="scale(0.015625)"/>
      </defs>
      <use xlink:href="#ArialMT-50"/>
      <use xlink:href="#ArialMT-72" x="66.699219"/>
      <use xlink:href="#ArialMT-6f" x="100"/>
      <use xlink:href="#ArialMT-70" x="155.615234"/>
      <use xlink:href="#ArialMT-6f" x="211.230469"/>
      <use xlink:href="#ArialMT-72" x="266.845703"/>
      <use xlink:href="#ArialMT-74" x="300.146484"/>
      <use xlink:href="#ArialMT-69" x="327.929688"/>
      <use xlink:href="#ArialMT-6f" x="350.146484"/>
      <use xlink:href="#ArialMT-6e" x="405.761719"/>
     </g>
    </g>
   </g>
   <g id="matplotlib.axis_2">
    <g id="ytick_1">
     <g id="line2d_6">
      <path d="M 44.267188 309.384222 
L 354.649863 309.384222 
" clip-path="url(#p3784c32f25)" style="fill: none; stroke: #cccccc; stroke-width: 0.8; stroke-linecap: round"/>
     </g>
     <g id="text_7">
      <!-- 170 -->
      <g style="fill: #262626" transform="translate(20.584375 312.963129) scale(0.1 -0.1)">
       <use xlink:href="#ArialMT-31"/>
       <use xlink:href="#ArialMT-37" x="55.615234"/>
       <use xlink:href="#ArialMT-30" x="111.230469"/>
      </g>
     </g>
    </g>
    <g id="ytick_2">
     <g id="line2d_7">
      <path d="M 44.267188 264.188537 
L 354.649863 264.188537 
" clip-path="url(#p3784c32f25)" style="fill: none; stroke: #cccccc; stroke-width: 0.8; stroke-linecap: round"/>
     </g>
     <g id="text_8">
      <!-- 180 -->
      <g style="fill: #262626" transform="translate(20.584375 267.767443) scale(0.1 -0.1)">
       <defs>
        <path id="ArialMT-38" d="M 1131 2484 
Q 781 2613 612 2850 
Q 444 3088 444 3419 
Q 444 3919 803 4259 
Q 1163 4600 1759 4600 
Q 2359 4600 2725 4251 
Q 3091 3903 3091 3403 
Q 3091 3084 2923 2848 
Q 2756 2613 2416 2484 
Q 2838 2347 3058 2040 
Q 3278 1734 3278 1309 
Q 3278 722 2862 322 
Q 2447 -78 1769 -78 
Q 1091 -78 675 323 
Q 259 725 259 1325 
Q 259 1772 486 2073 
Q 713 2375 1131 2484 
z
M 1019 3438 
Q 1019 3113 1228 2906 
Q 1438 2700 1772 2700 
Q 2097 2700 2305 2904 
Q 2513 3109 2513 3406 
Q 2513 3716 2298 3927 
Q 2084 4138 1766 4138 
Q 1444 4138 1231 3931 
Q 1019 3725 1019 3438 
z
M 838 1322 
Q 838 1081 952 856 
Q 1066 631 1291 507 
Q 1516 384 1775 384 
Q 2178 384 2440 643 
Q 2703 903 2703 1303 
Q 2703 1709 2433 1975 
Q 2163 2241 1756 2241 
Q 1359 2241 1098 1978 
Q 838 1716 838 1322 
z
" transform="scale(0.015625)"/>
       </defs>
       <use xlink:href="#ArialMT-31"/>
       <use xlink:href="#ArialMT-38" x="55.615234"/>
       <use xlink:href="#ArialMT-30" x="111.230469"/>
      </g>
     </g>
    </g>
    <g id="ytick_3">
     <g id="line2d_8">
      <path d="M 44.267188 218.992851 
L 354.649863 218.992851 
" clip-path="url(#p3784c32f25)" style="fill: none; stroke: #cccccc; stroke-width: 0.8; stroke-linecap: round"/>
     </g>
     <g id="text_9">
      <!-- 190 -->
      <g style="fill: #262626" transform="translate(20.584375 222.571757) scale(0.1 -0.1)">
       <defs>
        <path id="ArialMT-39" d="M 350 1059 
L 891 1109 
Q 959 728 1153 556 
Q 1347 384 1650 384 
Q 1909 384 2104 503 
Q 2300 622 2425 820 
Q 2550 1019 2634 1356 
Q 2719 1694 2719 2044 
Q 2719 2081 2716 2156 
Q 2547 1888 2255 1720 
Q 1963 1553 1622 1553 
Q 1053 1553 659 1965 
Q 266 2378 266 3053 
Q 266 3750 677 4175 
Q 1088 4600 1706 4600 
Q 2153 4600 2523 4359 
Q 2894 4119 3086 3673 
Q 3278 3228 3278 2384 
Q 3278 1506 3087 986 
Q 2897 466 2520 194 
Q 2144 -78 1638 -78 
Q 1100 -78 759 220 
Q 419 519 350 1059 
z
M 2653 3081 
Q 2653 3566 2395 3850 
Q 2138 4134 1775 4134 
Q 1400 4134 1122 3828 
Q 844 3522 844 3034 
Q 844 2597 1108 2323 
Q 1372 2050 1759 2050 
Q 2150 2050 2401 2323 
Q 2653 2597 2653 3081 
z
" transform="scale(0.015625)"/>
       </defs>
       <use xlink:href="#ArialMT-31"/>
       <use xlink:href="#ArialMT-39" x="55.615234"/>
       <use xlink:href="#ArialMT-30" x="111.230469"/>
      </g>
     </g>
    </g>
    <g id="ytick_4">
     <g id="line2d_9">
      <path d="M 44.267188 173.797165 
L 354.649863 173.797165 
" clip-path="url(#p3784c32f25)" style="fill: none; stroke: #cccccc; stroke-width: 0.8; stroke-linecap: round"/>
     </g>
     <g id="text_10">
      <!-- 200 -->
      <g style="fill: #262626" transform="translate(20.584375 177.376072) scale(0.1 -0.1)">
       <use xlink:href="#ArialMT-32"/>
       <use xlink:href="#ArialMT-30" x="55.615234"/>
       <use xlink:href="#ArialMT-30" x="111.230469"/>
      </g>
     </g>
    </g>
    <g id="ytick_5">
     <g id="line2d_10">
      <path d="M 44.267188 128.60148 
L 354.649863 128.60148 
" clip-path="url(#p3784c32f25)" style="fill: none; stroke: #cccccc; stroke-width: 0.8; stroke-linecap: round"/>
     </g>
     <g id="text_11">
      <!-- 210 -->
      <g style="fill: #262626" transform="translate(20.584375 132.180386) scale(0.1 -0.1)">
       <use xlink:href="#ArialMT-32"/>
       <use xlink:href="#ArialMT-31" x="55.615234"/>
       <use xlink:href="#ArialMT-30" x="111.230469"/>
      </g>
     </g>
    </g>
    <g id="ytick_6">
     <g id="line2d_11">
      <path d="M 44.267188 83.405794 
L 354.649863 83.405794 
" clip-path="url(#p3784c32f25)" style="fill: none; stroke: #cccccc; stroke-width: 0.8; stroke-linecap: round"/>
     </g>
     <g id="text_12">
      <!-- 220 -->
      <g style="fill: #262626" transform="translate(20.584375 86.9847) scale(0.1 -0.1)">
       <use xlink:href="#ArialMT-32"/>
       <use xlink:href="#ArialMT-32" x="55.615234"/>
       <use xlink:href="#ArialMT-30" x="111.230469"/>
      </g>
     </g>
    </g>
    <g id="ytick_7">
     <g id="line2d_12">
      <path d="M 44.267188 38.210108 
L 354.649863 38.210108 
" clip-path="url(#p3784c32f25)" style="fill: none; stroke: #cccccc; stroke-width: 0.8; stroke-linecap: round"/>
     </g>
     <g id="text_13">
      <!-- 230 -->
      <g style="fill: #262626" transform="translate(20.584375 41.789015) scale(0.1 -0.1)">
       <defs>
        <path id="ArialMT-33" d="M 269 1209 
L 831 1284 
Q 928 806 1161 595 
Q 1394 384 1728 384 
Q 2125 384 2398 659 
Q 2672 934 2672 1341 
Q 2672 1728 2419 1979 
Q 2166 2231 1775 2231 
Q 1616 2231 1378 2169 
L 1441 2663 
Q 1497 2656 1531 2656 
Q 1891 2656 2178 2843 
Q 2466 3031 2466 3422 
Q 2466 3731 2256 3934 
Q 2047 4138 1716 4138 
Q 1388 4138 1169 3931 
Q 950 3725 888 3313 
L 325 3413 
Q 428 3978 793 4289 
Q 1159 4600 1703 4600 
Q 2078 4600 2393 4439 
Q 2709 4278 2876 4000 
Q 3044 3722 3044 3409 
Q 3044 3113 2884 2869 
Q 2725 2625 2413 2481 
Q 2819 2388 3044 2092 
Q 3269 1797 3269 1353 
Q 3269 753 2831 336 
Q 2394 -81 1725 -81 
Q 1122 -81 723 278 
Q 325 638 269 1209 
z
" transform="scale(0.015625)"/>
       </defs>
       <use xlink:href="#ArialMT-32"/>
       <use xlink:href="#ArialMT-33" x="55.615234"/>
       <use xlink:href="#ArialMT-30" x="111.230469"/>
      </g>
     </g>
    </g>
    <g id="text_14">
     <!-- flipper_length_mm -->
     <g style="fill: #262626" transform="translate(14.479688 208.1475) rotate(-90) scale(0.1 -0.1)">
      <defs>
       <path id="ArialMT-66" d="M 556 0 
L 556 2881 
L 59 2881 
L 59 3319 
L 556 3319 
L 556 3672 
Q 556 4006 616 4169 
Q 697 4388 901 4523 
Q 1106 4659 1475 4659 
Q 1713 4659 2000 4603 
L 1916 4113 
Q 1741 4144 1584 4144 
Q 1328 4144 1222 4034 
Q 1116 3925 1116 3625 
L 1116 3319 
L 1763 3319 
L 1763 2881 
L 1116 2881 
L 1116 0 
L 556 0 
z
" transform="scale(0.015625)"/>
       <path id="ArialMT-6c" d="M 409 0 
L 409 4581 
L 972 4581 
L 972 0 
L 409 0 
z
" transform="scale(0.015625)"/>
       <path id="ArialMT-65" d="M 2694 1069 
L 3275 997 
Q 3138 488 2766 206 
Q 2394 -75 1816 -75 
Q 1088 -75 661 373 
Q 234 822 234 1631 
Q 234 2469 665 2931 
Q 1097 3394 1784 3394 
Q 2450 3394 2872 2941 
Q 3294 2488 3294 1666 
Q 3294 1616 3291 1516 
L 816 1516 
Q 847 969 1125 678 
Q 1403 388 1819 388 
Q 2128 388 2347 550 
Q 2566 713 2694 1069 
z
M 847 1978 
L 2700 1978 
Q 2663 2397 2488 2606 
Q 2219 2931 1791 2931 
Q 1403 2931 1139 2672 
Q 875 2413 847 1978 
z
" transform="scale(0.015625)"/>
       <path id="ArialMT-5f" d="M -97 -1272 
L -97 -866 
L 3631 -866 
L 3631 -1272 
L -97 -1272 
z
" transform="scale(0.015625)"/>
       <path id="ArialMT-67" d="M 319 -275 
L 866 -356 
Q 900 -609 1056 -725 
Q 1266 -881 1628 -881 
Q 2019 -881 2231 -725 
Q 2444 -569 2519 -288 
Q 2563 -116 2559 434 
Q 2191 0 1641 0 
Q 956 0 581 494 
Q 206 988 206 1678 
Q 206 2153 378 2554 
Q 550 2956 876 3175 
Q 1203 3394 1644 3394 
Q 2231 3394 2613 2919 
L 2613 3319 
L 3131 3319 
L 3131 450 
Q 3131 -325 2973 -648 
Q 2816 -972 2473 -1159 
Q 2131 -1347 1631 -1347 
Q 1038 -1347 672 -1080 
Q 306 -813 319 -275 
z
M 784 1719 
Q 784 1066 1043 766 
Q 1303 466 1694 466 
Q 2081 466 2343 764 
Q 2606 1063 2606 1700 
Q 2606 2309 2336 2618 
Q 2066 2928 1684 2928 
Q 1309 2928 1046 2623 
Q 784 2319 784 1719 
z
" transform="scale(0.015625)"/>
       <path id="ArialMT-68" d="M 422 0 
L 422 4581 
L 984 4581 
L 984 2938 
Q 1378 3394 1978 3394 
Q 2347 3394 2619 3248 
Q 2891 3103 3008 2847 
Q 3125 2591 3125 2103 
L 3125 0 
L 2563 0 
L 2563 2103 
Q 2563 2525 2380 2717 
Q 2197 2909 1863 2909 
Q 1613 2909 1392 2779 
Q 1172 2650 1078 2428 
Q 984 2206 984 1816 
L 984 0 
L 422 0 
z
" transform="scale(0.015625)"/>
       <path id="ArialMT-6d" d="M 422 0 
L 422 3319 
L 925 3319 
L 925 2853 
Q 1081 3097 1340 3245 
Q 1600 3394 1931 3394 
Q 2300 3394 2536 3241 
Q 2772 3088 2869 2813 
Q 3263 3394 3894 3394 
Q 4388 3394 4653 3120 
Q 4919 2847 4919 2278 
L 4919 0 
L 4359 0 
L 4359 2091 
Q 4359 2428 4304 2576 
Q 4250 2725 4106 2815 
Q 3963 2906 3769 2906 
Q 3419 2906 3187 2673 
Q 2956 2441 2956 1928 
L 2956 0 
L 2394 0 
L 2394 2156 
Q 2394 2531 2256 2718 
Q 2119 2906 1806 2906 
Q 1569 2906 1367 2781 
Q 1166 2656 1075 2415 
Q 984 2175 984 1722 
L 984 0 
L 422 0 
z
" transform="scale(0.015625)"/>
      </defs>
      <use xlink:href="#ArialMT-66"/>
      <use xlink:href="#ArialMT-6c" x="27.783203"/>
      <use xlink:href="#ArialMT-69" x="50"/>
      <use xlink:href="#ArialMT-70" x="72.216797"/>
      <use xlink:href="#ArialMT-70" x="127.832031"/>
      <use xlink:href="#ArialMT-65" x="183.447266"/>
      <use xlink:href="#ArialMT-72" x="239.0625"/>
      <use xlink:href="#ArialMT-5f" x="272.363281"/>
      <use xlink:href="#ArialMT-6c" x="327.978516"/>
      <use xlink:href="#ArialMT-65" x="350.195312"/>
      <use xlink:href="#ArialMT-6e" x="405.810547"/>
      <use xlink:href="#ArialMT-67" x="461.425781"/>
      <use xlink:href="#ArialMT-74" x="517.041016"/>
      <use xlink:href="#ArialMT-68" x="544.824219"/>
      <use xlink:href="#ArialMT-5f" x="600.439453"/>
      <use xlink:href="#ArialMT-6d" x="656.054688"/>
      <use xlink:href="#ArialMT-6d" x="739.355469"/>
     </g>
    </g>
   </g>
   <g id="line2d_13">
    <path d="M 44.267188 137.640617 
L 49.355428 137.640617 
L 49.355428 133.121048 
L 54.443669 133.121048 
L 54.443669 115.042774 
L 59.531909 115.042774 
L 59.531909 115.042774 
L 64.62015 115.042774 
L 64.62015 106.003637 
L 69.70839 106.003637 
L 69.70839 106.003637 
L 74.796631 106.003637 
L 74.796631 106.003637 
L 79.884872 106.003637 
L 79.884872 106.003637 
L 84.973112 106.003637 
L 84.973112 106.003637 
L 90.061353 106.003637 
L 90.061353 106.003637 
L 95.149593 106.003637 
L 95.149593 106.003637 
L 100.237834 106.003637 
L 100.237834 101.484068 
L 105.326074 101.484068 
L 105.326074 101.484068 
L 110.414315 101.484068 
L 110.414315 101.484068 
L 115.502556 101.484068 
L 115.502556 96.9645 
L 120.590796 96.9645 
L 120.590796 92.444931 
L 125.679037 92.444931 
L 125.679037 92.444931 
L 130.767277 92.444931 
L 130.767277 92.444931 
L 135.855518 92.444931 
L 135.855518 87.925363 
L 140.943758 87.925363 
L 140.943758 87.925363 
L 146.031999 87.925363 
L 146.031999 87.925363 
L 151.12024 87.925363 
L 151.12024 83.405794 
L 156.20848 83.405794 
L 156.20848 83.405794 
L 161.296721 83.405794 
L 161.296721 83.405794 
L 166.384961 83.405794 
L 166.384961 83.405794 
L 171.473202 83.405794 
L 171.473202 83.405794 
L 176.561442 83.405794 
L 176.561442 83.405794 
L 181.649683 83.405794 
L 181.649683 78.886225 
L 186.737924 78.886225 
L 186.737924 78.886225 
L 191.826164 78.886225 
L 191.826164 78.886225 
L 196.914405 78.886225 
L 196.914405 78.886225 
L 202.002645 78.886225 
L 202.002645 78.886225 
L 207.090886 78.886225 
L 207.090886 74.366657 
L 212.179126 74.366657 
L 212.179126 74.366657 
L 217.267367 74.366657 
L 217.267367 74.366657 
L 222.355608 74.366657 
L 222.355608 74.366657 
L 227.443848 74.366657 
L 227.443848 74.366657 
L 232.532089 74.366657 
L 232.532089 69.847088 
L 237.620329 69.847088 
L 237.620329 69.847088 
L 242.70857 69.847088 
L 242.70857 65.32752 
L 247.79681 65.32752 
L 247.79681 65.32752 
L 252.885051 65.32752 
L 252.885051 65.32752 
L 257.973292 65.32752 
L 257.973292 60.807951 
L 263.061532 60.807951 
L 263.061532 60.807951 
L 268.149773 60.807951 
L 268.149773 60.807951 
L 273.238013 60.807951 
L 273.238013 60.807951 
L 278.326254 60.807951 
L 278.326254 56.288383 
L 283.414494 56.288383 
L 283.414494 47.249245 
L 288.502735 47.249245 
L 288.502735 47.249245 
L 293.590976 47.249245 
L 293.590976 47.249245 
L 298.679216 47.249245 
L 298.679216 47.249245 
L 303.767457 47.249245 
L 303.767457 42.729677 
L 308.855697 42.729677 
L 308.855697 42.729677 
L 313.943938 42.729677 
L 313.943938 38.210108 
L 319.032178 38.210108 
L 319.032178 38.210108 
L 324.120419 38.210108 
L 324.120419 38.210108 
L 329.20866 38.210108 
L 329.20866 38.210108 
L 334.2969 38.210108 
L 334.2969 38.210108 
L 339.385141 38.210108 
L 339.385141 38.210108 
L 344.473381 38.210108 
L 344.473381 38.210108 
L 349.561622 38.210108 
L 349.561622 33.69054 
L 354.649863 33.69054 
" clip-path="url(#p3784c32f25)" style="fill: none; stroke: #2ca02c; stroke-width: 1.5; stroke-linecap: round"/>
   </g>
   <g id="line2d_14">
    <path d="M 44.267188 232.551557 
L 53.39609 232.551557 
L 53.39609 214.473282 
L 62.524992 214.473282 
L 62.524992 205.434145 
L 71.653894 205.434145 
L 71.653894 205.434145 
L 80.782796 205.434145 
L 80.782796 205.434145 
L 89.911699 205.434145 
L 89.911699 200.914577 
L 99.040601 200.914577 
L 99.040601 196.395008 
L 108.169503 196.395008 
L 108.169503 196.395008 
L 117.298405 196.395008 
L 117.298405 191.87544 
L 126.427307 191.87544 
L 126.427307 191.87544 
L 135.55621 191.87544 
L 135.55621 187.355871 
L 144.685112 187.355871 
L 144.685112 187.355871 
L 153.814014 187.355871 
L 153.814014 187.355871 
L 162.942916 187.355871 
L 162.942916 187.355871 
L 172.071818 187.355871 
L 172.071818 187.355871 
L 181.200721 187.355871 
L 181.200721 182.836302 
L 190.329623 182.836302 
L 190.329623 173.797165 
L 199.458525 173.797165 
L 199.458525 169.277597 
L 208.587427 169.277597 
L 208.587427 169.277597 
L 217.716329 169.277597 
L 217.716329 169.277597 
L 226.845232 169.277597 
L 226.845232 169.277597 
L 235.974134 169.277597 
L 235.974134 169.277597 
L 245.103036 169.277597 
L 245.103036 164.758028 
L 254.231938 164.758028 
L 254.231938 160.23846 
L 263.36084 160.23846 
L 263.36084 160.23846 
L 272.489743 160.23846 
L 272.489743 160.23846 
L 281.618645 160.23846 
L 281.618645 151.199323 
L 290.747547 151.199323 
L 290.747547 151.199323 
L 299.876449 151.199323 
L 299.876449 146.679754 
L 309.005351 146.679754 
L 309.005351 142.160185 
L 318.134254 142.160185 
L 318.134254 128.60148 
L 327.263156 128.60148 
L 327.263156 128.60148 
L 336.392058 128.60148 
L 336.392058 128.60148 
L 345.52096 128.60148 
L 345.52096 119.562343 
L 354.649863 119.562343 
" clip-path="url(#p3784c32f25)" style="fill: none; stroke: #ff7f0e; stroke-width: 1.5; stroke-linecap: round"/>
   </g>
   <g id="line2d_15">
    <path d="M 44.267188 273.227674 
L 48.519005 273.227674 
L 48.519005 264.188537 
L 61.274457 264.188537 
L 61.274457 259.668968 
L 65.526275 259.668968 
L 65.526275 255.1494 
L 69.778092 255.1494 
L 69.778092 250.629831 
L 74.02991 250.629831 
L 74.02991 246.110262 
L 91.03718 246.110262 
L 91.03718 241.590694 
L 99.540815 241.590694 
L 99.540815 237.071125 
L 103.792632 237.071125 
L 103.792632 232.551557 
L 108.044449 232.551557 
L 108.044449 228.031988 
L 116.548084 228.031988 
L 116.548084 223.51242 
L 125.051719 223.51242 
L 125.051719 218.992851 
L 167.569894 218.992851 
L 167.569894 214.473282 
L 184.577164 214.473282 
L 184.577164 209.953714 
L 197.332616 209.953714 
L 197.332616 205.434145 
L 214.339886 205.434145 
L 214.339886 200.914577 
L 227.095339 200.914577 
L 227.095339 196.395008 
L 252.606243 196.395008 
L 252.606243 191.87544 
L 273.865331 191.87544 
L 273.865331 187.355871 
L 295.124418 187.355871 
L 295.124418 182.836302 
L 307.87987 182.836302 
L 307.87987 178.316734 
L 320.635323 178.316734 
L 320.635323 173.797165 
L 329.138958 173.797165 
L 329.138958 169.277597 
L 333.390775 169.277597 
L 333.390775 164.758028 
L 337.642593 164.758028 
L 337.642593 160.23846 
L 341.89441 160.23846 
L 341.89441 151.199323 
L 346.146228 151.199323 
L 346.146228 137.640617 
L 350.398045 137.640617 
L 350.398045 128.60148 
L 354.649863 128.60148 
L 354.649863 128.60148 
" clip-path="url(#p3784c32f25)" style="fill: none; stroke: #1f77b4; stroke-width: 1.5; stroke-linecap: round"/>
   </g>
   <g id="patch_3">
    <path d="M 44.267188 313.677813 
L 44.267188 20.357813 
" style="fill: none; stroke: #cccccc; stroke-width: 0.8; stroke-linejoin: miter; stroke-linecap: square"/>
   </g>
   <g id="patch_4">
    <path d="M 44.267188 313.677812 
L 354.649863 313.677812 
" style="fill: none; stroke: #cccccc; stroke-width: 0.8; stroke-linejoin: miter; stroke-linecap: square"/>
   </g>
   <g id="text_15">
    <!-- sex = Male -->
    <g style="fill: #262626" transform="translate(175.1429 14.357812) scale(0.1 -0.1)">
     <defs>
      <path id="ArialMT-73" d="M 197 991 
L 753 1078 
Q 800 744 1014 566 
Q 1228 388 1613 388 
Q 2000 388 2187 545 
Q 2375 703 2375 916 
Q 2375 1106 2209 1216 
Q 2094 1291 1634 1406 
Q 1016 1563 777 1677 
Q 538 1791 414 1992 
Q 291 2194 291 2438 
Q 291 2659 392 2848 
Q 494 3038 669 3163 
Q 800 3259 1026 3326 
Q 1253 3394 1513 3394 
Q 1903 3394 2198 3281 
Q 2494 3169 2634 2976 
Q 2775 2784 2828 2463 
L 2278 2388 
Q 2241 2644 2061 2787 
Q 1881 2931 1553 2931 
Q 1166 2931 1000 2803 
Q 834 2675 834 2503 
Q 834 2394 903 2306 
Q 972 2216 1119 2156 
Q 1203 2125 1616 2013 
Q 2213 1853 2448 1751 
Q 2684 1650 2818 1456 
Q 2953 1263 2953 975 
Q 2953 694 2789 445 
Q 2625 197 2315 61 
Q 2006 -75 1616 -75 
Q 969 -75 630 194 
Q 291 463 197 991 
z
" transform="scale(0.015625)"/>
      <path id="ArialMT-78" d="M 47 0 
L 1259 1725 
L 138 3319 
L 841 3319 
L 1350 2541 
Q 1494 2319 1581 2169 
Q 1719 2375 1834 2534 
L 2394 3319 
L 3066 3319 
L 1919 1756 
L 3153 0 
L 2463 0 
L 1781 1031 
L 1600 1309 
L 728 0 
L 47 0 
z
" transform="scale(0.015625)"/>
      <path id="ArialMT-20" transform="scale(0.015625)"/>
      <path id="ArialMT-3d" d="M 3381 2694 
L 356 2694 
L 356 3219 
L 3381 3219 
L 3381 2694 
z
M 3381 1303 
L 356 1303 
L 356 1828 
L 3381 1828 
L 3381 1303 
z
" transform="scale(0.015625)"/>
      <path id="ArialMT-4d" d="M 475 0 
L 475 4581 
L 1388 4581 
L 2472 1338 
Q 2622 884 2691 659 
Q 2769 909 2934 1394 
L 4031 4581 
L 4847 4581 
L 4847 0 
L 4263 0 
L 4263 3834 
L 2931 0 
L 2384 0 
L 1059 3900 
L 1059 0 
L 475 0 
z
" transform="scale(0.015625)"/>
      <path id="ArialMT-61" d="M 2588 409 
Q 2275 144 1986 34 
Q 1697 -75 1366 -75 
Q 819 -75 525 192 
Q 231 459 231 875 
Q 231 1119 342 1320 
Q 453 1522 633 1644 
Q 813 1766 1038 1828 
Q 1203 1872 1538 1913 
Q 2219 1994 2541 2106 
Q 2544 2222 2544 2253 
Q 2544 2597 2384 2738 
Q 2169 2928 1744 2928 
Q 1347 2928 1158 2789 
Q 969 2650 878 2297 
L 328 2372 
Q 403 2725 575 2942 
Q 747 3159 1072 3276 
Q 1397 3394 1825 3394 
Q 2250 3394 2515 3294 
Q 2781 3194 2906 3042 
Q 3031 2891 3081 2659 
Q 3109 2516 3109 2141 
L 3109 1391 
Q 3109 606 3145 398 
Q 3181 191 3288 0 
L 2700 0 
Q 2613 175 2588 409 
z
M 2541 1666 
Q 2234 1541 1622 1453 
Q 1275 1403 1131 1340 
Q 988 1278 909 1158 
Q 831 1038 831 891 
Q 831 666 1001 516 
Q 1172 366 1500 366 
Q 1825 366 2078 508 
Q 2331 650 2450 897 
Q 2541 1088 2541 1459 
L 2541 1666 
z
" transform="scale(0.015625)"/>
     </defs>
     <use xlink:href="#ArialMT-73"/>
     <use xlink:href="#ArialMT-65" x="50"/>
     <use xlink:href="#ArialMT-78" x="105.615234"/>
     <use xlink:href="#ArialMT-20" x="155.615234"/>
     <use xlink:href="#ArialMT-3d" x="183.398438"/>
     <use xlink:href="#ArialMT-20" x="241.796875"/>
     <use xlink:href="#ArialMT-4d" x="269.580078"/>
     <use xlink:href="#ArialMT-61" x="352.880859"/>
     <use xlink:href="#ArialMT-6c" x="408.496094"/>
     <use xlink:href="#ArialMT-65" x="430.712891"/>
    </g>
   </g>
  </g>
  <g id="axes_2">
   <g id="patch_5">
    <path d="M 379.399863 313.677812 
L 689.782538 313.677812 
L 689.782538 20.357812 
L 379.399863 20.357812 
z
" style="fill: #ffffff"/>
   </g>
   <g id="matplotlib.axis_3">
    <g id="xtick_6">
     <g id="line2d_16">
      <path d="M 379.399863 313.677812 
L 379.399863 20.357812 
" clip-path="url(#pa58e4e119a)" style="fill: none; stroke: #cccccc; stroke-width: 0.8; stroke-linecap: round"/>
     </g>
     <g id="text_16">
      <!-- 0.00 -->
      <g style="fill: #262626" transform="translate(369.669394 327.835625) scale(0.1 -0.1)">
       <use xlink:href="#ArialMT-30"/>
       <use xlink:href="#ArialMT-2e" x="55.615234"/>
       <use xlink:href="#ArialMT-30" x="83.398438"/>
       <use xlink:href="#ArialMT-30" x="139.013672"/>
      </g>
     </g>
    </g>
    <g id="xtick_7">
     <g id="line2d_17">
      <path d="M 456.995531 313.677812 
L 456.995531 20.357812 
" clip-path="url(#pa58e4e119a)" style="fill: none; stroke: #cccccc; stroke-width: 0.8; stroke-linecap: round"/>
     </g>
     <g id="text_17">
      <!-- 0.25 -->
      <g style="fill: #262626" transform="translate(447.265063 327.835625) scale(0.1 -0.1)">
       <use xlink:href="#ArialMT-30"/>
       <use xlink:href="#ArialMT-2e" x="55.615234"/>
       <use xlink:href="#ArialMT-32" x="83.398438"/>
       <use xlink:href="#ArialMT-35" x="139.013672"/>
      </g>
     </g>
    </g>
    <g id="xtick_8">
     <g id="line2d_18">
      <path d="M 534.5912 313.677812 
L 534.5912 20.357812 
" clip-path="url(#pa58e4e119a)" style="fill: none; stroke: #cccccc; stroke-width: 0.8; stroke-linecap: round"/>
     </g>
     <g id="text_18">
      <!-- 0.50 -->
      <g style="fill: #262626" transform="translate(524.860731 327.835625) scale(0.1 -0.1)">
       <use xlink:href="#ArialMT-30"/>
       <use xlink:href="#ArialMT-2e" x="55.615234"/>
       <use xlink:href="#ArialMT-35" x="83.398438"/>
       <use xlink:href="#ArialMT-30" x="139.013672"/>
      </g>
     </g>
    </g>
    <g id="xtick_9">
     <g id="line2d_19">
      <path d="M 612.186869 313.677812 
L 612.186869 20.357812 
" clip-path="url(#pa58e4e119a)" style="fill: none; stroke: #cccccc; stroke-width: 0.8; stroke-linecap: round"/>
     </g>
     <g id="text_19">
      <!-- 0.75 -->
      <g style="fill: #262626" transform="translate(602.4564 327.835625) scale(0.1 -0.1)">
       <use xlink:href="#ArialMT-30"/>
       <use xlink:href="#ArialMT-2e" x="55.615234"/>
       <use xlink:href="#ArialMT-37" x="83.398438"/>
       <use xlink:href="#ArialMT-35" x="139.013672"/>
      </g>
     </g>
    </g>
    <g id="xtick_10">
     <g id="line2d_20">
      <path d="M 689.782538 313.677812 
L 689.782538 20.357812 
" clip-path="url(#pa58e4e119a)" style="fill: none; stroke: #cccccc; stroke-width: 0.8; stroke-linecap: round"/>
     </g>
     <g id="text_20">
      <!-- 1.00 -->
      <g style="fill: #262626" transform="translate(680.052069 327.835625) scale(0.1 -0.1)">
       <use xlink:href="#ArialMT-31"/>
       <use xlink:href="#ArialMT-2e" x="55.615234"/>
       <use xlink:href="#ArialMT-30" x="83.398438"/>
       <use xlink:href="#ArialMT-30" x="139.013672"/>
      </g>
     </g>
    </g>
    <g id="text_21">
     <!-- Proportion -->
     <g style="fill: #262626" transform="translate(511.524013 340.980937) scale(0.1 -0.1)">
      <use xlink:href="#ArialMT-50"/>
      <use xlink:href="#ArialMT-72" x="66.699219"/>
      <use xlink:href="#ArialMT-6f" x="100"/>
      <use xlink:href="#ArialMT-70" x="155.615234"/>
      <use xlink:href="#ArialMT-6f" x="211.230469"/>
      <use xlink:href="#ArialMT-72" x="266.845703"/>
      <use xlink:href="#ArialMT-74" x="300.146484"/>
      <use xlink:href="#ArialMT-69" x="327.929688"/>
      <use xlink:href="#ArialMT-6f" x="350.146484"/>
      <use xlink:href="#ArialMT-6e" x="405.761719"/>
     </g>
    </g>
   </g>
   <g id="matplotlib.axis_4">
    <g id="ytick_8">
     <g id="line2d_21">
      <path d="M 379.399863 309.384222 
L 689.782538 309.384222 
" clip-path="url(#pa58e4e119a)" style="fill: none; stroke: #cccccc; stroke-width: 0.8; stroke-linecap: round"/>
     </g>
    </g>
    <g id="ytick_9">
     <g id="line2d_22">
      <path d="M 379.399863 264.188537 
L 689.782538 264.188537 
" clip-path="url(#pa58e4e119a)" style="fill: none; stroke: #cccccc; stroke-width: 0.8; stroke-linecap: round"/>
     </g>
    </g>
    <g id="ytick_10">
     <g id="line2d_23">
      <path d="M 379.399863 218.992851 
L 689.782538 218.992851 
" clip-path="url(#pa58e4e119a)" style="fill: none; stroke: #cccccc; stroke-width: 0.8; stroke-linecap: round"/>
     </g>
    </g>
    <g id="ytick_11">
     <g id="line2d_24">
      <path d="M 379.399863 173.797165 
L 689.782538 173.797165 
" clip-path="url(#pa58e4e119a)" style="fill: none; stroke: #cccccc; stroke-width: 0.8; stroke-linecap: round"/>
     </g>
    </g>
    <g id="ytick_12">
     <g id="line2d_25">
      <path d="M 379.399863 128.60148 
L 689.782538 128.60148 
" clip-path="url(#pa58e4e119a)" style="fill: none; stroke: #cccccc; stroke-width: 0.8; stroke-linecap: round"/>
     </g>
    </g>
    <g id="ytick_13">
     <g id="line2d_26">
      <path d="M 379.399863 83.405794 
L 689.782538 83.405794 
" clip-path="url(#pa58e4e119a)" style="fill: none; stroke: #cccccc; stroke-width: 0.8; stroke-linecap: round"/>
     </g>
    </g>
    <g id="ytick_14">
     <g id="line2d_27">
      <path d="M 379.399863 38.210108 
L 689.782538 38.210108 
" clip-path="url(#pa58e4e119a)" style="fill: none; stroke: #cccccc; stroke-width: 0.8; stroke-linecap: round"/>
     </g>
    </g>
   </g>
   <g id="line2d_28">
    <path d="M 379.399863 160.23846 
L 384.751288 160.23846 
L 384.751288 142.160185 
L 390.102713 142.160185 
L 390.102713 137.640617 
L 395.454139 137.640617 
L 395.454139 137.640617 
L 400.805564 137.640617 
L 400.805564 137.640617 
L 406.15699 137.640617 
L 406.15699 137.640617 
L 411.508415 137.640617 
L 411.508415 137.640617 
L 416.859841 137.640617 
L 416.859841 137.640617 
L 422.211266 137.640617 
L 422.211266 133.121048 
L 427.562691 133.121048 
L 427.562691 133.121048 
L 432.914117 133.121048 
L 432.914117 133.121048 
L 438.265542 133.121048 
L 438.265542 133.121048 
L 443.616968 133.121048 
L 443.616968 128.60148 
L 448.968393 128.60148 
L 448.968393 128.60148 
L 454.319819 128.60148 
L 454.319819 128.60148 
L 459.671244 128.60148 
L 459.671244 128.60148 
L 465.022669 128.60148 
L 465.022669 128.60148 
L 470.374095 128.60148 
L 470.374095 128.60148 
L 475.72552 128.60148 
L 475.72552 128.60148 
L 481.076946 128.60148 
L 481.076946 128.60148 
L 486.428371 128.60148 
L 486.428371 128.60148 
L 491.779797 128.60148 
L 491.779797 128.60148 
L 497.131222 128.60148 
L 497.131222 124.081911 
L 502.482647 124.081911 
L 502.482647 124.081911 
L 507.834073 124.081911 
L 507.834073 119.562343 
L 513.185498 119.562343 
L 513.185498 119.562343 
L 518.536924 119.562343 
L 518.536924 119.562343 
L 523.888349 119.562343 
L 523.888349 119.562343 
L 529.239775 119.562343 
L 529.239775 119.562343 
L 534.5912 119.562343 
L 534.5912 119.562343 
L 539.942625 119.562343 
L 539.942625 115.042774 
L 545.294051 115.042774 
L 545.294051 115.042774 
L 550.645476 115.042774 
L 550.645476 115.042774 
L 555.996902 115.042774 
L 555.996902 115.042774 
L 561.348327 115.042774 
L 561.348327 110.523205 
L 566.699753 110.523205 
L 566.699753 110.523205 
L 572.051178 110.523205 
L 572.051178 110.523205 
L 577.402603 110.523205 
L 577.402603 110.523205 
L 582.754029 110.523205 
L 582.754029 110.523205 
L 588.105454 110.523205 
L 588.105454 106.003637 
L 593.45688 106.003637 
L 593.45688 106.003637 
L 598.808305 106.003637 
L 598.808305 106.003637 
L 604.159731 106.003637 
L 604.159731 106.003637 
L 609.511156 106.003637 
L 609.511156 106.003637 
L 614.862581 106.003637 
L 614.862581 101.484068 
L 620.214007 101.484068 
L 620.214007 101.484068 
L 625.565432 101.484068 
L 625.565432 101.484068 
L 630.916858 101.484068 
L 630.916858 96.9645 
L 636.268283 96.9645 
L 636.268283 96.9645 
L 641.619709 96.9645 
L 641.619709 96.9645 
L 646.971134 96.9645 
L 646.971134 96.9645 
L 652.322559 96.9645 
L 652.322559 92.444931 
L 657.673985 92.444931 
L 657.673985 92.444931 
L 663.02541 92.444931 
L 663.02541 87.925363 
L 668.376836 87.925363 
L 668.376836 87.925363 
L 673.728261 87.925363 
L 673.728261 83.405794 
L 679.079687 83.405794 
L 679.079687 83.405794 
L 684.431112 83.405794 
L 684.431112 74.366657 
L 689.782538 74.366657 
" clip-path="url(#pa58e4e119a)" style="fill: none; stroke: #2ca02c; stroke-width: 1.5; stroke-linecap: round"/>
   </g>
   <g id="line2d_29">
    <path d="M 379.399863 273.227674 
L 388.528765 273.227674 
L 388.528765 259.668968 
L 397.657667 259.668968 
L 397.657667 259.668968 
L 406.786569 259.668968 
L 406.786569 241.590694 
L 415.915471 241.590694 
L 415.915471 232.551557 
L 425.044374 232.551557 
L 425.044374 232.551557 
L 434.173276 232.551557 
L 434.173276 232.551557 
L 443.302178 232.551557 
L 443.302178 232.551557 
L 452.43108 232.551557 
L 452.43108 232.551557 
L 461.559982 232.551557 
L 461.559982 228.031988 
L 470.688885 228.031988 
L 470.688885 223.51242 
L 479.817787 223.51242 
L 479.817787 218.992851 
L 488.946689 218.992851 
L 488.946689 218.992851 
L 498.075591 218.992851 
L 498.075591 218.992851 
L 507.204493 218.992851 
L 507.204493 214.473282 
L 516.333396 214.473282 
L 516.333396 214.473282 
L 525.462298 214.473282 
L 525.462298 209.953714 
L 534.5912 209.953714 
L 534.5912 209.953714 
L 543.720102 209.953714 
L 543.720102 205.434145 
L 552.849004 205.434145 
L 552.849004 205.434145 
L 561.977907 205.434145 
L 561.977907 200.914577 
L 571.106809 200.914577 
L 571.106809 196.395008 
L 580.235711 196.395008 
L 580.235711 196.395008 
L 589.364613 196.395008 
L 589.364613 196.395008 
L 598.493515 196.395008 
L 598.493515 196.395008 
L 607.622418 196.395008 
L 607.622418 191.87544 
L 616.75132 191.87544 
L 616.75132 191.87544 
L 625.880222 191.87544 
L 625.880222 182.836302 
L 635.009124 182.836302 
L 635.009124 182.836302 
L 644.138026 182.836302 
L 644.138026 182.836302 
L 653.266929 182.836302 
L 653.266929 178.316734 
L 662.395831 178.316734 
L 662.395831 178.316734 
L 671.524733 178.316734 
L 671.524733 173.797165 
L 680.653635 173.797165 
L 680.653635 164.758028 
L 689.782538 164.758028 
" clip-path="url(#pa58e4e119a)" style="fill: none; stroke: #ff7f0e; stroke-width: 1.5; stroke-linecap: round"/>
   </g>
   <g id="line2d_30">
    <path d="M 379.399863 300.345085 
L 383.65168 300.345085 
L 383.65168 291.305948 
L 387.903497 291.305948 
L 387.903497 282.266811 
L 392.155315 282.266811 
L 392.155315 273.227674 
L 400.65895 273.227674 
L 400.65895 264.188537 
L 404.910767 264.188537 
L 404.910767 259.668968 
L 421.918037 259.668968 
L 421.918037 255.1494 
L 430.421672 255.1494 
L 430.421672 250.629831 
L 434.67349 250.629831 
L 434.67349 246.110262 
L 447.428942 246.110262 
L 447.428942 241.590694 
L 472.939847 241.590694 
L 472.939847 237.071125 
L 494.198934 237.071125 
L 494.198934 232.551557 
L 532.465291 232.551557 
L 532.465291 228.031988 
L 545.220744 228.031988 
L 545.220744 223.51242 
L 562.228014 223.51242 
L 562.228014 218.992851 
L 596.242553 218.992851 
L 596.242553 214.473282 
L 621.753458 214.473282 
L 621.753458 209.953714 
L 630.257093 209.953714 
L 630.257093 205.434145 
L 651.51618 205.434145 
L 651.51618 196.395008 
L 672.775268 196.395008 
L 672.775268 191.87544 
L 677.027085 191.87544 
L 677.027085 182.836302 
L 681.278903 182.836302 
L 681.278903 178.316734 
L 685.53072 178.316734 
L 685.53072 164.758028 
L 689.782538 164.758028 
L 689.782538 164.758028 
" clip-path="url(#pa58e4e119a)" style="fill: none; stroke: #1f77b4; stroke-width: 1.5; stroke-linecap: round"/>
   </g>
   <g id="patch_6">
    <path d="M 379.399863 313.677813 
L 379.399863 20.357813 
" style="fill: none; stroke: #cccccc; stroke-width: 0.8; stroke-linejoin: miter; stroke-linecap: square"/>
   </g>
   <g id="patch_7">
    <path d="M 379.399863 313.677812 
L 689.782538 313.677812 
" style="fill: none; stroke: #cccccc; stroke-width: 0.8; stroke-linejoin: miter; stroke-linecap: square"/>
   </g>
   <g id="text_22">
    <!-- sex = Female -->
    <g style="fill: #262626" transform="translate(504.4412 14.357812) scale(0.1 -0.1)">
     <defs>
      <path id="ArialMT-46" d="M 525 0 
L 525 4581 
L 3616 4581 
L 3616 4041 
L 1131 4041 
L 1131 2622 
L 3281 2622 
L 3281 2081 
L 1131 2081 
L 1131 0 
L 525 0 
z
" transform="scale(0.015625)"/>
     </defs>
     <use xlink:href="#ArialMT-73"/>
     <use xlink:href="#ArialMT-65" x="50"/>
     <use xlink:href="#ArialMT-78" x="105.615234"/>
     <use xlink:href="#ArialMT-20" x="155.615234"/>
     <use xlink:href="#ArialMT-3d" x="183.398438"/>
     <use xlink:href="#ArialMT-20" x="241.796875"/>
     <use xlink:href="#ArialMT-46" x="269.580078"/>
     <use xlink:href="#ArialMT-65" x="330.664062"/>
     <use xlink:href="#ArialMT-6d" x="386.279297"/>
     <use xlink:href="#ArialMT-61" x="469.580078"/>
     <use xlink:href="#ArialMT-6c" x="525.195312"/>
     <use xlink:href="#ArialMT-65" x="547.412109"/>
    </g>
   </g>
  </g>
  <g id="legend_1">
   <g id="text_23">
    <!-- species -->
    <g style="fill: #262626" transform="translate(735.235937 156.390469) scale(0.1 -0.1)">
     <defs>
      <path id="ArialMT-63" d="M 2588 1216 
L 3141 1144 
Q 3050 572 2676 248 
Q 2303 -75 1759 -75 
Q 1078 -75 664 370 
Q 250 816 250 1647 
Q 250 2184 428 2587 
Q 606 2991 970 3192 
Q 1334 3394 1763 3394 
Q 2303 3394 2647 3120 
Q 2991 2847 3088 2344 
L 2541 2259 
Q 2463 2594 2264 2762 
Q 2066 2931 1784 2931 
Q 1359 2931 1093 2626 
Q 828 2322 828 1663 
Q 828 994 1084 691 
Q 1341 388 1753 388 
Q 2084 388 2306 591 
Q 2528 794 2588 1216 
z
" transform="scale(0.015625)"/>
     </defs>
     <use xlink:href="#ArialMT-73"/>
     <use xlink:href="#ArialMT-70" x="50"/>
     <use xlink:href="#ArialMT-65" x="105.615234"/>
     <use xlink:href="#ArialMT-63" x="161.230469"/>
     <use xlink:href="#ArialMT-69" x="211.230469"/>
     <use xlink:href="#ArialMT-65" x="233.447266"/>
     <use xlink:href="#ArialMT-73" x="289.0625"/>
    </g>
   </g>
   <g id="line2d_31">
    <path d="M 716.790625 167.035781 
L 716.790625 167.035781 
L 726.790625 167.035781 
L 726.790625 167.035781 
L 736.790625 167.035781 
" style="fill: none; stroke: #1f77b4; stroke-width: 1.5; stroke-linecap: round"/>
   </g>
   <g id="text_24">
    <!-- Adelie -->
    <g style="fill: #262626" transform="translate(744.790625 170.535781) scale(0.1 -0.1)">
     <defs>
      <path id="ArialMT-41" d="M -9 0 
L 1750 4581 
L 2403 4581 
L 4278 0 
L 3588 0 
L 3053 1388 
L 1138 1388 
L 634 0 
L -9 0 
z
M 1313 1881 
L 2866 1881 
L 2388 3150 
Q 2169 3728 2063 4100 
Q 1975 3659 1816 3225 
L 1313 1881 
z
" transform="scale(0.015625)"/>
      <path id="ArialMT-64" d="M 2575 0 
L 2575 419 
Q 2259 -75 1647 -75 
Q 1250 -75 917 144 
Q 584 363 401 755 
Q 219 1147 219 1656 
Q 219 2153 384 2558 
Q 550 2963 881 3178 
Q 1213 3394 1622 3394 
Q 1922 3394 2156 3267 
Q 2391 3141 2538 2938 
L 2538 4581 
L 3097 4581 
L 3097 0 
L 2575 0 
z
M 797 1656 
Q 797 1019 1065 703 
Q 1334 388 1700 388 
Q 2069 388 2326 689 
Q 2584 991 2584 1609 
Q 2584 2291 2321 2609 
Q 2059 2928 1675 2928 
Q 1300 2928 1048 2622 
Q 797 2316 797 1656 
z
" transform="scale(0.015625)"/>
     </defs>
     <use xlink:href="#ArialMT-41"/>
     <use xlink:href="#ArialMT-64" x="66.699219"/>
     <use xlink:href="#ArialMT-65" x="122.314453"/>
     <use xlink:href="#ArialMT-6c" x="177.929688"/>
     <use xlink:href="#ArialMT-69" x="200.146484"/>
     <use xlink:href="#ArialMT-65" x="222.363281"/>
    </g>
   </g>
   <g id="line2d_32">
    <path d="M 716.790625 181.302969 
L 716.790625 181.302969 
L 726.790625 181.302969 
L 726.790625 181.302969 
L 736.790625 181.302969 
" style="fill: none; stroke: #ff7f0e; stroke-width: 1.5; stroke-linecap: round"/>
   </g>
   <g id="text_25">
    <!-- Chinstrap -->
    <g style="fill: #262626" transform="translate(744.790625 184.802969) scale(0.1 -0.1)">
     <defs>
      <path id="ArialMT-43" d="M 3763 1606 
L 4369 1453 
Q 4178 706 3683 314 
Q 3188 -78 2472 -78 
Q 1731 -78 1267 223 
Q 803 525 561 1097 
Q 319 1669 319 2325 
Q 319 3041 592 3573 
Q 866 4106 1370 4382 
Q 1875 4659 2481 4659 
Q 3169 4659 3637 4309 
Q 4106 3959 4291 3325 
L 3694 3184 
Q 3534 3684 3231 3912 
Q 2928 4141 2469 4141 
Q 1941 4141 1586 3887 
Q 1231 3634 1087 3207 
Q 944 2781 944 2328 
Q 944 1744 1114 1308 
Q 1284 872 1643 656 
Q 2003 441 2422 441 
Q 2931 441 3284 734 
Q 3638 1028 3763 1606 
z
" transform="scale(0.015625)"/>
     </defs>
     <use xlink:href="#ArialMT-43"/>
     <use xlink:href="#ArialMT-68" x="72.216797"/>
     <use xlink:href="#ArialMT-69" x="127.832031"/>
     <use xlink:href="#ArialMT-6e" x="150.048828"/>
     <use xlink:href="#ArialMT-73" x="205.664062"/>
     <use xlink:href="#ArialMT-74" x="255.664062"/>
     <use xlink:href="#ArialMT-72" x="283.447266"/>
     <use xlink:href="#ArialMT-61" x="316.748047"/>
     <use xlink:href="#ArialMT-70" x="372.363281"/>
    </g>
   </g>
   <g id="line2d_33">
    <path d="M 716.790625 195.448281 
L 716.790625 195.448281 
L 726.790625 195.448281 
L 726.790625 195.448281 
L 736.790625 195.448281 
" style="fill: none; stroke: #2ca02c; stroke-width: 1.5; stroke-linecap: round"/>
   </g>
   <g id="text_26">
    <!-- Gentoo -->
    <g style="fill: #262626" transform="translate(744.790625 198.948281) scale(0.1 -0.1)">
     <defs>
      <path id="ArialMT-47" d="M 2638 1797 
L 2638 2334 
L 4578 2338 
L 4578 638 
Q 4131 281 3656 101 
Q 3181 -78 2681 -78 
Q 2006 -78 1454 211 
Q 903 500 622 1047 
Q 341 1594 341 2269 
Q 341 2938 620 3517 
Q 900 4097 1425 4378 
Q 1950 4659 2634 4659 
Q 3131 4659 3532 4498 
Q 3934 4338 4162 4050 
Q 4391 3763 4509 3300 
L 3963 3150 
Q 3859 3500 3706 3700 
Q 3553 3900 3268 4020 
Q 2984 4141 2638 4141 
Q 2222 4141 1919 4014 
Q 1616 3888 1430 3681 
Q 1244 3475 1141 3228 
Q 966 2803 966 2306 
Q 966 1694 1177 1281 
Q 1388 869 1791 669 
Q 2194 469 2647 469 
Q 3041 469 3416 620 
Q 3791 772 3984 944 
L 3984 1797 
L 2638 1797 
z
" transform="scale(0.015625)"/>
     </defs>
     <use xlink:href="#ArialMT-47"/>
     <use xlink:href="#ArialMT-65" x="77.783203"/>
     <use xlink:href="#ArialMT-6e" x="133.398438"/>
     <use xlink:href="#ArialMT-74" x="189.013672"/>
     <use xlink:href="#ArialMT-6f" x="216.796875"/>
     <use xlink:href="#ArialMT-6f" x="272.412109"/>
    </g>
   </g>
  </g>
 </g>
 <defs>
  <clipPath id="p3784c32f25">
   <rect x="44.267188" y="20.357812" width="310.382675" height="293.32"/>
  </clipPath>
  <clipPath id="pa58e4e119a">
   <rect x="379.399863" y="20.357812" width="310.382675" height="293.32"/>
  </clipPath>
 </defs>
</svg>
