<?xml version="1.0" encoding="utf-8" standalone="no"?>
<!DOCTYPE svg PUBLIC "-//W3C//DTD SVG 1.1//EN"
  "http://www.w3.org/Graphics/SVG/1.1/DTD/svg11.dtd">
<svg xmlns:xlink="http://www.w3.org/1999/xlink" width="371.52pt" height="309.919812pt" viewBox="0 0 371.52 309.919812" xmlns="http://www.w3.org/2000/svg" version="1.1">
 <metadata>
  <rdf:RDF xmlns:dc="http://purl.org/dc/elements/1.1/" xmlns:cc="http://creativecommons.org/ns#" xmlns:rdf="http://www.w3.org/1999/02/22-rdf-syntax-ns#">
   <cc:Work>
    <dc:type rdf:resource="http://purl.org/dc/dcmitype/StillImage"/>
    <dc:date>2023-04-10T15:07:16.494935</dc:date>
    <dc:format>image/svg+xml</dc:format>
    <dc:creator>
     <cc:Agent>
      <dc:title>Matplotlib v3.6.0, https://matplotlib.org/</dc:title>
     </cc:Agent>
    </dc:creator>
   </cc:Work>
  </rdf:RDF>
 </metadata>
 <defs>
  <style type="text/css">*{stroke-linejoin: round; stroke-linecap: butt}</style>
 </defs>
 <g id="figure_1">
  <g id="patch_1">
   <path d="M 0 309.919812 
L 371.52 309.919812 
L 371.52 0 
L 0 0 
z
" style="fill: #ffffff"/>
  </g>
  <g id="axes_1">
   <g id="patch_2">
    <path d="M 7.2 273.312 
L 364.32 273.312 
L 364.32 7.2 
L 7.2 7.2 
z
" style="fill: #ffffff"/>
   </g>
   <g id="matplotlib.axis_1">
    <g id="xtick_1">
     <g id="line2d_1">
      <path d="M 49.063349 273.312 
L 49.063349 7.2 
" clip-path="url(#p44de0d5c76)" style="fill: none; stroke: #cccccc; stroke-width: 0.8; stroke-linecap: round"/>
     </g>
     <g id="text_1">
      <!-- 175 -->
      <g style="fill: #262626" transform="translate(40.721943 287.469812) scale(0.1 -0.1)">
       <defs>
        <path id="ArialMT-31" d="M 2384 0 
L 1822 0 
L 1822 3584 
Q 1619 3391 1289 3197 
Q 959 3003 697 2906 
L 697 3450 
Q 1169 3672 1522 3987 
Q 1875 4303 2022 4600 
L 2384 4600 
L 2384 0 
z
" transform="scale(0.015625)"/>
        <path id="ArialMT-37" d="M 303 3981 
L 303 4522 
L 3269 4522 
L 3269 4084 
Q 2831 3619 2401 2847 
Q 1972 2075 1738 1259 
Q 1569 684 1522 0 
L 944 0 
Q 953 541 1156 1306 
Q 1359 2072 1739 2783 
Q 2119 3494 2547 3981 
L 303 3981 
z
" transform="scale(0.015625)"/>
        <path id="ArialMT-35" d="M 266 1200 
L 856 1250 
Q 922 819 1161 601 
Q 1400 384 1738 384 
Q 2144 384 2425 690 
Q 2706 997 2706 1503 
Q 2706 1984 2436 2262 
Q 2166 2541 1728 2541 
Q 1456 2541 1237 2417 
Q 1019 2294 894 2097 
L 366 2166 
L 809 4519 
L 3088 4519 
L 3088 3981 
L 1259 3981 
L 1013 2750 
Q 1425 3038 1878 3038 
Q 2478 3038 2890 2622 
Q 3303 2206 3303 1553 
Q 3303 931 2941 478 
Q 2500 -78 1738 -78 
Q 1113 -78 717 272 
Q 322 622 266 1200 
z
" transform="scale(0.015625)"/>
       </defs>
       <use xlink:href="#ArialMT-31"/>
       <use xlink:href="#ArialMT-37" x="55.615234"/>
       <use xlink:href="#ArialMT-35" x="111.230469"/>
      </g>
     </g>
    </g>
    <g id="xtick_2">
     <g id="line2d_2">
      <path d="M 91.781053 273.312 
L 91.781053 7.2 
" clip-path="url(#p44de0d5c76)" style="fill: none; stroke: #cccccc; stroke-width: 0.8; stroke-linecap: round"/>
     </g>
     <g id="text_2">
      <!-- 180 -->
      <g style="fill: #262626" transform="translate(83.439646 287.469812) scale(0.1 -0.1)">
       <defs>
        <path id="ArialMT-38" d="M 1131 2484 
Q 781 2613 612 2850 
Q 444 3088 444 3419 
Q 444 3919 803 4259 
Q 1163 4600 1759 4600 
Q 2359 4600 2725 4251 
Q 3091 3903 3091 3403 
Q 3091 3084 2923 2848 
Q 2756 2613 2416 2484 
Q 2838 2347 3058 2040 
Q 3278 1734 3278 1309 
Q 3278 722 2862 322 
Q 2447 -78 1769 -78 
Q 1091 -78 675 323 
Q 259 725 259 1325 
Q 259 1772 486 2073 
Q 713 2375 1131 2484 
z
M 1019 3438 
Q 1019 3113 1228 2906 
Q 1438 2700 1772 2700 
Q 2097 2700 2305 2904 
Q 2513 3109 2513 3406 
Q 2513 3716 2298 3927 
Q 2084 4138 1766 4138 
Q 1444 4138 1231 3931 
Q 1019 3725 1019 3438 
z
M 838 1322 
Q 838 1081 952 856 
Q 1066 631 1291 507 
Q 1516 384 1775 384 
Q 2178 384 2440 643 
Q 2703 903 2703 1303 
Q 2703 1709 2433 1975 
Q 2163 2241 1756 2241 
Q 1359 2241 1098 1978 
Q 838 1716 838 1322 
z
" transform="scale(0.015625)"/>
        <path id="ArialMT-30" d="M 266 2259 
Q 266 3072 433 3567 
Q 600 4063 929 4331 
Q 1259 4600 1759 4600 
Q 2128 4600 2406 4451 
Q 2684 4303 2865 4023 
Q 3047 3744 3150 3342 
Q 3253 2941 3253 2259 
Q 3253 1453 3087 958 
Q 2922 463 2592 192 
Q 2263 -78 1759 -78 
Q 1097 -78 719 397 
Q 266 969 266 2259 
z
M 844 2259 
Q 844 1131 1108 757 
Q 1372 384 1759 384 
Q 2147 384 2411 759 
Q 2675 1134 2675 2259 
Q 2675 3391 2411 3762 
Q 2147 4134 1753 4134 
Q 1366 4134 1134 3806 
Q 844 3388 844 2259 
z
" transform="scale(0.015625)"/>
       </defs>
       <use xlink:href="#ArialMT-31"/>
       <use xlink:href="#ArialMT-38" x="55.615234"/>
       <use xlink:href="#ArialMT-30" x="111.230469"/>
      </g>
     </g>
    </g>
    <g id="xtick_3">
     <g id="line2d_3">
      <path d="M 134.498756 273.312 
L 134.498756 7.2 
" clip-path="url(#p44de0d5c76)" style="fill: none; stroke: #cccccc; stroke-width: 0.8; stroke-linecap: round"/>
     </g>
     <g id="text_3">
      <!-- 185 -->
      <g style="fill: #262626" transform="translate(126.15735 287.469812) scale(0.1 -0.1)">
       <use xlink:href="#ArialMT-31"/>
       <use xlink:href="#ArialMT-38" x="55.615234"/>
       <use xlink:href="#ArialMT-35" x="111.230469"/>
      </g>
     </g>
    </g>
    <g id="xtick_4">
     <g id="line2d_4">
      <path d="M 177.216459 273.312 
L 177.216459 7.2 
" clip-path="url(#p44de0d5c76)" style="fill: none; stroke: #cccccc; stroke-width: 0.8; stroke-linecap: round"/>
     </g>
     <g id="text_4">
      <!-- 190 -->
      <g style="fill: #262626" transform="translate(168.875053 287.469812) scale(0.1 -0.1)">
       <defs>
        <path id="ArialMT-39" d="M 350 1059 
L 891 1109 
Q 959 728 1153 556 
Q 1347 384 1650 384 
Q 1909 384 2104 503 
Q 2300 622 2425 820 
Q 2550 1019 2634 1356 
Q 2719 1694 2719 2044 
Q 2719 2081 2716 2156 
Q 2547 1888 2255 1720 
Q 1963 1553 1622 1553 
Q 1053 1553 659 1965 
Q 266 2378 266 3053 
Q 266 3750 677 4175 
Q 1088 4600 1706 4600 
Q 2153 4600 2523 4359 
Q 2894 4119 3086 3673 
Q 3278 3228 3278 2384 
Q 3278 1506 3087 986 
Q 2897 466 2520 194 
Q 2144 -78 1638 -78 
Q 1100 -78 759 220 
Q 419 519 350 1059 
z
M 2653 3081 
Q 2653 3566 2395 3850 
Q 2138 4134 1775 4134 
Q 1400 4134 1122 3828 
Q 844 3522 844 3034 
Q 844 2597 1108 2323 
Q 1372 2050 1759 2050 
Q 2150 2050 2401 2323 
Q 2653 2597 2653 3081 
z
" transform="scale(0.015625)"/>
       </defs>
       <use xlink:href="#ArialMT-31"/>
       <use xlink:href="#ArialMT-39" x="55.615234"/>
       <use xlink:href="#ArialMT-30" x="111.230469"/>
      </g>
     </g>
    </g>
    <g id="xtick_5">
     <g id="line2d_5">
      <path d="M 219.934163 273.312 
L 219.934163 7.2 
" clip-path="url(#p44de0d5c76)" style="fill: none; stroke: #cccccc; stroke-width: 0.8; stroke-linecap: round"/>
     </g>
     <g id="text_5">
      <!-- 195 -->
      <g style="fill: #262626" transform="translate(211.592756 287.469812) scale(0.1 -0.1)">
       <use xlink:href="#ArialMT-31"/>
       <use xlink:href="#ArialMT-39" x="55.615234"/>
       <use xlink:href="#ArialMT-35" x="111.230469"/>
      </g>
     </g>
    </g>
    <g id="xtick_6">
     <g id="line2d_6">
      <path d="M 262.651866 273.312 
L 262.651866 7.2 
" clip-path="url(#p44de0d5c76)" style="fill: none; stroke: #cccccc; stroke-width: 0.8; stroke-linecap: round"/>
     </g>
     <g id="text_6">
      <!-- 200 -->
      <g style="fill: #262626" transform="translate(254.31046 287.469812) scale(0.1 -0.1)">
       <defs>
        <path id="ArialMT-32" d="M 3222 541 
L 3222 0 
L 194 0 
Q 188 203 259 391 
Q 375 700 629 1000 
Q 884 1300 1366 1694 
Q 2113 2306 2375 2664 
Q 2638 3022 2638 3341 
Q 2638 3675 2398 3904 
Q 2159 4134 1775 4134 
Q 1369 4134 1125 3890 
Q 881 3647 878 3216 
L 300 3275 
Q 359 3922 746 4261 
Q 1134 4600 1788 4600 
Q 2447 4600 2831 4234 
Q 3216 3869 3216 3328 
Q 3216 3053 3103 2787 
Q 2991 2522 2730 2228 
Q 2469 1934 1863 1422 
Q 1356 997 1212 845 
Q 1069 694 975 541 
L 3222 541 
z
" transform="scale(0.015625)"/>
       </defs>
       <use xlink:href="#ArialMT-32"/>
       <use xlink:href="#ArialMT-30" x="55.615234"/>
       <use xlink:href="#ArialMT-30" x="111.230469"/>
      </g>
     </g>
    </g>
    <g id="xtick_7">
     <g id="line2d_7">
      <path d="M 305.369569 273.312 
L 305.369569 7.2 
" clip-path="url(#p44de0d5c76)" style="fill: none; stroke: #cccccc; stroke-width: 0.8; stroke-linecap: round"/>
     </g>
     <g id="text_7">
      <!-- 205 -->
      <g style="fill: #262626" transform="translate(297.028163 287.469812) scale(0.1 -0.1)">
       <use xlink:href="#ArialMT-32"/>
       <use xlink:href="#ArialMT-30" x="55.615234"/>
       <use xlink:href="#ArialMT-35" x="111.230469"/>
      </g>
     </g>
    </g>
    <g id="xtick_8">
     <g id="line2d_8">
      <path d="M 348.087273 273.312 
L 348.087273 7.2 
" clip-path="url(#p44de0d5c76)" style="fill: none; stroke: #cccccc; stroke-width: 0.8; stroke-linecap: round"/>
     </g>
     <g id="text_8">
      <!-- 210 -->
      <g style="fill: #262626" transform="translate(339.745866 287.469812) scale(0.1 -0.1)">
       <use xlink:href="#ArialMT-32"/>
       <use xlink:href="#ArialMT-31" x="55.615234"/>
       <use xlink:href="#ArialMT-30" x="111.230469"/>
      </g>
     </g>
    </g>
    <g id="text_9">
     <!-- Flipper length [mm] -->
     <g style="fill: #262626" transform="translate(142.970156 300.615125) scale(0.1 -0.1)">
      <defs>
       <path id="ArialMT-46" d="M 525 0 
L 525 4581 
L 3616 4581 
L 3616 4041 
L 1131 4041 
L 1131 2622 
L 3281 2622 
L 3281 2081 
L 1131 2081 
L 1131 0 
L 525 0 
z
" transform="scale(0.015625)"/>
       <path id="ArialMT-6c" d="M 409 0 
L 409 4581 
L 972 4581 
L 972 0 
L 409 0 
z
" transform="scale(0.015625)"/>
       <path id="ArialMT-69" d="M 425 3934 
L 425 4581 
L 988 4581 
L 988 3934 
L 425 3934 
z
M 425 0 
L 425 3319 
L 988 3319 
L 988 0 
L 425 0 
z
" transform="scale(0.015625)"/>
       <path id="ArialMT-70" d="M 422 -1272 
L 422 3319 
L 934 3319 
L 934 2888 
Q 1116 3141 1344 3267 
Q 1572 3394 1897 3394 
Q 2322 3394 2647 3175 
Q 2972 2956 3137 2557 
Q 3303 2159 3303 1684 
Q 3303 1175 3120 767 
Q 2938 359 2589 142 
Q 2241 -75 1856 -75 
Q 1575 -75 1351 44 
Q 1128 163 984 344 
L 984 -1272 
L 422 -1272 
z
M 931 1641 
Q 931 1000 1190 694 
Q 1450 388 1819 388 
Q 2194 388 2461 705 
Q 2728 1022 2728 1688 
Q 2728 2322 2467 2637 
Q 2206 2953 1844 2953 
Q 1484 2953 1207 2617 
Q 931 2281 931 1641 
z
" transform="scale(0.015625)"/>
       <path id="ArialMT-65" d="M 2694 1069 
L 3275 997 
Q 3138 488 2766 206 
Q 2394 -75 1816 -75 
Q 1088 -75 661 373 
Q 234 822 234 1631 
Q 234 2469 665 2931 
Q 1097 3394 1784 3394 
Q 2450 3394 2872 2941 
Q 3294 2488 3294 1666 
Q 3294 1616 3291 1516 
L 816 1516 
Q 847 969 1125 678 
Q 1403 388 1819 388 
Q 2128 388 2347 550 
Q 2566 713 2694 1069 
z
M 847 1978 
L 2700 1978 
Q 2663 2397 2488 2606 
Q 2219 2931 1791 2931 
Q 1403 2931 1139 2672 
Q 875 2413 847 1978 
z
" transform="scale(0.015625)"/>
       <path id="ArialMT-72" d="M 416 0 
L 416 3319 
L 922 3319 
L 922 2816 
Q 1116 3169 1280 3281 
Q 1444 3394 1641 3394 
Q 1925 3394 2219 3213 
L 2025 2691 
Q 1819 2813 1613 2813 
Q 1428 2813 1281 2702 
Q 1134 2591 1072 2394 
Q 978 2094 978 1738 
L 978 0 
L 416 0 
z
" transform="scale(0.015625)"/>
       <path id="ArialMT-20" transform="scale(0.015625)"/>
       <path id="ArialMT-6e" d="M 422 0 
L 422 3319 
L 928 3319 
L 928 2847 
Q 1294 3394 1984 3394 
Q 2284 3394 2536 3286 
Q 2788 3178 2913 3003 
Q 3038 2828 3088 2588 
Q 3119 2431 3119 2041 
L 3119 0 
L 2556 0 
L 2556 2019 
Q 2556 2363 2490 2533 
Q 2425 2703 2258 2804 
Q 2091 2906 1866 2906 
Q 1506 2906 1245 2678 
Q 984 2450 984 1813 
L 984 0 
L 422 0 
z
" transform="scale(0.015625)"/>
       <path id="ArialMT-67" d="M 319 -275 
L 866 -356 
Q 900 -609 1056 -725 
Q 1266 -881 1628 -881 
Q 2019 -881 2231 -725 
Q 2444 -569 2519 -288 
Q 2563 -116 2559 434 
Q 2191 0 1641 0 
Q 956 0 581 494 
Q 206 988 206 1678 
Q 206 2153 378 2554 
Q 550 2956 876 3175 
Q 1203 3394 1644 3394 
Q 2231 3394 2613 2919 
L 2613 3319 
L 3131 3319 
L 3131 450 
Q 3131 -325 2973 -648 
Q 2816 -972 2473 -1159 
Q 2131 -1347 1631 -1347 
Q 1038 -1347 672 -1080 
Q 306 -813 319 -275 
z
M 784 1719 
Q 784 1066 1043 766 
Q 1303 466 1694 466 
Q 2081 466 2343 764 
Q 2606 1063 2606 1700 
Q 2606 2309 2336 2618 
Q 2066 2928 1684 2928 
Q 1309 2928 1046 2623 
Q 784 2319 784 1719 
z
" transform="scale(0.015625)"/>
       <path id="ArialMT-74" d="M 1650 503 
L 1731 6 
Q 1494 -44 1306 -44 
Q 1000 -44 831 53 
Q 663 150 594 308 
Q 525 466 525 972 
L 525 2881 
L 113 2881 
L 113 3319 
L 525 3319 
L 525 4141 
L 1084 4478 
L 1084 3319 
L 1650 3319 
L 1650 2881 
L 1084 2881 
L 1084 941 
Q 1084 700 1114 631 
Q 1144 563 1211 522 
Q 1278 481 1403 481 
Q 1497 481 1650 503 
z
" transform="scale(0.015625)"/>
       <path id="ArialMT-68" d="M 422 0 
L 422 4581 
L 984 4581 
L 984 2938 
Q 1378 3394 1978 3394 
Q 2347 3394 2619 3248 
Q 2891 3103 3008 2847 
Q 3125 2591 3125 2103 
L 3125 0 
L 2563 0 
L 2563 2103 
Q 2563 2525 2380 2717 
Q 2197 2909 1863 2909 
Q 1613 2909 1392 2779 
Q 1172 2650 1078 2428 
Q 984 2206 984 1816 
L 984 0 
L 422 0 
z
" transform="scale(0.015625)"/>
       <path id="ArialMT-5b" d="M 434 -1272 
L 434 4581 
L 1675 4581 
L 1675 4116 
L 997 4116 
L 997 -806 
L 1675 -806 
L 1675 -1272 
L 434 -1272 
z
" transform="scale(0.015625)"/>
       <path id="ArialMT-6d" d="M 422 0 
L 422 3319 
L 925 3319 
L 925 2853 
Q 1081 3097 1340 3245 
Q 1600 3394 1931 3394 
Q 2300 3394 2536 3241 
Q 2772 3088 2869 2813 
Q 3263 3394 3894 3394 
Q 4388 3394 4653 3120 
Q 4919 2847 4919 2278 
L 4919 0 
L 4359 0 
L 4359 2091 
Q 4359 2428 4304 2576 
Q 4250 2725 4106 2815 
Q 3963 2906 3769 2906 
Q 3419 2906 3187 2673 
Q 2956 2441 2956 1928 
L 2956 0 
L 2394 0 
L 2394 2156 
Q 2394 2531 2256 2718 
Q 2119 2906 1806 2906 
Q 1569 2906 1367 2781 
Q 1166 2656 1075 2415 
Q 984 2175 984 1722 
L 984 0 
L 422 0 
z
" transform="scale(0.015625)"/>
       <path id="ArialMT-5d" d="M 1363 -1272 
L 122 -1272 
L 122 -806 
L 800 -806 
L 800 4116 
L 122 4116 
L 122 4581 
L 1363 4581 
L 1363 -1272 
z
" transform="scale(0.015625)"/>
      </defs>
      <use xlink:href="#ArialMT-46"/>
      <use xlink:href="#ArialMT-6c" x="61.083984"/>
      <use xlink:href="#ArialMT-69" x="83.300781"/>
      <use xlink:href="#ArialMT-70" x="105.517578"/>
      <use xlink:href="#ArialMT-70" x="161.132812"/>
      <use xlink:href="#ArialMT-65" x="216.748047"/>
      <use xlink:href="#ArialMT-72" x="272.363281"/>
      <use xlink:href="#ArialMT-20" x="305.664062"/>
      <use xlink:href="#ArialMT-6c" x="333.447266"/>
      <use xlink:href="#ArialMT-65" x="355.664062"/>
      <use xlink:href="#ArialMT-6e" x="411.279297"/>
      <use xlink:href="#ArialMT-67" x="466.894531"/>
      <use xlink:href="#ArialMT-74" x="522.509766"/>
      <use xlink:href="#ArialMT-68" x="550.292969"/>
      <use xlink:href="#ArialMT-20" x="605.908203"/>
      <use xlink:href="#ArialMT-5b" x="633.691406"/>
      <use xlink:href="#ArialMT-6d" x="661.474609"/>
      <use xlink:href="#ArialMT-6d" x="744.775391"/>
      <use xlink:href="#ArialMT-5d" x="828.076172"/>
     </g>
    </g>
   </g>
   <g id="matplotlib.axis_2">
    <g id="ytick_1"/>
   </g>
   <g id="patch_3">
    <path d="M 7.2 273.312 
L 7.2 7.2 
" style="fill: none; stroke: #cccccc; stroke-width: 0.8; stroke-linejoin: miter; stroke-linecap: square"/>
   </g>
   <g id="patch_4">
    <path d="M 364.32 273.312 
L 364.32 7.2 
" style="fill: none; stroke: #cccccc; stroke-width: 0.8; stroke-linejoin: miter; stroke-linecap: square"/>
   </g>
   <g id="patch_5">
    <path d="M 7.2 273.312 
L 364.32 273.312 
" style="fill: none; stroke: #cccccc; stroke-width: 0.8; stroke-linejoin: miter; stroke-linecap: square"/>
   </g>
   <g id="patch_6">
    <path d="M 7.2 7.2 
L 364.32 7.2 
" style="fill: none; stroke: #cccccc; stroke-width: 0.8; stroke-linejoin: miter; stroke-linecap: square"/>
   </g>
   <g id="PathCollection_1">
    <defs>
     <path id="m5a9b8c685f" d="M 0 2.5 
C 0.663008 2.5 1.29895 2.236584 1.767767 1.767767 
C 2.236584 1.29895 2.5 0.663008 2.5 0 
C 2.5 -0.663008 2.236584 -1.29895 1.767767 -1.767767 
C 1.29895 -2.236584 0.663008 -2.5 0 -2.5 
C -0.663008 -2.5 -1.29895 -2.236584 -1.767767 -1.767767 
C -2.236584 -1.29895 -2.5 -0.663008 -2.5 0 
C -2.5 0.663008 -2.236584 1.29895 -1.767767 1.767767 
C -1.29895 2.236584 -0.663008 2.5 0 2.5 
z
"/>
    </defs>
    <g clip-path="url(#p44de0d5c76)">
     <use xlink:href="#m5a9b8c685f" x="100.324593" y="124.331522" style="fill: #1f77b4"/>
     <use xlink:href="#m5a9b8c685f" x="143.042297" y="129.131663" style="fill: #1f77b4"/>
     <use xlink:href="#m5a9b8c685f" x="219.934163" y="143.330772" style="fill: #1f77b4"/>
     <use xlink:href="#m5a9b8c685f" x="202.847081" y="144.547101" style="fill: #1f77b4"/>
     <use xlink:href="#m5a9b8c685f" x="177.216459" y="126.720847" style="fill: #1f77b4"/>
     <use xlink:href="#m5a9b8c685f" x="100.324593" y="124.433551" style="fill: #1f77b4"/>
     <use xlink:href="#m5a9b8c685f" x="219.934163" y="120.697868" style="fill: #1f77b4"/>
     <use xlink:href="#m5a9b8c685f" x="202.847081" y="139.229588" style="fill: #1f77b4"/>
     <use xlink:href="#m5a9b8c685f" x="177.216459" y="133.713224" style="fill: #1f77b4"/>
     <use xlink:href="#m5a9b8c685f" x="143.042297" y="140.107166" style="fill: #1f77b4"/>
     <use xlink:href="#m5a9b8c685f" x="91.781053" y="141.267502" style="fill: #1f77b4"/>
     <use xlink:href="#m5a9b8c685f" x="108.868134" y="155.396769" style="fill: #1f77b4"/>
     <use xlink:href="#m5a9b8c685f" x="185.76" y="146.530506" style="fill: #1f77b4"/>
     <use xlink:href="#m5a9b8c685f" x="245.564785" y="157.701055" style="fill: #1f77b4"/>
     <use xlink:href="#m5a9b8c685f" x="134.498756" y="121.313456" style="fill: #1f77b4"/>
     <use xlink:href="#m5a9b8c685f" x="219.934163" y="129.01754" style="fill: #1f77b4"/>
     <use xlink:href="#m5a9b8c685f" x="237.021244" y="123.377734" style="fill: #1f77b4"/>
     <use xlink:href="#m5a9b8c685f" x="125.955215" y="132.532798" style="fill: #1f77b4"/>
     <use xlink:href="#m5a9b8c685f" x="211.390622" y="117.218633" style="fill: #1f77b4"/>
     <use xlink:href="#m5a9b8c685f" x="40.519809" y="125.673984" style="fill: #1f77b4"/>
     <use xlink:href="#m5a9b8c685f" x="91.781053" y="161.500875" style="fill: #1f77b4"/>
     <use xlink:href="#m5a9b8c685f" x="168.672919" y="120.721966" style="fill: #1f77b4"/>
     <use xlink:href="#m5a9b8c685f" x="134.498756" y="129.356457" style="fill: #1f77b4"/>
     <use xlink:href="#m5a9b8c685f" x="91.781053" y="124.202719" style="fill: #1f77b4"/>
     <use xlink:href="#m5a9b8c685f" x="151.585837" y="162.256934" style="fill: #1f77b4"/>
     <use xlink:href="#m5a9b8c685f" x="117.411675" y="128.47868" style="fill: #1f77b4"/>
     <use xlink:href="#m5a9b8c685f" x="151.585837" y="114.012274" style="fill: #1f77b4"/>
     <use xlink:href="#m5a9b8c685f" x="23.432727" y="123.793369" style="fill: #1f77b4"/>
     <use xlink:href="#m5a9b8c685f" x="91.781053" y="125.470192" style="fill: #1f77b4"/>
     <use xlink:href="#m5a9b8c685f" x="74.693971" y="126.303203" style="fill: #1f77b4"/>
     <use xlink:href="#m5a9b8c685f" x="74.693971" y="165.550153" style="fill: #1f77b4"/>
     <use xlink:href="#m5a9b8c685f" x="160.129378" y="127.317589" style="fill: #1f77b4"/>
     <use xlink:href="#m5a9b8c685f" x="125.955215" y="165.50324" style="fill: #1f77b4"/>
     <use xlink:href="#m5a9b8c685f" x="219.934163" y="148.394059" style="fill: #1f77b4"/>
     <use xlink:href="#m5a9b8c685f" x="228.477703" y="127.482085" style="fill: #1f77b4"/>
     <use xlink:href="#m5a9b8c685f" x="177.216459" y="120.75644" style="fill: #1f77b4"/>
     <use xlink:href="#m5a9b8c685f" x="91.781053" y="122.492342" style="fill: #1f77b4"/>
     <use xlink:href="#m5a9b8c685f" x="100.324593" y="132.779503" style="fill: #1f77b4"/>
     <use xlink:href="#m5a9b8c685f" x="125.955215" y="158.449636" style="fill: #1f77b4"/>
     <use xlink:href="#m5a9b8c685f" x="108.868134" y="125.843037" style="fill: #1f77b4"/>
     <use xlink:href="#m5a9b8c685f" x="219.934163" y="158.364468" style="fill: #1f77b4"/>
     <use xlink:href="#m5a9b8c685f" x="143.042297" y="158.713935" style="fill: #1f77b4"/>
     <use xlink:href="#m5a9b8c685f" x="228.477703" y="165.328213" style="fill: #1f77b4"/>
     <use xlink:href="#m5a9b8c685f" x="134.498756" y="152.798014" style="fill: #1f77b4"/>
     <use xlink:href="#m5a9b8c685f" x="177.216459" y="149.95768" style="fill: #1f77b4"/>
     <use xlink:href="#m5a9b8c685f" x="108.868134" y="123.623352" style="fill: #1f77b4"/>
     <use xlink:href="#m5a9b8c685f" x="83.237512" y="141.943991" style="fill: #1f77b4"/>
     <use xlink:href="#m5a9b8c685f" x="177.216459" y="165.983761" style="fill: #1f77b4"/>
     <use xlink:href="#m5a9b8c685f" x="185.76" y="160.044539" style="fill: #1f77b4"/>
     <use xlink:href="#m5a9b8c685f" x="143.042297" y="146.431812" style="fill: #1f77b4"/>
     <use xlink:href="#m5a9b8c685f" x="160.129378" y="142.91835" style="fill: #1f77b4"/>
     <use xlink:href="#m5a9b8c685f" x="177.216459" y="144.483773" style="fill: #1f77b4"/>
     <use xlink:href="#m5a9b8c685f" x="262.651866" y="127.393677" style="fill: #1f77b4"/>
     <use xlink:href="#m5a9b8c685f" x="151.585837" y="157.026868" style="fill: #1f77b4"/>
     <use xlink:href="#m5a9b8c685f" x="185.76" y="135.823343" style="fill: #1f77b4"/>
     <use xlink:href="#m5a9b8c685f" x="143.042297" y="128.128449" style="fill: #1f77b4"/>
     <use xlink:href="#m5a9b8c685f" x="202.847081" y="132.788089" style="fill: #1f77b4"/>
     <use xlink:href="#m5a9b8c685f" x="100.324593" y="116.941223" style="fill: #1f77b4"/>
     <use xlink:href="#m5a9b8c685f" x="211.390622" y="146.102025" style="fill: #1f77b4"/>
     <use xlink:href="#m5a9b8c685f" x="134.498756" y="165.390743" style="fill: #1f77b4"/>
     <use xlink:href="#m5a9b8c685f" x="219.934163" y="116.229369" style="fill: #1f77b4"/>
     <use xlink:href="#m5a9b8c685f" x="134.498756" y="138.178395" style="fill: #1f77b4"/>
     <use xlink:href="#m5a9b8c685f" x="194.303541" y="119.852543" style="fill: #1f77b4"/>
     <use xlink:href="#m5a9b8c685f" x="125.955215" y="119.292465" style="fill: #1f77b4"/>
     <use xlink:href="#m5a9b8c685f" x="194.303541" y="151.105094" style="fill: #1f77b4"/>
     <use xlink:href="#m5a9b8c685f" x="219.934163" y="130.00535" style="fill: #1f77b4"/>
     <use xlink:href="#m5a9b8c685f" x="160.129378" y="136.52649" style="fill: #1f77b4"/>
     <use xlink:href="#m5a9b8c685f" x="177.216459" y="120.011245" style="fill: #1f77b4"/>
     <use xlink:href="#m5a9b8c685f" x="245.564785" y="151.907569" style="fill: #1f77b4"/>
     <use xlink:href="#m5a9b8c685f" x="177.216459" y="158.384254" style="fill: #1f77b4"/>
     <use xlink:href="#m5a9b8c685f" x="177.216459" y="124.267271" style="fill: #1f77b4"/>
     <use xlink:href="#m5a9b8c685f" x="228.477703" y="119.47589" style="fill: #1f77b4"/>
     <use xlink:href="#m5a9b8c685f" x="237.021244" y="115.16096" style="fill: #1f77b4"/>
     <use xlink:href="#m5a9b8c685f" x="177.216459" y="166.499726" style="fill: #1f77b4"/>
     <use xlink:href="#m5a9b8c685f" x="219.934163" y="120.336166" style="fill: #1f77b4"/>
     <use xlink:href="#m5a9b8c685f" x="185.76" y="130.942889" style="fill: #1f77b4"/>
     <use xlink:href="#m5a9b8c685f" x="125.955215" y="123.606815" style="fill: #1f77b4"/>
     <use xlink:href="#m5a9b8c685f" x="151.585837" y="130.471563" style="fill: #1f77b4"/>
     <use xlink:href="#m5a9b8c685f" x="219.934163" y="150.968764" style="fill: #1f77b4"/>
     <use xlink:href="#m5a9b8c685f" x="168.672919" y="126.676447" style="fill: #1f77b4"/>
     <use xlink:href="#m5a9b8c685f" x="228.477703" y="115.862174" style="fill: #1f77b4"/>
     <use xlink:href="#m5a9b8c685f" x="151.585837" y="150.766603" style="fill: #1f77b4"/>
     <use xlink:href="#m5a9b8c685f" x="202.847081" y="145.681431" style="fill: #1f77b4"/>
     <use xlink:href="#m5a9b8c685f" x="185.76" y="157.908312" style="fill: #1f77b4"/>
     <use xlink:href="#m5a9b8c685f" x="211.390622" y="140.914506" style="fill: #1f77b4"/>
     <use xlink:href="#m5a9b8c685f" x="177.216459" y="131.323489" style="fill: #1f77b4"/>
     <use xlink:href="#m5a9b8c685f" x="168.672919" y="152.278469" style="fill: #1f77b4"/>
     <use xlink:href="#m5a9b8c685f" x="168.672919" y="157.379889" style="fill: #1f77b4"/>
     <use xlink:href="#m5a9b8c685f" x="177.216459" y="131.525767" style="fill: #1f77b4"/>
     <use xlink:href="#m5a9b8c685f" x="279.738947" y="161.717207" style="fill: #1f77b4"/>
     <use xlink:href="#m5a9b8c685f" x="305.369569" y="161.593157" style="fill: #1f77b4"/>
     <use xlink:href="#m5a9b8c685f" x="134.498756" y="144.486447" style="fill: #1f77b4"/>
     <use xlink:href="#m5a9b8c685f" x="143.042297" y="137.471266" style="fill: #1f77b4"/>
     <use xlink:href="#m5a9b8c685f" x="151.585837" y="154.533392" style="fill: #1f77b4"/>
     <use xlink:href="#m5a9b8c685f" x="331.000191" y="157.590777" style="fill: #1f77b4"/>
     <use xlink:href="#m5a9b8c685f" x="177.216459" y="133.660019" style="fill: #1f77b4"/>
     <use xlink:href="#m5a9b8c685f" x="228.477703" y="150.619981" style="fill: #1f77b4"/>
     <use xlink:href="#m5a9b8c685f" x="74.693971" y="166.486932" style="fill: #1f77b4"/>
     <use xlink:href="#m5a9b8c685f" x="194.303541" y="126.265099" style="fill: #1f77b4"/>
     <use xlink:href="#m5a9b8c685f" x="194.303541" y="150.319778" style="fill: #1f77b4"/>
     <use xlink:href="#m5a9b8c685f" x="288.282488" y="130.204152" style="fill: #1f77b4"/>
     <use xlink:href="#m5a9b8c685f" x="117.411675" y="158.140722" style="fill: #1f77b4"/>
     <use xlink:href="#m5a9b8c685f" x="177.216459" y="125.945301" style="fill: #1f77b4"/>
     <use xlink:href="#m5a9b8c685f" x="202.847081" y="147.556622" style="fill: #1f77b4"/>
     <use xlink:href="#m5a9b8c685f" x="125.955215" y="145.991796" style="fill: #1f77b4"/>
     <use xlink:href="#m5a9b8c685f" x="254.108325" y="128.20341" style="fill: #1f77b4"/>
     <use xlink:href="#m5a9b8c685f" x="177.216459" y="163.025206" style="fill: #1f77b4"/>
     <use xlink:href="#m5a9b8c685f" x="100.324593" y="163.940588" style="fill: #1f77b4"/>
     <use xlink:href="#m5a9b8c685f" x="237.021244" y="132.656359" style="fill: #1f77b4"/>
     <use xlink:href="#m5a9b8c685f" x="245.564785" y="142.117391" style="fill: #1f77b4"/>
     <use xlink:href="#m5a9b8c685f" x="185.76" y="166.170045" style="fill: #1f77b4"/>
     <use xlink:href="#m5a9b8c685f" x="202.847081" y="117.602183" style="fill: #1f77b4"/>
     <use xlink:href="#m5a9b8c685f" x="237.021244" y="118.112797" style="fill: #1f77b4"/>
     <use xlink:href="#m5a9b8c685f" x="185.76" y="144.328302" style="fill: #1f77b4"/>
     <use xlink:href="#m5a9b8c685f" x="228.477703" y="140.403868" style="fill: #1f77b4"/>
     <use xlink:href="#m5a9b8c685f" x="160.129378" y="136.672945" style="fill: #1f77b4"/>
     <use xlink:href="#m5a9b8c685f" x="254.108325" y="163.424593" style="fill: #1f77b4"/>
     <use xlink:href="#m5a9b8c685f" x="168.672919" y="122.437442" style="fill: #1f77b4"/>
     <use xlink:href="#m5a9b8c685f" x="168.672919" y="161.89912" style="fill: #1f77b4"/>
     <use xlink:href="#m5a9b8c685f" x="151.585837" y="165.445906" style="fill: #1f77b4"/>
     <use xlink:href="#m5a9b8c685f" x="245.564785" y="148.500045" style="fill: #1f77b4"/>
     <use xlink:href="#m5a9b8c685f" x="57.60689" y="134.349142" style="fill: #1f77b4"/>
     <use xlink:href="#m5a9b8c685f" x="279.738947" y="141.569319" style="fill: #1f77b4"/>
     <use xlink:href="#m5a9b8c685f" x="143.042297" y="147.158829" style="fill: #1f77b4"/>
     <use xlink:href="#m5a9b8c685f" x="254.108325" y="132.230931" style="fill: #1f77b4"/>
     <use xlink:href="#m5a9b8c685f" x="185.76" y="137.532019" style="fill: #1f77b4"/>
     <use xlink:href="#m5a9b8c685f" x="219.934163" y="158.493903" style="fill: #1f77b4"/>
     <use xlink:href="#m5a9b8c685f" x="185.76" y="117.841878" style="fill: #1f77b4"/>
     <use xlink:href="#m5a9b8c685f" x="348.087273" y="127.160114" style="fill: #1f77b4"/>
     <use xlink:href="#m5a9b8c685f" x="177.216459" y="116.707961" style="fill: #1f77b4"/>
     <use xlink:href="#m5a9b8c685f" x="237.021244" y="138.998814" style="fill: #1f77b4"/>
     <use xlink:href="#m5a9b8c685f" x="202.847081" y="127.626756" style="fill: #1f77b4"/>
     <use xlink:href="#m5a9b8c685f" x="254.108325" y="116.345456" style="fill: #1f77b4"/>
     <use xlink:href="#m5a9b8c685f" x="151.585837" y="137.140626" style="fill: #1f77b4"/>
     <use xlink:href="#m5a9b8c685f" x="177.216459" y="133.74628" style="fill: #1f77b4"/>
     <use xlink:href="#m5a9b8c685f" x="185.76" y="117.037104" style="fill: #1f77b4"/>
     <use xlink:href="#m5a9b8c685f" x="262.651866" y="157.438037" style="fill: #1f77b4"/>
     <use xlink:href="#m5a9b8c685f" x="134.498756" y="139.15978" style="fill: #1f77b4"/>
     <use xlink:href="#m5a9b8c685f" x="202.847081" y="147.715278" style="fill: #1f77b4"/>
     <use xlink:href="#m5a9b8c685f" x="202.847081" y="139.450119" style="fill: #1f77b4"/>
     <use xlink:href="#m5a9b8c685f" x="151.585837" y="131.14164" style="fill: #1f77b4"/>
     <use xlink:href="#m5a9b8c685f" x="160.129378" y="142.529746" style="fill: #1f77b4"/>
     <use xlink:href="#m5a9b8c685f" x="177.216459" y="150.292599" style="fill: #1f77b4"/>
     <use xlink:href="#m5a9b8c685f" x="194.303541" y="127.570317" style="fill: #1f77b4"/>
     <use xlink:href="#m5a9b8c685f" x="134.498756" y="166.325656" style="fill: #1f77b4"/>
     <use xlink:href="#m5a9b8c685f" x="177.216459" y="157.622771" style="fill: #1f77b4"/>
     <use xlink:href="#m5a9b8c685f" x="125.955215" y="126.654171" style="fill: #1f77b4"/>
     <use xlink:href="#m5a9b8c685f" x="219.934163" y="128.035341" style="fill: #1f77b4"/>
     <use xlink:href="#m5a9b8c685f" x="202.847081" y="115.776679" style="fill: #1f77b4"/>
     <use xlink:href="#m5a9b8c685f" x="151.585837" y="126.978058" style="fill: #1f77b4"/>
     <use xlink:href="#m5a9b8c685f" x="271.195407" y="121.990026" style="fill: #1f77b4"/>
    </g>
   </g>
  </g>
 </g>
 <defs>
  <clipPath id="p44de0d5c76">
   <rect x="7.2" y="7.2" width="357.12" height="266.112"/>
  </clipPath>
 </defs>
</svg>
